<?xml version="1.0" standalone="no"?>
<!DOCTYPE svg PUBLIC "-//W3C//DTD SVG 1.1//EN" "http://www.w3.org/Graphics/SVG/1.1/DTD/svg11.dtd" >
<svg xmlns="http://www.w3.org/2000/svg" xmlns:xlink="http://www.w3.org/1999/xlink" version="1.1">
<metadata>
Created by FontForge 20161003 at Sat Jul 21 13:01:00 2018
 By www-data
Copyright (c) 2017 by HRLN. All rights reserved.
</metadata>
<defs>
<font id="Flaming" horiz-adv-x="573" >
  <font-face 
    font-family="Flaming"
    font-weight="400"
    font-stretch="normal"
    units-per-em="2000"
    panose-1="0 0 0 0 0 0 0 0 0 0"
    ascent="1600"
    descent="-400"
    x-height="671"
    cap-height="1275"
    bbox="-896 -425 2261 1738"
    underline-thickness="50"
    underline-position="-175"
    unicode-range="U+000D-E032"
  />
<missing-glyph horiz-adv-x="333" 
 />
    <glyph glyph-name=".notdef" horiz-adv-x="333" 
 />
    <glyph glyph-name=".null" horiz-adv-x="0" 
 />
    <glyph glyph-name="nonmarkingreturn" horiz-adv-x="666" 
 />
    <glyph glyph-name="NULL" horiz-adv-x="0" 
 />
    <glyph glyph-name="NULL" horiz-adv-x="0" 
 />
    <glyph glyph-name="CR" unicode="&#xd;" horiz-adv-x="532" 
 />
    <glyph glyph-name="space" unicode=" " horiz-adv-x="532" 
 />
    <glyph glyph-name="exclam" unicode="!" horiz-adv-x="605" 
d="M269 306q0 74 75.5 294t163 411t116.5 191q57 0 107.5 -31t50.5 -65q0 -13 -12 -25q-60 -60 -233 -407t-173 -412q0 -21 -22 -21q-23 0 -48 20t-25 45zM242 159q41 0 77.5 -18t37.5 -40q0 -9 -10 -19q-15 -13 -28.5 -38.5t-13.5 -39.5q0 -26 -41 -26q-37 0 -62 25.5
t-25 63.5q0 35 20 63.5t45 28.5z" />
    <glyph glyph-name="quotedbl" unicode="&#x22;" horiz-adv-x="660" 
d="M335 934q0 69 41 173t73 104q41 0 68 -13t27 -34q0 -26 -71.5 -138.5t-71.5 -137.5q0 -9 -6 -9q-13 0 -36.5 17.5t-23.5 37.5zM573 934q0 69 41 173t73 104q41 0 68 -13t27 -34q0 -26 -71.5 -138.5t-71.5 -137.5q0 -9 -6 -9q-13 0 -36.5 17.5t-23.5 37.5z" />
    <glyph glyph-name="numbersign" unicode="#" horiz-adv-x="1452" 
d="M775 740h169q60 171 60 211q0 10 7 10q20 0 66.5 -24t46.5 -37q0 -44 -38 -165q208 -8 215 -23q1 -1 1 -5q0 -21 -22 -67.5t-35 -46.5q-5 0 -9 2q-32 12 -194 12q-57 -161 -95 -255q203 -8 210 -23q1 -1 1 -5q0 -21 -22 -67.5t-35 -46.5q-5 0 -9 2q-32 12 -195 12
q-67 -173 -69 -211q0 -13 -11 -13q-23 0 -73.5 28.5t-50.5 50.5q0 15 52 148q-17 0 -79.5 -0.5t-80.5 -0.5q-68 -175 -70 -214q0 -12 -12 -12q-22 0 -72.5 28.5t-50.5 50.5q0 16 49 141q-178 -7 -204 -20q-4 -1 -8 -1q-7 0 -7 10q0 23 27.5 68.5t51.5 56.5q31 14 193 19
q40 99 98 251q-186 -9 -211 -21q-4 -1 -8 -1q-7 0 -7 10q0 23 27.5 68.5t52.5 56.5q42 19 196 19q61 173 61 215q0 10 7 10q20 0 66.5 -24t46.5 -37q0 -44 -36 -160zM636 357h161q64 159 99 253q-17 0 -82.5 -0.5t-83.5 -0.5q-41 -115 -94 -252z" />
    <glyph glyph-name="dollar" unicode="$" horiz-adv-x="923" 
d="M724 272q0 -120 -116.5 -197t-278.5 -77q-17 -59 -17 -81q0 -12 8.5 -24t8.5 -16q1 -8 -9 -14t-24 -6q-25 0 -40.5 20.5t-15.5 53.5q0 25 14 72q-102 15 -151.5 73t-49.5 150q0 53 27.5 118t49.5 65q6 0 12.5 -4.5t6.5 -12.5t-8 -27q-16 -46 -16 -85q0 -126 183 -126
q35 93 120 298q-43 19 -65.5 30t-58.5 34t-54.5 45t-33 56.5t-14.5 74.5q0 95 67 191t171.5 157.5t207.5 61.5q33 0 67 -8q29 61 41 81q7 14 13 14q13 0 29 -21t16 -36q0 -10 -13 -17.5t-17 -15.5q-5 -7 -14 -27q112 -66 112 -224q0 -93 -38.5 -154t-97.5 -61q-35 0 -76 20
t-41 37q0 9 15 9q38 0 72 81t34 150q0 43 -17 65q-104 -219 -221 -505q19 -12 57 -31.5t59.5 -33t46.5 -35.5t37 -51t12 -67zM396 685q0 -99 65 -157q109 254 215 484q-112 -10 -196 -107t-84 -220zM381 158q89 12 149.5 52.5t60.5 98.5q0 38 -27 64.5t-79 52.5
q-72 -175 -104 -268z" />
    <glyph glyph-name="percent" unicode="%" horiz-adv-x="939" 
d="M971 1180q67 0 67 -125q0 -52 -33 -52q-53 0 -199 -164.5t-293.5 -372t-262.5 -404t-115 -254.5q0 -32 -26 -32q-28 0 -53 49.5t-25 91.5q0 85 125.5 297.5t286 424.5t317 376.5t211.5 164.5zM738 42q0 -98 -65.5 -174t-149.5 -76q-63 0 -103.5 45t-40.5 117
q0 96 68 173.5t152 77.5q62 0 100.5 -45t38.5 -118zM417 1215q61 0 99.5 -45t38.5 -117q0 -98 -65.5 -174.5t-149.5 -76.5q-63 0 -103 45t-40 117q0 96 68 173.5t152 77.5zM405 1135q-39 0 -71.5 -54t-32.5 -116q0 -38 14 -60t37 -22q38 0 69 54.5t31 119.5q0 78 -47 78z
M534 -127q38 0 69 54.5t31 119.5q0 78 -47 78q-38 0 -71 -54t-33 -116q0 -38 14 -60t37 -22z" />
    <glyph glyph-name="ampersand" unicode="&#x26;" horiz-adv-x="1110" 
d="M522 862q0 -93 160 -172q41 -11 92 -29q19 -7 37 -32.5t18 -48.5q0 -20 -11 -20q-5 0 -23 6q-90 30 -183 30q-123 0 -227.5 -52t-163 -134t-58.5 -172q0 -96 68.5 -152t186.5 -56q164 0 272 106t116 277q-127 -30 -206.5 -66.5t-79.5 -63.5q0 -13 -16.5 -24t-32.5 -11
q-21 0 -21 21q0 74 256 185q251 110 406 252.5t155 262.5q0 54 -31 88t-80 34q-43 0 -43 21q-1 11 15 19t47 8q83 0 134.5 -62t51.5 -163q0 -160 -128.5 -289.5t-343.5 -191.5q-8 -217 -149.5 -366t-342.5 -149q-170 0 -283.5 108t-113.5 271q0 162 114.5 278.5t300.5 137.5
q-105 71 -105 158q0 70 62 151t157.5 137.5t182.5 56.5q86 0 150.5 -53.5t64.5 -126.5q0 -65 -48.5 -130.5t-93.5 -65.5q-29 0 -75.5 25t-46.5 38q0 7 9 7q29 0 84.5 72t59.5 128q-63 -3 -132.5 -43t-115.5 -97.5t-46 -107.5z" />
    <glyph glyph-name="quotesingle" unicode="'" horiz-adv-x="422" 
d="M544 1164q0 -26 -71.5 -138.5t-71.5 -137.5q0 -9 -6 -9q-13 0 -36.5 17.5t-23.5 37.5q0 69 41 173t73 104q41 0 68 -13t27 -34z" />
    <glyph glyph-name="parenleft" unicode="(" horiz-adv-x="636" 
d="M85 96q0 133 29.5 278t80 277.5t119.5 253t144.5 208.5t159 140t160.5 52q28 0 43.5 -12t15.5 -27q0 -25 -34 -25q-60 0 -137 -88.5t-149 -232.5t-133.5 -309.5t-99 -336t-37.5 -296.5q0 -114 29.5 -184t77.5 -70q16 0 24.5 -7.5t8.5 -17.5q0 -16 -17 -27.5t-52 -11.5
q-106 0 -169.5 118t-63.5 318z" />
    <glyph glyph-name="parenright" unicode=")" horiz-adv-x="632" 
d="M-200 -301q0 25 34 25q54 0 128.5 83.5t147 221.5t135 299.5t101.5 336t39 311.5q0 121 -29.5 193t-77.5 72q-16 0 -24.5 7.5t-8.5 17.5q0 16 17 27.5t52 11.5q106 0 169.5 -119t63.5 -325q0 -139 -30.5 -286.5t-82 -278.5t-121 -249t-144.5 -202.5t-156.5 -134.5
t-153.5 -50q-28 0 -43.5 12t-15.5 27z" />
    <glyph glyph-name="asterisk" unicode="*" horiz-adv-x="1092" 
d="M573 1004q0 112 -14 151q-3 6 -3 10q0 13 46.5 35t68.5 22q3 0 5 -1q13 -6 20.5 -67t7.5 -149q105 53 125 75q8 10 17 10q15 0 55.5 -34.5t40.5 -48.5q0 -26 -148 -103q107 -43 133 -43q14 0 14 -9q0 -15 -51 -48.5t-81 -33.5q-29 0 -110 33q-6 -87 -17 -114
q-12 -27 -58 -55.5t-69 -28.5q-10 0 -10 8q0 3 3 11q15 35 22 177q-78 -31 -106 -31q-30 0 -80.5 32.5t-50.5 50.5q0 8 13 8q29 0 133 43q-147 76 -147 99q0 13 41 50t56 37q6 0 13 -7q27 -27 131 -79z" />
    <glyph glyph-name="plus" unicode="+" horiz-adv-x="1192" 
d="M651 917q18 0 64.5 -21.5t46.5 -33.5q0 -32 -54 -278q101 0 178.5 -5t118 -13.5t40.5 -19.5q0 -12 -20 -53.5t-31 -41.5q-1 0 -10 3q-28 16 -301 16q-72 -307 -72 -334q0 -13 -12 -13q-19 0 -64.5 26t-45.5 45q0 22 64 276q-105 0 -213.5 -8t-128.5 -18q-9 -3 -12 -3
q-7 0 -7 11q0 23 25.5 62t46.5 48q52 23 317 23q27 105 45.5 203t18.5 121q0 8 6 8z" />
    <glyph glyph-name="comma" unicode="," horiz-adv-x="529" 
d="M124 125q0 27 35 27q30 0 61 -20.5t31 -40.5q0 -65 -42.5 -129t-97.5 -101t-97 -37q-27 0 -60.5 14.5t-33.5 26.5q0 8 18 8q59 0 122.5 77t63.5 175z" />
    <glyph glyph-name="hyphen" unicode="-" horiz-adv-x="892" 
d="M536 451q245 0 256 -24q1 -2 1 -5q0 -22 -22 -68.5t-35 -46.5q-5 0 -11 3q-27 10 -188 10q-300 0 -345 -22q-5 -2 -9 -2q-7 0 -7 10q0 23 28.5 69t55.5 58q44 18 276 18z" />
    <glyph glyph-name="period" unicode="." horiz-adv-x="508" 
d="M250 82q-15 -13 -28.5 -38.5t-13.5 -39.5q0 -26 -41 -26q-37 0 -62 25.5t-25 63.5q0 35 20 63.5t45 28.5q41 0 77.5 -18t37.5 -40q0 -9 -10 -19z" />
    <glyph glyph-name="slash" unicode="/" horiz-adv-x="624" 
d="M764 1311q40 0 65.5 -42t25.5 -86q0 -49 -29 -49q-55 0 -186 -203t-259.5 -458t-228 -489t-99.5 -293q0 -33 -26 -33q-29 0 -65 50t-36 86q0 88 110 339.5t251 511t281.5 463t195.5 203.5z" />
    <glyph glyph-name="zero" unicode="0" horiz-adv-x="999" 
d="M409 0q-157 0 -258.5 114t-101.5 293q0 157 78.5 303.5t206.5 236.5t266 90q155 0 252 -113.5t97 -295.5q0 -120 -45 -235.5t-119 -201.5t-173.5 -138.5t-202.5 -52.5zM243 371q0 -130 47.5 -205t125.5 -75q84 0 163.5 86.5t127.5 224t48 279.5q0 138 -45 203t-115 65
q-85 0 -167.5 -86t-133.5 -221t-51 -271z" />
    <glyph glyph-name="one" unicode="1" horiz-adv-x="560" 
d="M388 8q-5 0 -9 2q-31 12 -164 12q-229 0 -272 -20q-4 -2 -9 -2q-6 0 -6 7q0 20 23 57t46 47q21 9 108 16l226 767q-66 -42 -121.5 -95t-55.5 -78q0 -8 -10 -8q-19 0 -42.5 12t-23.5 28q0 26 63 95.5t136.5 129t99.5 59.5q52 0 97.5 -39t45.5 -78l-243 -791q145 0 157 -23
q1 -1 1 -5q0 -17 -18 -55t-29 -38z" />
    <glyph glyph-name="two" unicode="2" horiz-adv-x="911" 
d="M641 796q0 68 -39.5 108t-112.5 40q-108 0 -203 -79t-95 -169q0 -45 25.5 -73.5t65.5 -28.5q35 0 35 -17q0 -9 -13.5 -15.5t-38.5 -6.5q-66 0 -108 49t-42 122q0 85 60.5 158t152 113t187.5 40q139 0 232 -82.5t93 -201.5q0 -233 -389 -538q149 -40 252 -117.5
t103 -143.5q0 -37 -28 -81t-53 -44q-15 0 -15 25q0 74 -101.5 162.5t-243.5 134.5q-200 -144 -307 -144q-55 0 -88 25t-33 66q0 66 84.5 106t215.5 40q19 0 28 -1q30 28 46 43q144 134 237 269t93 241zM169 184q-78 0 -128.5 -20t-50.5 -52q0 -26 28 -26q52 0 176 97
q-9 1 -25 1z" />
    <glyph glyph-name="three" unicode="3" horiz-adv-x="723" 
d="M472 582q91 -20 139 -78t48 -145q0 -103 -64 -186t-170 -128t-230 -45q-121 0 -189.5 43.5t-68.5 119.5q0 54 30.5 107.5t64.5 53.5q22 0 59 -20t37 -30q0 -5 -8 -5q-20 0 -57.5 -59t-37.5 -92q0 -27 30 -44.5t78 -17.5q82 0 164.5 48t136.5 125.5t54 156.5t-55 125
t-150 46q-16 0 -30 14.5t-14 30.5q0 18 15 18q129 0 220 61t91 149q0 63 -49.5 101.5t-125.5 38.5q-74 0 -132 -38t-93 -108q-26 -50 -47 -50q-8 0 -14 7t-6 18q0 9 7 28q37 95 130.5 152.5t212.5 57.5q122 0 198.5 -59t76.5 -148q0 -83 -68.5 -149t-182.5 -99z" />
    <glyph glyph-name="four" unicode="4" horiz-adv-x="813" 
d="M357 128l74 249q-233 0 -420 -42q-10 0 -20 10.5t-10 22.5q0 14 153 180.5t315 327.5t181 161q52 0 97.5 -39t45.5 -78l-136 -447q44 -9 72.5 -22t28.5 -22q0 -25 -20.5 -58t-34.5 -33q-5 0 -19 7q-26 13 -59 21l-72 -237q62 -3 102 -12.5t40 -22.5q0 -12 -18 -49
t-29 -37q-3 0 -7 2q-33 13 -162 13q-93 0 -175 -6t-101 -15q-4 -2 -8 -2q-6 0 -6 8q0 19 23 56.5t45 47.5q24 11 120 16zM462 483l110 371q-88 -82 -206 -202.5t-183 -195.5q135 27 279 27z" />
    <glyph glyph-name="five" unicode="5" horiz-adv-x="761" 
d="M168 576q-10 0 -10 19q0 50 77 232t108 191q63 19 251 19q225 0 225 -40q0 -14 -19.5 -48.5t-27.5 -34.5q-6 0 -10 2q-32 12 -162 12q-132 0 -187 -5q-24 -34 -56.5 -113.5t-47.5 -132.5q20 2 37 2q136 0 236.5 -81.5t100.5 -211.5q0 -100 -62 -189.5t-168 -143
t-226 -53.5q-111 0 -179.5 46t-68.5 124q0 58 32 113.5t68 55.5q22 0 60.5 -21t38.5 -31q0 -6 -7 -6q-22 0 -61.5 -61t-39.5 -96q0 -28 29.5 -46.5t72.5 -18.5q72 0 151 54.5t130 134t51 149.5q0 83 -70 144.5t-159 61.5q-57 0 -107 -27z" />
    <glyph glyph-name="six" unicode="6" horiz-adv-x="818" 
d="M32 319q0 119 52.5 248t136.5 232.5t199.5 170.5t231.5 67q41 0 71 -15t30 -34q0 -10 -7 -10q-119 0 -241 -99t-202 -251q63 15 124 15q141 0 213 -74t72 -204q0 -162 -103.5 -263.5t-267.5 -101.5q-147 0 -228 85t-81 234zM213 292q0 -105 37 -161.5t99 -56.5
q75 0 127.5 78t52.5 192q0 212 -198 212q-26 0 -64 -5q-54 -133 -54 -259z" />
    <glyph glyph-name="seven" unicode="7" horiz-adv-x="655" 
d="M36 83q0 42 105.5 238t338.5 600q-66 6 -144 6q-182 0 -182 -23q0 -4 -8 -4q-16 0 -28 20.5t-12 37.5q0 36 70.5 57.5t188.5 21.5q141 0 230 -30.5t89 -77.5q0 -11 -11 -24q-62 -75 -222.5 -359t-247.5 -531q-5 -15 -32 -15q-38 0 -86.5 26t-48.5 57z" />
    <glyph glyph-name="eight" unicode="8" horiz-adv-x="761" 
d="M745 795q0 -99 -61.5 -195t-144.5 -134q123 -120 123 -232q0 -101 -94 -167.5t-237 -66.5t-227.5 69.5t-84.5 187.5q0 112 71 210.5t162 114.5q-92 91 -92 198q0 114 83 185.5t216 71.5q128 0 207 -66.5t79 -175.5zM500 243q0 64 -48 138.5t-133 143.5q-58 -20 -97.5 -95
t-39.5 -171q0 -89 37 -138t104 -49q72 0 124.5 51t52.5 120zM315 794q0 -134 151 -265q54 40 90 118t36 161q0 150 -125 150q-69 0 -110.5 -45t-41.5 -119z" />
    <glyph glyph-name="nine" unicode="9" horiz-adv-x="809" 
d="M157 0q-41 0 -71 15t-30 34q0 10 7 10q119 0 238.5 98.5t195.5 249.5q-57 -13 -115 -13q-143 0 -222 76t-79 209q0 157 102 257.5t259 100.5q146 0 232.5 -90t86.5 -243q0 -92 -31.5 -191.5t-89 -190t-131.5 -163.5t-166.5 -116t-185.5 -43zM583 740q0 109 -38 166
t-100 57q-76 0 -131 -77.5t-55 -188.5q0 -107 56.5 -161.5t159.5 -54.5q30 0 57 4q51 131 51 255z" />
    <glyph glyph-name="colon" unicode=":" horiz-adv-x="508" 
d="M145 159q41 0 77.5 -18t37.5 -40q0 -9 -10 -19q-15 -13 -28.5 -38.5t-13.5 -39.5q0 -26 -41 -26q-37 0 -62 25.5t-25 63.5q0 35 20 63.5t45 28.5zM281 361q-37 0 -62 25.5t-25 63.5q0 35 20 63.5t45 28.5q41 0 77.5 -18t37.5 -40q0 -9 -10 -19q-15 -13 -28.5 -38.5
t-13.5 -39.5q0 -26 -41 -26z" />
    <glyph glyph-name="semicolon" unicode=";" horiz-adv-x="529" 
d="M-61 -127q59 0 122 77t63 175q0 27 35 27q30 0 61 -20.5t31 -40.5q0 -65 -42.5 -129t-97.5 -101t-97 -37q-27 0 -60.5 14.5t-33.5 26.5q0 8 19 8zM302 361q-37 0 -62 25.5t-25 63.5q0 35 20 63.5t45 28.5q41 0 77.5 -18t37.5 -40q0 -9 -10 -19q-15 -13 -28.5 -38.5
t-13.5 -39.5q0 -26 -41 -26z" />
    <glyph glyph-name="less" unicode="&#x3c;" horiz-adv-x="1276" 
d="M1017 247q0 -18 -44 -44t-65 -26q-13 0 -22 13q-13 22 -112.5 69t-231.5 99q-121 46 -206.5 86.5t-85.5 54.5q0 8 26.5 24.5t87 44.5t107 48.5t134.5 58.5q87 37 139 60t115.5 52.5t97 49t39.5 30.5q7 12 21 12q21 0 65 -26t44 -43q0 -50 -449 -234q-84 -34 -174 -74
q242 -92 378 -159.5t136 -95.5z" />
    <glyph glyph-name="equal" unicode="=" horiz-adv-x="1452" 
d="M1302 708q0 -22 -22 -68.5t-35 -46.5q-5 0 -9 2q-19 7 -160 11t-241 4q-132 0 -288 -8t-179 -19q-3 -1 -7 -1q-7 0 -7 10q0 23 27 68.5t50 55.5q28 11 162 18t246 7q463 0 463 -33zM1158 325q0 -22 -22 -68.5t-35 -46.5q-5 0 -9 2q-19 7 -160 11t-241 4q-132 0 -288 -8
t-179 -19q-3 -1 -7 -1q-7 0 -7 10q0 23 27 68.5t50 55.5q28 11 162 18t246 7q463 0 463 -33z" />
    <glyph glyph-name="greater" unicode="&#x3e;" horiz-adv-x="1276" 
d="M359 177q-21 0 -65 26t-44 43q0 29 131.5 94t317.5 140q71 28 174 74q-57 28 -139 59q-150 55 -262.5 110.5t-112.5 84.5q0 18 43.5 44.5t65.5 26.5q13 0 22 -13q13 -22 112.5 -69t231.5 -99q121 -46 206.5 -86.5t85.5 -54.5q0 -8 -26.5 -24.5t-87 -44.5t-107 -48.5
t-134.5 -58.5q-87 -37 -139 -60t-115.5 -52.5t-97 -49t-39.5 -30.5q-7 -12 -21 -12z" />
    <glyph glyph-name="question" unicode="?" horiz-adv-x="801" 
d="M177 67q0 35 20 63.5t45 28.5q41 0 77.5 -18t37.5 -40q0 -9 -10 -19q-15 -13 -28.5 -38.5t-13.5 -39.5q0 -26 -41 -26q-37 0 -62 25.5t-25 63.5zM653 551q-57 -42 -86 -64.5t-73.5 -61.5t-66 -67.5t-38.5 -66t-17 -74.5q0 -8 -10 -8q-25 0 -51 34.5t-26 68.5
q0 32 16.5 67.5t36.5 62.5t62 66.5t67.5 61.5t78.5 65q51 41 78.5 64t67.5 61t60.5 65.5t36.5 62.5t16 66q0 67 -60 109.5t-155 42.5q-113 0 -188 -59.5t-75 -149.5q0 -57 30.5 -92t80.5 -35q44 0 44 -21q0 -11 -17 -19t-50 -8q-82 0 -131.5 51.5t-49.5 136.5
q0 131 112 220.5t276 89.5q152 0 253.5 -77t101.5 -194q0 -34 -10.5 -67.5t-25 -61t-43.5 -60t-50.5 -54.5t-62.5 -54.5t-64 -50t-68 -50.5z" />
    <glyph glyph-name="at" unicode="@" horiz-adv-x="1796" 
d="M1147 233q0 -45 21.5 -70t56.5 -25q57 0 113 64t91 161.5t35 191.5q0 170 -115 279.5t-288 109.5q-124 0 -248.5 -61t-218.5 -158.5t-153 -227t-59 -257.5q0 -179 111.5 -278t308.5 -99q104 0 199 19q12 3 19 3q14 0 22.5 -6.5t8.5 -13.5q0 -22 -97 -45t-188 -23
q-249 0 -408 150t-159 394q0 148 63 286t168 239.5t249 162.5t299 61q180 0 334.5 -78t245 -210.5t90.5 -285.5q0 -124 -58.5 -231t-156.5 -169.5t-209 -62.5q-110 0 -188 60t-85 156q-53 -99 -99.5 -154t-88.5 -55q-45 0 -119.5 46.5t-74.5 77.5q0 128 50 257.5t125 210
t145 80.5q46 0 118 -25.5t80 -56.5q54 82 84 82q26 0 82.5 -38t56.5 -64q0 -11 -13 -25q-41 -43 -95.5 -170t-54.5 -202zM1078 636q-76 0 -151 -72t-122.5 -193t-47.5 -250q31 11 79 87t121 214t121 214z" />
    <glyph glyph-name="A" unicode="A" horiz-adv-x="1402" 
d="M908 23q0 116 38 283q-66 32 -136 56q-150 -177 -296 -282t-253 -105q-77 0 -126 51.5t-49 133.5q0 141 143.5 235.5t357.5 94.5q87 0 183 -17q126 163 225 337.5t141 315.5q-184 -15 -340.5 -75.5t-248.5 -150.5t-92 -188q0 -54 28 -83t77 -29q24 0 37 -6.5t13 -14.5
q0 -11 -18 -19t-52 -8q-82 0 -130.5 48t-48.5 130q0 133 123 260t324 206t413 79q56 0 129 -51t122 -113t49 -96q0 -13 -8.5 -23t-19.5 -10q-35 0 -95.5 -91t-125.5 -242t-107 -307q155 -84 155 -165q0 -42 -35 -94t-65 -52q-19 0 -19 28q0 60 -71 126q-17 -100 -17 -186
q0 -121 32.5 -200t83.5 -79q31 0 51 28t20 71q0 54 23 54q10 0 17 -16t7 -46q0 -71 -47 -113.5t-126 -42.5q-121 0 -193.5 100t-72.5 268zM516 416q-153 0 -259 -71t-106 -173q0 -55 31 -90.5t79 -35.5q77 0 196 95t248 251q-97 24 -189 24zM976 422q50 178 127 367
q-101 -184 -222 -339q36 -9 95 -28z" />
    <glyph glyph-name="B" unicode="B" horiz-adv-x="1300" 
d="M801 807q-34 0 -147 -220q238 18 383 96.5t145 191.5q0 94 -101 150.5t-272 56.5q-166 0 -314.5 -53t-237.5 -142.5t-89 -189.5q0 -62 32.5 -104.5t82.5 -42.5q19 0 30 -6t11 -15q0 -11 -16 -18.5t-46 -7.5q-84 0 -136 65t-52 164q0 135 97 254t268 191.5t371 72.5
q233 0 377.5 -94.5t144.5 -247.5q0 -111 -81 -198t-229 -139q88 -28 136.5 -90t48.5 -152q0 -117 -77.5 -226.5t-203 -177t-259.5 -67.5q-135 0 -269 95q-6 -30 -6 -51q0 -43 -30 -43q-41 0 -88 52t-47 104q0 70 89 302t194.5 438.5t144.5 206.5q54 0 108.5 -45t54.5 -84
q0 -12 -5.5 -19t-11.5 -7zM590 458q-118 -248 -172 -425q70 -32 154 -32q116 0 237.5 55t200 140.5t78.5 168.5q0 70 -60 109.5t-162 39.5q-124 0 -276 -56z" />
    <glyph glyph-name="C" unicode="C" horiz-adv-x="994" 
d="M681 665q0 10 24 10q59 0 126.5 61t114 156.5t46.5 185.5q-103 0 -236 -86.5t-243.5 -211.5t-187 -273.5t-76.5 -262.5q0 -101 58.5 -157.5t162.5 -56.5q155 0 316 124.5t277 331.5q23 41 35.5 55t24.5 14t19.5 -8.5t7.5 -21.5q0 -14 -7 -28q-131 -262 -310 -420.5
t-349 -158.5q-162 0 -280 135t-118 320q0 134 68.5 283.5t173 268t237 196.5t252.5 78q123 0 202.5 -76.5t79.5 -196.5q0 -124 -80 -225t-172 -101q-46 0 -106 24t-60 41z" />
    <glyph glyph-name="D" unicode="D" horiz-adv-x="1332" 
d="M766 805q-30 0 -151 -294.5t-195 -514.5q27 -9 58 -9q96 0 224.5 76.5t239 188.5t187.5 250t77 251q0 142 -118 235.5t-327 93.5q-158 0 -300.5 -54t-228 -143.5t-85.5 -187.5q0 -63 33 -105t83 -42q39 0 39 -20q0 -12 -15.5 -20t-45.5 -8q-82 0 -134.5 64t-52.5 162
t56.5 193t149 167.5t219.5 117t261 44.5q133 0 244.5 -44.5t185 -121.5t114.5 -180t41 -219q0 -152 -69 -305.5t-175 -266.5t-237.5 -184t-251.5 -71q-107 0 -196 58q-2 -6 -2 -19q0 -39 -30 -39q-42 0 -93 52t-51 101q0 62 81.5 295t179 444t134.5 211q55 0 108.5 -45
t53.5 -88q0 -23 -11 -23z" />
    <glyph glyph-name="E" unicode="E" horiz-adv-x="970" 
d="M836 661q19 -3 37 -30.5t18 -53.5q0 -19 -10 -19q-9 0 -32 9q-52 20 -137 20q-133 0 -256 -51t-200 -139t-77 -187q0 -86 59 -133t167 -47q177 0 347.5 124t287.5 334q22 39 34.5 53t24.5 14t19.5 -8.5t7.5 -21.5q0 -14 -7 -28q-131 -263 -314.5 -421t-366.5 -158
q-108 0 -205.5 53.5t-157 144t-59.5 190.5q0 154 137.5 265t337.5 133q-119 74 -119 167q0 70 62 151t157.5 137t182.5 56t151 -53t64 -126q0 -65 -48.5 -130.5t-93.5 -65.5q-29 0 -75.5 25t-46.5 38q0 6 9 6q29 0 84.5 72t59.5 129q-63 -3 -132.5 -43t-115.5 -97.5
t-46 -107.5q0 -54 50 -101t111 -72q58 -23 91 -28z" />
    <glyph glyph-name="F" unicode="F" horiz-adv-x="1063" 
d="M1003 541q-175 -456 -247 -573q-39 -62 -103.5 -95.5t-134.5 -33.5q-71 0 -114.5 31.5t-43.5 81.5q0 25 11 39t25 14q12 0 20.5 -9.5t8.5 -25.5t8 -25.5t21 -9.5q35 0 66 38q71 85 243 537q-97 -29 -150.5 -77t-53.5 -110q0 -26 -13 -26q-23 0 -43 38.5t-20 81.5
q0 150 315 184q134 359 185 548q-185 -25 -373.5 -131t-309 -248t-120.5 -267q0 -63 30.5 -99.5t81.5 -36.5q43 0 43 -21q0 -11 -17 -18.5t-47 -7.5q-82 0 -133.5 61t-51.5 155q0 118 86 251.5t217.5 240t299.5 177t320 70.5q67 0 128.5 -46t61.5 -90q0 -77 -170 -527
q33 0 53.5 -9.5t20.5 -23.5q0 -16 -28.5 -27t-71.5 -11z" />
    <glyph glyph-name="G" unicode="G" horiz-adv-x="1163" 
d="M989 -280q35 0 63.5 34t28.5 78q0 43 21 43q11 0 19 -16.5t8 -46.5q0 -69 -45 -113t-125 -44q-120 0 -196 95t-76 220q0 31 7 73q-120 -97 -257 -97q-150 0 -246 115t-96 293q0 148 72 302.5t184.5 273t259 194t287.5 75.5q148 0 238.5 -78t90.5 -200q0 -78 -36.5 -160
t-97 -136.5t-121.5 -54.5q-44 0 -104 23.5t-60 40.5q0 11 24 11q54 0 111.5 66t95.5 168t38 199q-85 0 -177.5 -35t-175.5 -95t-158 -142.5t-130 -173.5t-87 -192.5t-32 -196.5q0 -203 151 -203q109 0 213.5 102.5t177.5 308.5q3 9 15 9q38 0 113.5 -71t75.5 -119
q0 -14 -7 -23.5t-18 -9.5q-28 0 -63 -64.5t-58 -149t-23 -142.5q0 -61 26.5 -111t68.5 -50z" />
    <glyph glyph-name="H" unicode="H" horiz-adv-x="1458" 
d="M752 410q-104 -267 -153 -348q-37 -58 -94.5 -90t-122.5 -32q-81 0 -127.5 50t-46.5 135q0 121 92.5 210t249.5 127q127 340 203 626q-133 -23 -259 -95.5t-205 -173.5t-79 -197q0 -59 30.5 -95.5t79.5 -36.5q21 0 33 -6.5t12 -14.5q0 -11 -16.5 -19t-46.5 -8
q-82 0 -133.5 61.5t-51.5 159.5q0 101 58 202.5t150 177.5t213.5 124t241.5 48q67 0 128.5 -46.5t61.5 -93.5q0 -42 -56 -214.5t-132 -374.5q129 0 262 -36q59 183 137 351.5t157 278.5t132 110q40 0 81 -55.5t41 -99.5q0 -18 -8 -30t-21 -12q-51 0 -144.5 -190.5
t-171.5 -435.5q134 -81 134 -175q0 -51 -35 -107t-66 -54q-18 0 -18 35q0 70 -61 141q-53 -207 -53 -325q0 -78 23 -120t65 -42q40 0 69.5 33.5t29.5 78.5q0 43 21 43q11 0 18.5 -17t7.5 -47q0 -69 -45.5 -112.5t-130.5 -43.5q-122 0 -188.5 91t-66.5 238q0 143 61 358
q-125 56 -260 68zM523 392q-114 -30 -182 -99.5t-68 -160.5q0 -43 14 -67t32 -24q64 0 204 351z" />
    <glyph glyph-name="I" unicode="I" horiz-adv-x="817" 
d="M200 -25q0 -18 11.5 -29t25.5 -11q41 0 101.5 96t120.5 239.5t120 313t103.5 312.5t68.5 241q-124 -40 -258 -150t-224 -245.5t-90 -240.5q0 -62 31 -98t82 -36q43 0 43 -21q0 -11 -17 -18.5t-47 -7.5q-82 0 -133.5 62t-51.5 160q0 89 44 193t118.5 197.5t164 171.5
t188.5 124.5t183 46.5q68 0 129 -46t61 -90q0 -79 -184.5 -565.5t-258.5 -605.5q-39 -62 -103.5 -96t-134.5 -34q-71 0 -114.5 32.5t-43.5 85.5q0 25 11 39t25 14q12 0 20.5 -9.5t8.5 -24.5z" />
    <glyph glyph-name="J" unicode="J" horiz-adv-x="854" 
d="M446 242q-180 -54 -292 -165.5t-112 -245.5q0 -64 24 -108t48 -44q43 0 133 157t199 406zM696 280q-171 -414 -276 -576q-37 -58 -101 -93.5t-131 -35.5q-95 0 -154.5 68.5t-59.5 178.5q0 168 139.5 301.5t361.5 185.5q97 230 177 457.5t114 375.5
q-125 -36 -262.5 -146.5t-230.5 -249t-93 -245.5q0 -62 31 -98t81 -36q43 0 43 -21q0 -11 -16.5 -18.5t-46.5 -7.5q-83 0 -134.5 61.5t-51.5 160.5q0 89 44 193t118.5 197.5t164 171.5t188.5 124.5t183 46.5q68 0 129.5 -46t61.5 -90q0 -76 -74.5 -304.5t-182.5 -497.5
q32 0 50.5 -8.5t18.5 -19.5q0 -29 -91 -29z" />
    <glyph glyph-name="K" unicode="K" horiz-adv-x="1046" 
d="M865 532q0 -180 20 -332.5t55.5 -257.5t85.5 -163.5t108 -58.5q46 0 77 33t31 79q0 43 21 43q11 0 19 -17t8 -47q0 -69 -46.5 -112.5t-131.5 -43.5q-175 0 -289.5 181t-114.5 473q-175 -263 -175 -337q0 -31 -30 -31q-47 0 -109 61.5t-62 122.5q0 87 116.5 409t208.5 486
q-115 -42 -224 -123t-181.5 -187t-72.5 -204q0 -65 31 -102t82 -37q43 0 43 -21q0 -11 -17 -18.5t-47 -7.5q-83 0 -134 63t-51 165q0 109 62.5 224t157.5 201t213 141.5t223 55.5q56 0 114 -45t58 -86q0 -15 -9 -24q-31 -36 -146.5 -288.5t-184.5 -451.5q96 186 256 421.5
t309.5 407t205.5 171.5q37 0 84.5 -68t47.5 -109q0 -20 -16 -20q-8 0 -22 10t-26 10q-61 0 -218 -167t-330 -399z" />
    <glyph glyph-name="L" unicode="L" horiz-adv-x="1017" 
d="M531 -32q-39 -62 -103.5 -95.5t-134.5 -33.5q-71 0 -114.5 32t-43.5 85q0 61 61 104t167 60q93 196 212 517t168 498q-123 -42 -255 -152t-220.5 -244t-88.5 -238q0 -62 31 -98t82 -36q43 0 43 -21q0 -11 -17 -18.5t-47 -7.5q-82 0 -133.5 62t-51.5 160q0 89 44 193
t118.5 197.5t164 171.5t188.5 124.5t183 46.5q68 0 129 -46t61 -90q0 -62 -129.5 -417.5t-237.5 -598.5q135 -15 249 -62.5t178 -112.5t64 -132q0 -34 -15 -81t-38.5 -82t-42.5 -34q-17 0 -17 36q0 111 -124 212.5t-309 137.5q-15 -27 -21 -37zM200 -38q0 -11 8.5 -19
t20.5 -8q23 0 48 29q15 18 33 51q-110 -15 -110 -53z" />
    <glyph glyph-name="M" unicode="M" horiz-adv-x="1694" 
d="M1121 979q-195 -251 -391.5 -585t-196.5 -421q0 -32 -30 -32q-47 0 -109 61.5t-62 122.5q0 87 116.5 409t208.5 486q-115 -42 -224 -123t-181.5 -187t-72.5 -204q0 -65 31 -102t82 -37q43 0 43 -21q0 -11 -17 -18.5t-47 -7.5q-83 0 -134 63t-51 165q0 109 62.5 224
t157.5 201t213 141.5t223 55.5q56 0 116.5 -45.5t60.5 -85.5q0 -9 -4 -16.5t-9 -7.5q-29 0 -147 -261t-191 -487q93 187 249.5 424t305 410.5t206.5 173.5q37 0 89.5 -59t52.5 -101q0 -17 -9.5 -30t-21.5 -13q-38 0 -121.5 -147.5t-162.5 -344.5t-108 -331
q78 152 234.5 375.5t306 394.5t200.5 171q33 0 82.5 -59t49.5 -101q0 -15 -7.5 -26t-19.5 -11q-39 0 -112 -134t-142 -313t-120.5 -372.5t-51.5 -300.5q0 -72 23 -112.5t65 -40.5q40 0 69.5 33.5t29.5 78.5q0 43 21 43q11 0 19 -17t8 -47q0 -69 -46 -112.5t-131 -43.5
q-122 0 -182.5 93t-60.5 258q0 183 68.5 405.5t174.5 412.5q-171 -231 -322 -474.5t-151 -298.5q0 -19 -21 -19q-47 0 -119 63.5t-72 120.5q0 113 89 343.5t191 419.5z" />
    <glyph glyph-name="N" unicode="N" horiz-adv-x="1285" 
d="M1246 -168q0 20 6.5 31.5t14.5 11.5q11 0 19 -17t8 -47q0 -69 -46 -112.5t-131 -43.5q-125 0 -195 97t-70 272q0 205 90.5 469.5t216.5 456.5q-125 -137 -272 -340.5t-250.5 -385t-103.5 -245.5q0 -35 -32 -35q-49 0 -114 61.5t-65 122.5q0 85 115 403t207 484
q-84 -32 -167 -87.5t-149.5 -123t-107.5 -147t-41 -151.5q0 -65 31 -102t82 -37q43 0 43 -21q0 -11 -17 -18.5t-47 -7.5q-83 0 -134 63t-51 165q0 109 62.5 224t157.5 201t213 141.5t223 55.5q56 0 119 -45t63 -82q0 -11 -5.5 -19.5t-11.5 -8.5q-31 0 -155 -277.5
t-193 -501.5q91 177 260 411t331.5 405.5t225.5 171.5q40 0 88.5 -57.5t48.5 -99.5q0 -17 -8.5 -28.5t-20.5 -11.5q-40 0 -112.5 -134.5t-141.5 -315.5t-120 -379.5t-51 -314.5q0 -78 23.5 -120.5t65.5 -42.5q40 0 69 33.5t29 78.5z" />
    <glyph glyph-name="O" unicode="O" horiz-adv-x="1417" 
d="M86 505q0 103 48.5 212t133.5 202.5t191.5 168.5t232 118.5t244.5 43.5q226 0 367 -146t141 -371q0 -152 -69.5 -303.5t-176 -262.5t-239.5 -180t-256 -69q-152 0 -257 99t-126 251q-16 -8 -46 -8q-83 0 -135.5 68t-52.5 177zM902 951q-15 -13 -62.5 -63t-117 -135
t-132 -176t-107.5 -193t-45 -178q0 -85 37.5 -130t107.5 -45q93 0 220.5 78t238 192t188 255t77.5 256q0 121 -85 197.5t-238 76.5q-68 0 -137 -15q29 -22 48 -47.5t19 -45.5q0 -16 -12 -27zM316 305q0 141 79.5 332.5t199.5 337.5q-177 -96 -296.5 -238.5t-119.5 -272.5
q0 -68 33 -112t83 -44q13 0 21 -3z" />
    <glyph glyph-name="P" unicode="P" horiz-adv-x="1262" 
d="M794 842q0 -25 -17 -25q-24 0 -79.5 -101.5t-119.5 -254.5q35 -8 79 -8q123 0 254 54t220.5 145.5t89.5 186.5q0 110 -116.5 181t-298.5 71q-161 0 -313 -56t-245.5 -147.5t-93.5 -187.5q0 -58 33.5 -99t81.5 -41q40 0 40 -21q0 -11 -16 -19t-45 -8q-81 0 -134 62.5
t-53 157.5q0 130 101 252.5t269 199t352 76.5q244 0 400.5 -131t156.5 -323q0 -82 -31.5 -158t-86 -134.5t-125.5 -102t-153.5 -66.5t-165.5 -23q-127 0 -234 54q-136 -347 -136 -464q0 -44 -30 -44q-42 0 -91 53t-49 107q0 69 80 300t176 437t135 206q55 0 110 -44.5
t55 -84.5z" />
    <glyph glyph-name="Q" unicode="Q" horiz-adv-x="1417" 
d="M1444 733q0 -157 -73 -312t-188 -270t-249 -177q36 -123 87 -189t113 -66q46 0 77 33.5t31 79.5q0 43 21 43q11 0 19 -17t8 -47q0 -69 -46.5 -112.5t-131.5 -43.5q-106 0 -191 70.5t-139 199.5q-47 -7 -79 -7q-152 0 -257 99t-126 251q-16 -8 -46 -8q-83 0 -135.5 67.5
t-52.5 176.5q0 127 75.5 262.5t194 241.5t274.5 174t306 68q228 0 368 -147t140 -370zM894 156q173 126 302 311.5t129 336.5q0 125 -93 203.5t-248 78.5q-68 0 -137 -15q30 -22 48.5 -47.5t18.5 -46.5q0 -15 -12 -26q-15 -13 -62.5 -63t-117 -135t-132 -176t-107.5 -193
t-45 -178q0 -78 43.5 -126.5t119.5 -48.5q60 0 137 33q-31 136 -31 298q0 36 29.5 92.5t65 98t53.5 41.5q10 0 10 -18q0 -237 29 -420zM316 305q0 141 79.5 332.5t199.5 337.5q-177 -96 -296.5 -238.5t-119.5 -272.5q0 -68 33 -112t83 -44q13 0 21 -3z" />
    <glyph glyph-name="R" unicode="R" horiz-adv-x="1248" 
d="M1327 796q0 -126 -71 -232.5t-183.5 -170t-241.5 -77.5q22 -294 135 -470.5t278 -176.5q69 0 110 31t41 82q0 20 6.5 31.5t15.5 11.5q11 0 18.5 -14.5t7.5 -42.5q0 -75 -63 -119t-173 -44q-157 0 -285.5 89.5t-208 255.5t-90.5 381q-46 11 -93 35q-141 -336 -141 -411
q0 -14 10 -14q13 0 13 -11t-14 -22t-33 -11q-45 0 -93 55t-48 108q0 68 80 288.5t176.5 416.5t135.5 196q54 0 109 -45t55 -84q0 -26 -15 -26q-21 0 -76.5 -102t-121.5 -253q35 -8 78 -8q123 0 254 54t220 145.5t89 186.5q0 110 -116 181t-298 71q-161 0 -313 -56
t-246 -147.5t-94 -187.5q0 -58 33.5 -99t81.5 -41q40 0 40 -21q0 -11 -15.5 -19t-44.5 -8q-81 0 -134.5 63t-53.5 158q0 97 60.5 193.5t158.5 169.5t231.5 118.5t271.5 45.5q244 0 400.5 -131t156.5 -323z" />
    <glyph glyph-name="S" unicode="S" horiz-adv-x="866" 
d="M546 615q55 0 122 74t112.5 179.5t45.5 190.5q-103 0 -212 -70.5t-179.5 -176t-70.5 -202.5q0 -36 12 -66.5t27 -51t45.5 -43t50 -34t57.5 -31.5q48 -26 71 -40.5t55 -41.5t46 -59.5t14 -73.5q0 -93 -74.5 -183t-191.5 -145t-236 -55q-118 0 -187 54.5t-69 143.5
q0 65 30.5 139.5t56.5 74.5q7 0 14 -5.5t7 -14.5q0 -8 -8 -30q-19 -52 -19 -96q0 -104 91 -104q87 0 187.5 43.5t168.5 107.5t68 118q0 23 -12 43t-39.5 40t-50.5 33t-65 34q-41 21 -60.5 32t-56 33t-55.5 41t-41 46t-31.5 58t-9.5 67q0 108 86.5 239.5t215.5 223t240 91.5
q103 0 177 -77.5t74 -185.5q0 -75 -34.5 -167.5t-91 -160t-112.5 -67.5q-39 0 -113.5 24t-74.5 41q0 10 20 10z" />
    <glyph glyph-name="T" unicode="T" horiz-adv-x="1014" 
d="M1217 1086q-1 -5 -12 -15q-74 -76 -166 -227t-171 -321.5t-132.5 -347.5t-53.5 -294q0 -77 23 -119.5t65 -42.5q40 0 69.5 34t29.5 79q0 43 21 43q11 0 19 -17t8 -47q0 -69 -46 -112.5t-131 -43.5q-120 0 -182 86t-62 222q0 190 109 498.5t246 552.5q-106 -28 -200 -62.5
t-182 -80.5t-151 -97.5t-100.5 -116t-37.5 -133.5q0 -64 30 -102t81 -38q44 0 44 -21q0 -11 -16.5 -18.5t-46.5 -7.5q-83 0 -134.5 61.5t-51.5 160.5q0 94 52 181.5t137.5 156t202.5 128.5t240 103t257 76q57 71 91 71q25 0 67 -37q206 39 361 39q135 0 212 -32t77 -92
q0 -30 -17 -75t-42 -79t-44 -33q-16 0 -16 27q0 52 -64 79.5t-181 27.5q-82 0 -202 -14z" />
    <glyph glyph-name="U" unicode="U" horiz-adv-x="1302" 
d="M1059 -118q0 -77 23.5 -119.5t65.5 -42.5q40 0 69 33.5t29 78.5q0 20 6.5 31.5t14.5 11.5q11 0 19 -17t8 -47q0 -69 -46 -112.5t-131 -43.5q-123 0 -185 93.5t-62 261.5q0 181 67 406q-45 -93 -81.5 -163.5t-81.5 -144t-84 -120.5t-82.5 -77t-83.5 -30q-85 0 -133 60.5
t-48 162.5q0 160 106 455.5t207 461.5q-117 -42 -227 -127.5t-180 -192t-70 -199.5q0 -62 31 -98.5t82 -36.5q43 0 43 -21q0 -11 -17 -18.5t-47 -7.5q-83 0 -134 62.5t-51 162.5q0 106 60.5 219.5t153.5 202t212 146t230 57.5q56 0 119 -44.5t63 -81.5q0 -11 -5.5 -19
t-12.5 -8q-34 0 -129 -191t-178 -429t-83 -348q0 -39 11 -60t29 -21q59 0 204 259q54 96 174 328q42 81 64.5 124t61.5 117t63.5 115.5t58.5 99t57.5 89.5t50 64t48 46t39.5 14q39 0 89 -57.5t50 -98.5q0 -16 -9.5 -28.5t-22.5 -12.5q-39 0 -111.5 -134.5t-141.5 -315.5
t-120.5 -380t-51.5 -315z" />
    <glyph glyph-name="V" unicode="V" horiz-adv-x="987" 
d="M742 1170q56 0 118.5 -45t62.5 -82q0 -10 -5 -18t-11 -8q-34 0 -165 -293.5t-204 -529.5q95 186 277.5 443t354 447.5t230.5 190.5q37 0 84.5 -68t47.5 -109q0 -20 -16 -20q-9 0 -22.5 10t-25.5 10q-56 0 -206 -161t-301.5 -364.5t-269.5 -396.5t-118 -252q0 -31 -28 -31
q-49 0 -131.5 87t-82.5 154q0 83 116.5 403t207.5 482q-115 -42 -223 -122.5t-180.5 -186.5t-72.5 -204q0 -65 31 -102t82 -37q43 0 43 -21q0 -11 -17 -18.5t-47 -7.5q-83 0 -134 63t-51 165q0 109 62.5 224t157.5 201t213 141.5t223 55.5z" />
    <glyph glyph-name="W" unicode="W" horiz-adv-x="1439" 
d="M1309 875q0 -18 -8.5 -30t-20.5 -12q-32 0 -82.5 -103t-96 -248t-65.5 -266q81 175 252.5 428t336.5 442t225 189q38 0 85.5 -68t47.5 -109q0 -20 -16 -20q-8 0 -22 10t-27 10q-56 0 -198 -149.5t-284 -339.5t-252 -371t-110 -238q0 -24 -25 -24q-54 0 -139 63.5
t-85 120.5q0 115 50 292t115 315q-168 -208 -312.5 -456.5t-144.5 -333.5q0 -36 -30 -36q-47 0 -109.5 61.5t-62.5 122.5q0 87 116 408.5t208 485.5q-115 -42 -223 -122.5t-180.5 -186.5t-72.5 -204q0 -65 31 -102t82 -37q43 0 43 -21q0 -11 -17 -18.5t-47 -7.5
q-83 0 -134 63t-51 165q0 109 62.5 224t157.5 201t213 141.5t223 55.5q56 0 119 -45t63 -82q0 -11 -5.5 -19.5t-11.5 -8.5q-28 0 -142.5 -250.5t-188.5 -476.5q79 156 198 330t233 296.5t167 122.5q40 0 87.5 -58.5t47.5 -103.5z" />
    <glyph glyph-name="X" unicode="X" horiz-adv-x="1162" 
d="M1425 -125q11 0 18.5 -17t7.5 -47q0 -69 -47 -112.5t-136 -43.5q-176 0 -312.5 176.5t-212.5 494.5q-232 -280 -232 -356q0 -30 -31 -30q-25 0 -40.5 21t-15.5 51q0 128 285 488q-44 266 -44 522q-116 -40 -227 -121t-185 -188.5t-74 -206.5q0 -65 31 -102t82 -37
q43 0 43 -21q0 -11 -17 -18.5t-47 -7.5q-83 0 -134 63t-51 165q0 109 62.5 224t157.5 201t213 141.5t223 55.5q61 0 112 -55.5t51 -99.5q0 -121 7 -273q195 220 367.5 376.5t226.5 156.5q38 0 85.5 -68t47.5 -109q0 -20 -16 -20q-9 0 -22.5 10t-25.5 10q-61 0 -249 -166.5
t-399 -395.5q38 -381 132.5 -599t226.5 -218q52 0 85 33t33 80q0 43 21 43z" />
    <glyph glyph-name="Y" unicode="Y" horiz-adv-x="1273" 
d="M1037 670q-96 -178 -206 -288t-219 -110q-82 0 -133 61.5t-51 161.5q0 115 37 262t87 247q-151 -71 -262 -213.5t-111 -278.5q0 -69 31 -107t82 -38q43 0 43 -21q0 -11 -17 -18.5t-47 -7.5q-83 0 -134 64.5t-51 175.5q0 108 51.5 219.5t132.5 197t187 139.5t209 54
q56 0 117.5 -44t61.5 -84q0 -13 -7.5 -24t-15.5 -11q-23 0 -73 -108t-91.5 -245.5t-41.5 -209.5q0 -85 55 -85q53 0 136 95t158 227.5t129.5 285.5t54.5 257q0 32 27 32q44 0 123 -67t79 -101q0 -75 -70.5 -290t-173.5 -468q34 0 53 -8.5t19 -19.5t-19.5 -19.5t-56.5 -8.5
q-12 0 -19 -1q-164 -394 -275 -569q-37 -58 -101 -93.5t-132 -35.5q-93 0 -152 67t-59 175q0 167 139 300t360 185q79 184 146 368zM531 -321q43 0 133.5 156t197.5 400q-180 -54 -292.5 -165t-112.5 -243q0 -64 24.5 -106t49.5 -42z" />
    <glyph glyph-name="Z" unicode="Z" horiz-adv-x="970" 
d="M574 240q-132 -37 -236.5 -100.5t-169 -151.5t-64.5 -184q0 -55 19.5 -90t50.5 -35q36 0 89 53t108.5 137.5t107.5 180.5t95 190zM847 280q-49 -138 -140.5 -308t-177.5 -270q-49 -57 -125.5 -92t-149.5 -35q-99 0 -158.5 64.5t-59.5 167.5q0 114 77.5 217t204.5 174.5
t284 107.5q53 127 53 175q0 18 -16 18q-34 0 -113.5 -37.5t-113.5 -69.5q-14 -13 -29 -13q-34 0 -96 19.5t-62 34.5q0 6 25 28q111 95 302.5 302.5t262.5 324.5q-178 -18 -331 -71t-244.5 -128.5t-91.5 -154.5q0 -48 31.5 -81t80.5 -33q43 0 43 -21q0 -10 -16.5 -18
t-46.5 -8q-81 0 -133 57.5t-52 137.5q0 117 118 220.5t315.5 165.5t419.5 62q67 0 128.5 -45t61.5 -84q0 -52 -133.5 -190.5t-364.5 -325.5q131 0 205 -45t74 -112q0 -27 -14 -77q33 0 52.5 -8.5t19.5 -18.5q0 -12 -26.5 -21t-63.5 -9z" />
    <glyph glyph-name="bracketleft" unicode="[" horiz-adv-x="604" 
d="M337 -262q-32 16 -123 16q-24 0 -61.5 -8.5t-44.5 -8.5q-24 0 -36.5 30.5t-12.5 82.5q0 112 94.5 469.5t201 669t137.5 311.5q17 0 50.5 -8.5t55.5 -8.5q91 0 123 16q14 6 21 6q14 0 32.5 -36.5t18.5 -52.5q0 -33 -137 -33q-45 0 -78 5q-62 -145 -208.5 -644t-180.5 -696
q31 6 83 6q137 0 137 -34q0 -15 -18.5 -51.5t-32.5 -36.5q-10 0 -21 6z" />
    <glyph glyph-name="backslash" unicode="\" horiz-adv-x="624" 
d="M597 -342q-26 0 -26 33q0 59 -99.5 293t-228 489t-259.5 458t-186 203q-30 0 -30 49q0 44 26 86t66 42q55 0 195.5 -203.5t281.5 -463t251 -511t110 -339.5q0 -36 -36 -86t-65 -50z" />
    <glyph glyph-name="bracketright" unicode="]" horiz-adv-x="604" 
d="M208 1217q0 15 18.5 51.5t32.5 36.5q11 0 21 -6q32 -16 123 -16q24 0 61.5 8.5t44.5 8.5q24 0 36.5 -30.5t12.5 -82.5q0 -112 -94.5 -469.5t-201 -669t-137.5 -311.5q-17 0 -51 8.5t-56 8.5q-91 0 -123 -16q-14 -6 -21 -6q-14 0 -32.5 36.5t-18.5 52.5q0 33 137 33
q44 0 79 -5q62 144 208.5 643.5t180.5 696.5q-31 -6 -83 -6q-137 0 -137 34z" />
    <glyph glyph-name="asciicircum" unicode="^" horiz-adv-x="963" 
d="M324 679q26 15 132 266q27 62 42 97t35 78t33 62.5t21 19.5q22 0 125 -256q101 -250 127 -267q11 -5 11 -23q0 -27 -28.5 -69.5t-47.5 -42.5q-9 0 -20.5 12t-25 37.5t-26 51t-29 66.5t-28 69.5t-28.5 74.5q-22 58 -31 87q-12 -28 -38 -92q-28 -70 -45 -111t-41 -93
t-42 -77t-32 -25q-19 0 -47 42t-28 69q0 18 11 24z" />
    <glyph glyph-name="underscore" unicode="_" horiz-adv-x="1092" 
d="M484 86q391 0 404 -28q1 -2 1 -5q0 -22 -22 -68.5t-35 -46.5q-5 0 -9 2q-38 15 -346 15q-407 0 -461 -26q-5 -2 -9 -2q-7 0 -7 10q0 23 27 68t51 56q55 25 406 25z" />
    <glyph glyph-name="grave" unicode="`" horiz-adv-x="598" 
d="M470 893q0 25 -83 118.5t-83 113.5q0 21 42 58.5t65 37.5q13 0 13 -15q0 -21 55 -121.5t55 -146.5q0 -19 -23 -36t-35 -17q-6 0 -6 8z" />
    <glyph glyph-name="a" unicode="a" horiz-adv-x="744" 
d="M547 0q-77 0 -140.5 35t-63.5 74q0 48 14 115q-56 -106 -104.5 -165t-92.5 -59t-119 46.5t-75 77.5q0 128 50 257.5t125 210t145 80.5q46 0 118 -25.5t81 -56.5q54 82 83 82q27 0 96.5 -39t69.5 -65q0 -8 -6.5 -15t-15.5 -7q-29 0 -71.5 -85.5t-72.5 -190t-30 -160.5
q0 -18 3 -18q9 0 145.5 193.5t161.5 234.5q22 35 48 35q10 0 17.5 -6t6.5 -13q-1 -21 -86.5 -154t-177.5 -257.5t-109 -124.5zM476 576q-77 0 -151.5 -72t-122 -192.5t-47.5 -250.5q53 20 200 302q65 126 121 213z" />
    <glyph glyph-name="b" unicode="b" horiz-adv-x="706" 
d="M508 955q0 -14 -9 -14q-26 0 -148 -250.5t-201 -456.5q58 105 118 198t127 166.5t108 73.5q38 0 100 -47.5t62 -77.5q0 -123 -53 -251.5t-136 -212t-163 -83.5q-40 0 -92 19t-80 41q-11 -34 -22.5 -47t-29.5 -13q-43 0 -98.5 45t-55.5 82q0 46 82 269.5t178.5 432
t129.5 208.5q39 0 111 -29t72 -53zM154 95q77 0 154.5 76.5t127 197t49.5 239.5q-43 -30 -167.5 -224t-163.5 -289z" />
    <glyph glyph-name="c" unicode="c" horiz-adv-x="529" 
d="M159 155q0 -40 11.5 -55t35.5 -15q42 0 99.5 41.5t109.5 99t102.5 124t80.5 111.5t42 66q16 28 32 28q11 0 20 -11t9 -26q0 -9 -7 -25q-3 -8 -32 -54.5t-85 -122t-119 -145t-140.5 -120.5t-143.5 -51q-80 0 -140.5 64.5t-60.5 164.5q0 94 53 198t136.5 174.5t162.5 70.5
q70 0 130 -50t60 -108q0 -20 -7.5 -30.5t-17.5 -10.5q-14 0 -14 15q0 14 -14.5 22.5t-34.5 8.5q-54 0 -117 -56t-107 -142.5t-44 -165.5z" />
    <glyph glyph-name="d" unicode="d" horiz-adv-x="725" 
d="M902 532q-3 -35 -175.5 -283.5t-198.5 -248.5q-77 0 -140.5 35t-63.5 74q0 31 6 68q-100 -177 -170 -177q-44 0 -119 46.5t-75 77.5q0 129 50.5 258t128.5 209.5t155 80.5q35 0 83.5 -17t77.5 -38q43 105 68 162.5t57.5 126.5t56 100t40.5 31q26 0 104 -37t78 -62
q0 -13 -12 -13q-33 0 -115 -177.5t-150 -378t-68 -263.5q0 -14 3 -14q9 0 143.5 189t163.5 235q20 35 48 35q10 0 17 -5.5t7 -13.5zM155 60q19 4 41.5 26t47.5 62.5t47.5 83t51.5 107t49.5 113.5t51.5 123q-70 -6 -137 -79.5t-109.5 -191.5t-42.5 -244z" />
    <glyph glyph-name="e" unicode="e" horiz-adv-x="552" 
d="M525 515q0 -65 -42 -126t-95 -94.5t-94 -33.5q-29 0 -64 16t-35 26q0 7 20 7q34 0 79 25.5t84.5 75t47.5 107.5q-53 -6 -115.5 -61t-106 -134t-43.5 -145q0 -43 19.5 -68t53.5 -25q52 0 124.5 59.5t136 141t108 146t59.5 93.5q16 30 33 30q12 0 20.5 -11t8.5 -26
q0 -13 -6 -25q-8 -16 -35.5 -60.5t-83.5 -122t-116.5 -144t-137 -116.5t-141.5 -50q-86 0 -157 73t-71 174q0 88 55.5 188.5t140.5 168.5t162 68q68 0 129.5 -49t61.5 -108z" />
    <glyph glyph-name="f" unicode="f" horiz-adv-x="479" 
d="M382 1037q24 0 99.5 -36.5t75.5 -61.5q0 -8 -8 -16t-15 -8q-30 0 -102 -129.5t-159 -326.5q91 10 154 40q24 12 42 12q12 0 18 -6t6 -14q0 -25 -54 -52t-124 -42q30 -47 42.5 -152t12.5 -182q0 -179 -92.5 -303.5t-224.5 -124.5q-75 0 -133.5 67.5t-58.5 153.5
q0 88 68.5 288t156.5 396t175 346.5t121 150.5zM41 -212q0 -57 55 -57q76 0 137 105t61 271q0 151 -51 263q-3 6 -4 10q-84 -198 -141 -366t-57 -226z" />
    <glyph glyph-name="g" unicode="g" horiz-adv-x="711" 
d="M300 672q49 0 114.5 -29.5t70.5 -52.5q54 82 83 82q26 0 87 -37.5t61 -61.5q0 -8 -5.5 -16t-11.5 -8q-28 0 -111 -294q-87 -309 -138 -405q-53 -101 -147 -158t-183 -57q-77 0 -121 44t-44 113q0 30 7.5 46t18.5 16q21 0 21 -42q0 -46 31 -79.5t75 -33.5q60 0 116.5 65.5
t90.5 166t34 199.5q0 38 4 70q-120 -200 -195 -200q-43 0 -117.5 46.5t-74.5 77.5q0 129 50.5 258t128.5 209.5t155 80.5zM458 576q-72 0 -142.5 -72t-115.5 -193t-45 -250q31 11 77.5 86t121.5 215q80 150 123 216q-10 -2 -19 -2z" />
    <glyph glyph-name="h" unicode="h" horiz-adv-x="691" 
d="M669 564q0 -7 -4 -13t-9 -6q-19 0 -60.5 -85t-76 -191.5t-34.5 -160.5q0 -16 3 -16q9 0 145.5 193.5t161.5 234.5q22 35 48 35q10 0 17.5 -6t6.5 -13q-1 -21 -86.5 -154t-177.5 -257.5t-108 -124.5q-77 0 -140.5 35t-63.5 74q0 70 32 184t73 204q-102 -127 -187.5 -275.5
t-85.5 -200.5q0 -21 -18 -21q-36 0 -100.5 39.5t-64.5 81.5q0 50 77.5 274t173 433t134.5 209q46 0 110 -31.5t64 -55.5q0 -13 -11 -13q-31 0 -133.5 -214t-182.5 -431q82 141 181.5 260.5t141.5 119.5q30 0 102 -39.5t72 -68.5z" />
    <glyph glyph-name="i" unicode="i" horiz-adv-x="351" 
d="M153 0q-79 0 -146.5 37t-67.5 83q0 63 90 307.5t122 244.5q44 0 104.5 -38t60.5 -67q0 -15 -10 -15q-26 0 -93.5 -202t-67.5 -247q0 -11 3 -11q9 0 146 189t162 230q20 34 47 34q10 0 17.5 -6t6.5 -13q-1 -21 -87 -151.5t-178 -252.5t-109 -122zM331 697q-60 0 -99 32
t-39 81q0 63 52 145t93 82q30 0 87.5 -38t57.5 -60q0 -5 -4.5 -10t-10.5 -5q-26 0 -63.5 -78.5t-37.5 -128.5q0 -7 -1.5 -10.5t-10 -6.5t-24.5 -3z" />
    <glyph glyph-name="j" unicode="j" horiz-adv-x="300" 
d="M-49 110q13 105 52.5 238.5t85.5 228.5t74 95q22 0 82 -42t60 -62q0 -6 -4.5 -12t-10.5 -6q-20 0 -48 -80.5t-69 -226.5q-80 -297 -131 -394q-52 -99 -146.5 -156.5t-182.5 -57.5q-77 0 -121 44t-44 113q0 30 7.5 46t18.5 16q21 0 21 -42q0 -46 30.5 -79t74.5 -33
q84 0 157 121t94 289zM182 810q0 63 52 145t93 82q30 0 87.5 -38t57.5 -60q0 -5 -4.5 -10t-10.5 -5q-26 0 -63.5 -78.5t-37.5 -128.5q0 -7 -1.5 -10.5t-10 -6.5t-24.5 -3q-60 0 -99 32t-39 81z" />
    <glyph glyph-name="k" unicode="k" horiz-adv-x="685" 
d="M483 92q9 0 143.5 189t163.5 235q20 35 48 35q10 0 17 -5.5t7 -13.5q-3 -35 -175.5 -283.5t-198.5 -248.5q-93 0 -174 73t-97 168q-96 -163 -96 -220q0 -21 -18 -21q-35 0 -99.5 40t-64.5 81q0 49 81.5 273.5t179 433.5t132.5 209q44 0 109 -30.5t65 -50.5q0 -5 -4.5 -10
t-9.5 -5q-30 0 -133 -212.5t-185 -428.5q84 141 183 256.5t145 115.5q30 0 95.5 -41t65.5 -62q0 -47 -41.5 -126t-106.5 -143.5t-119 -64.5q0 -52 26 -97.5t61 -45.5zM263 314q11 -7 21 -7q29 0 71 49.5t72 111t30 94.5q0 8 -1 8q-97 -105 -193 -256z" />
    <glyph glyph-name="l" unicode="l" horiz-adv-x="344" 
d="M508 937q0 -6 -5 -12t-11 -6q-33 0 -120 -176.5t-160.5 -376t-73.5 -260.5q0 -14 3 -14q9 0 146 189t162 229q20 34 47 34q10 0 17.5 -6t6.5 -13q-1 -21 -86.5 -151t-177.5 -252t-109 -122q-79 0 -141.5 38t-62.5 88q0 59 78 281.5t173 426t134 203.5q24 0 102 -37.5
t78 -62.5z" />
    <glyph glyph-name="m" unicode="m" horiz-adv-x="1073" 
d="M515 185q74 153 200.5 320t176.5 167q30 0 102.5 -39.5t72.5 -68.5q0 -7 -4.5 -12.5t-10.5 -5.5q-23 0 -68 -84.5t-81 -191.5t-36 -162q0 -16 3 -16q9 0 147 189.5t161 228.5q21 33 47 33q10 0 17.5 -6t6.5 -13q-1 -21 -86.5 -151t-177.5 -251.5t-110 -121.5
q-76 0 -140 35t-64 74q0 67 35 177t80 203q-99 -125 -180.5 -267t-81.5 -190q0 -13 -6 -22.5t-14 -9.5q-77 0 -140.5 35t-63.5 74q0 67 34.5 177.5t79.5 202.5q-103 -128 -188 -272.5t-85 -195.5q0 -21 -18 -21q-38 0 -109.5 41t-71.5 86q0 63 93 304t128 241
q40 0 109.5 -29t69.5 -55q0 -12 -9 -12q-17 0 -61 -89.5t-83 -199.5q84 141 186 263t144 122q31 0 103 -39.5t72 -68.5q0 -7 -4 -12.5t-10 -5.5q-28 0 -82 -120.5t-83 -240.5z" />
    <glyph glyph-name="n" unicode="n" horiz-adv-x="706" 
d="M690 568q0 -8 -6.5 -15.5t-13.5 -7.5q-23 0 -64.5 -85t-73 -191t-31.5 -160q0 -17 3 -17q9 0 145.5 193.5t161.5 235.5q22 35 48 35q10 0 17.5 -6t6.5 -13q-2 -34 -174 -285.5t-196 -251.5q-77 0 -144.5 35t-67.5 74q0 69 33.5 181t76.5 203q-101 -127 -185.5 -274
t-84.5 -198q0 -21 -18 -21q-38 0 -109.5 41.5t-71.5 87.5q0 38 41.5 169.5t96 252.5t84.5 121q39 0 107 -29.5t68 -55.5q0 -11 -8 -11q-22 0 -65.5 -90t-82.5 -206q82 143 184.5 267.5t145.5 124.5q29 0 103 -39t74 -65z" />
    <glyph glyph-name="o" unicode="o" 
d="M177 160q0 -75 42 -75q55 0 121 93.5t93 201.5q-47 15 -78.5 47.5t-36.5 72.5q-58 -61 -99.5 -159.5t-41.5 -180.5zM444 467q0 68 -27 68q-10 0 -17 -9.5t-7 -24.5q0 -41 50 -62q1 10 1 28zM498 369q-29 -143 -126 -256t-198 -113q-78 0 -134.5 67.5t-56.5 162.5
q0 90 52 197.5t128 181t139 73.5q79 0 155 -42.5t76 -87.5q0 -14 -8 -23t-16 -9q-4 0 -8 2q6 -27 6 -64q0 -20 -1 -30q60 0 112 31.5t75 82.5q14 31 33 31q23 0 23 -34q0 -61 -81 -115.5t-170 -54.5z" />
    <glyph glyph-name="p" unicode="p" horiz-adv-x="711" 
d="M504 671q38 0 100 -47t62 -77q0 -129 -50.5 -257.5t-128.5 -209t-155 -80.5q-45 0 -104.5 24.5t-76.5 47.5q-58 -119 -96.5 -227.5t-38.5 -148.5q0 -21 11 -21q10 0 10 -13q0 -23 -29 -23q-45 0 -114 47t-69 81q0 35 70 257.5t150 434.5t103 212q48 0 117 -31.5t69 -53.5
q0 -10 -8 -10q-14 0 -55.5 -90.5t-79.5 -202.5q54 100 106.5 181.5t110.5 144t96 62.5zM162 95q81 4 156 77t121.5 191.5t46.5 245.5q-37 -27 -151.5 -214.5t-172.5 -299.5z" />
    <glyph glyph-name="q" unicode="q" horiz-adv-x="695" 
d="M517 -147q20 40 46 40q11 0 19 -7.5t8 -17.5q0 -35 -68.5 -134t-94.5 -99q-77 0 -140.5 35t-63.5 74q0 95 108 434q-101 -178 -172 -178q-44 0 -119 46.5t-75 77.5q0 129 50.5 257.5t128.5 209t155 80.5q51 0 116.5 -30t68.5 -53q55 83 83 83q27 0 85 -38.5t58 -67.5
q0 -16 -10 -16q-22 0 -91.5 -179.5t-129.5 -382.5t-60 -263q0 -10 2 -10q7 0 44.5 54.5t51.5 84.5zM477 578q-8 -2 -17 -2q-73 0 -144 -72t-116.5 -192.5t-45.5 -250.5q17 6 39 31.5t52 76t51 87t59 108.5q79 146 122 214z" />
    <glyph glyph-name="r" unicode="r" horiz-adv-x="673" 
d="M587 353q10 0 94.5 80t107.5 108q24 28 44 28q8 0 15.5 -6t8.5 -12q1 -28 -117.5 -148t-147.5 -120q-38 0 -87 18.5t-83 44.5t-34 46q0 45 17 91q-100 -126 -181.5 -269t-81.5 -193q0 -21 -18 -21q-38 0 -109.5 41.5t-71.5 86.5q0 62 92 302.5t127 240.5q40 0 109 -29.5
t69 -55.5q0 -11 -7 -11q-15 0 -56 -84t-81 -190q84 140 180 255t137 115q31 0 103.5 -40t72.5 -70q0 -9 -6.5 -16.5t-14.5 -7.5q-25 0 -54.5 -64t-29.5 -109q0 -11 3 -11z" />
    <glyph glyph-name="s" unicode="s" horiz-adv-x="508" 
d="M281 229q70 -118 70 -165t-50 -99t-112.5 -83.5t-104.5 -31.5q-55 0 -115.5 49t-60.5 113q0 107 188 192q13 6 45 22q-50 56 -81 113.5t-31 94.5q0 50 53 118t125.5 117.5t124.5 49.5q56 0 118.5 -49t62.5 -110q0 -41 -24 -41q-15 0 -15 17q0 12 -13 21.5t-29 9.5
q-31 0 -84 -36.5t-94 -85t-41 -78.5q0 -25 35 -84q106 59 221 131t163 107q33 26 49 26q10 0 17.5 -7.5t7.5 -18.5q0 -22 -23 -39q-44 -32 -166.5 -110t-235.5 -143zM-5 -19q48 0 121.5 49.5t73.5 94.5q0 19 -14 45q-19 -10 -53 -27q-84 -41 -123 -76.5t-39 -59.5
q0 -26 34 -26z" />
    <glyph glyph-name="t" unicode="t" horiz-adv-x="345" 
d="M338 672h51q29 0 45 -10t16 -24t-16 -24t-45 -10h-81q-68 -159 -118.5 -305t-50.5 -193q0 -14 3 -14q9 0 146 190.5t162 231.5q20 34 47 34q10 0 17.5 -6t6.5 -13q-1 -21 -86.5 -152t-178 -254t-109.5 -123q-79 0 -141.5 38t-62.5 88q0 42 44 180t106 298h-25
q-29 0 -45.5 10t-16.5 24t16.5 24t45.5 10h53q150 365 205 365q24 0 99 -37t75 -60q0 -7 -6 -14t-12 -7q-34 0 -144 -247z" />
    <glyph glyph-name="u" unicode="u" horiz-adv-x="702" 
d="M507 0q-77 0 -140.5 35t-63.5 74q0 35 7 73q-102 -182 -173 -182q-46 0 -120 49t-74 89q0 33 44.5 162.5t102 250.5t86.5 121q47 0 108.5 -29.5t61.5 -52.5q0 -11 -9 -11q-20 0 -70 -104t-92.5 -231t-42.5 -183q16 6 38 31.5t52 75t51.5 87.5t58.5 108q40 74 63.5 115.5
t55.5 93.5t55 75.5t39 23.5q27 0 85 -39t58 -68q0 -7 -4.5 -13t-9.5 -6q-22 0 -65 -86t-77.5 -192t-34.5 -159q0 -16 3 -16q9 0 145 194.5t162 236.5q22 35 48 35q10 0 17 -5.5t7 -13.5q-2 -21 -87.5 -154.5t-177 -259t-107.5 -125.5z" />
    <glyph glyph-name="v" unicode="v" horiz-adv-x="493" 
d="M163 149q40 107 134.5 259t192 265t141.5 113q24 0 53.5 -29.5t29.5 -54.5q0 -10 -10 -10q-6 0 -17 3.5t-16 3.5q-42 0 -152.5 -142t-204 -307.5t-93.5 -226.5q0 -13 -5.5 -18t-20.5 -5q-61 0 -147 52t-86 94q0 53 35 181.5t77 236t58 107.5q45 0 112.5 -31t67.5 -54
q0 -11 -9 -11q-24 0 -70 -147.5t-70 -278.5z" />
    <glyph glyph-name="w" unicode="w" horiz-adv-x="819" 
d="M608 525q0 -12 -9 -12q-18 0 -53 -126t-53 -241q37 107 127 259.5t184.5 267t137.5 114.5q22 0 54 -26.5t45 -48.5q5 -8 5 -12q0 -6 -9 -6q-6 0 -18 3.5t-18 3.5q-49 0 -159 -142.5t-199 -308t-89 -226.5q0 -14 -6 -19t-22 -5q-40 0 -95.5 25.5t-95.5 60.5t-40 61
q0 71 44 210q-60 -100 -101.5 -196t-41.5 -147q0 -5 -1 -7.5t-5.5 -4.5t-13.5 -2q-59 0 -135.5 51.5t-76.5 94.5q0 53 34 181.5t74.5 236t56.5 107.5q46 0 112.5 -31t66.5 -54q0 -11 -9 -11q-25 0 -66.5 -137t-66.5 -274q47 129 153 287.5t135 158.5q44 0 99 -31t55 -54z
" />
    <glyph glyph-name="x" unicode="x" horiz-adv-x="644" 
d="M343 351q24 -105 52 -182t46 -77q9 0 146 192t161 232q22 35 48 35q10 0 17.5 -6t6.5 -13q-1 -21 -87 -153t-178 -255.5t-109 -123.5q-90 0 -176 46.5t-110 107.5q-2 3 -4 12q-178 -192 -178 -254q0 -24 -28 -24q-22 0 -35.5 12.5t-13.5 33.5q0 46 64 135t168 197
q-17 91 -33.5 209.5t-16.5 142.5q0 28 27 40.5t64 12.5q48 0 103.5 -17t55.5 -33q0 -5 -5.5 -10t-9.5 -5q-10 0 -10 -34q0 -47 14 -123q110 98 197.5 160t119.5 62q22 0 46 -25t24 -50q0 -8 -10 -8q-6 0 -17.5 3.5t-16.5 3.5q-28 0 -119.5 -70t-202.5 -174z" />
    <glyph glyph-name="y" unicode="y" horiz-adv-x="691" 
d="M682 555q-30 0 -119 -315q-84 -295 -133 -390q-53 -100 -148 -157.5t-183 -57.5q-77 0 -121.5 44t-44.5 113q0 30 8 46.5t19 16.5q8 0 14.5 -11.5t6.5 -31.5q0 -45 30.5 -79t74.5 -34q60 0 116.5 65t91 167.5t34.5 208.5q0 27 3 54q-120 -194 -195 -194q-45 0 -118 49
t-73 89q0 56 90 295t125 239q46 0 113.5 -31t67.5 -54q0 -8 -7 -8q-19 0 -68 -104.5t-91 -231.5t-42 -183q31 11 78 86.5t123 217.5q38 72 62 115t55.5 93.5t55 75t40.5 24.5q26 0 86 -38t60 -63q0 -16 -11 -16z" />
    <glyph glyph-name="z" unicode="z" horiz-adv-x="556" 
d="M459 14q0 -120 -106 -198t-269 -78q-79 0 -126 42.5t-47 113.5q0 30 8 46.5t19 16.5q21 0 21 -44q0 -50 32.5 -81t84.5 -31q79 0 127 44t48 115q0 53 -62 85t-165 32q0 73 85.5 197.5t190.5 241.5q-47 -15 -104 -15q-50 0 -90 22t-40 51q0 16 23 16q95 0 167 30
q126 52 171 52q40 0 102 -39t62 -65q0 -7 -5.5 -13.5t-10.5 -6.5q-24 0 -142 -141t-168 -229q82 0 138 -51t56 -113z" />
    <glyph glyph-name="braceleft" unicode="{" horiz-adv-x="606" 
d="M316 360q-44 -133 -70.5 -254t-26.5 -187q0 -74 30.5 -134.5t76.5 -60.5q16 0 24.5 -7.5t8.5 -17.5q0 -16 -18 -27.5t-56 -11.5q-99 0 -158.5 81.5t-59.5 202.5q0 74 22 187t59 227q4 12 4 27q0 46 -32.5 91t-67.5 45q-22 0 -22 21q0 28 17 28q60 0 121.5 23t74.5 56
q260 656 497 656q35 0 52 -11.5t17 -27.5q0 -25 -34 -25t-72.5 -35.5t-72.5 -89t-74.5 -140t-72 -164t-72.5 -186.5q-18 -48 -74.5 -77.5t-131.5 -29.5q54 -25 84.5 -61t30.5 -73q0 -14 -4 -25z" />
    <glyph glyph-name="bar" unicode="|" horiz-adv-x="604" 
d="M544 1275q25 0 68 -47t43 -81q0 -16 -7 -21q-22 -18 -118 -315t-184 -621t-88 -402q0 -42 -22 -42t-61.5 34.5t-39.5 67.5q0 161 160.5 714t224.5 688q12 25 24 25z" />
    <glyph glyph-name="braceright" unicode="}" horiz-adv-x="713" 
d="M459 492q-54 25 -84.5 61t-30.5 73q0 14 4 25q79 240 79 384q0 81 -30.5 143.5t-76.5 62.5q-16 0 -24.5 7.5t-8.5 17.5q0 16 18 27.5t56 11.5q100 0 159 -85t59 -220q0 -150 -63 -347q-4 -12 -4 -27q0 -46 32.5 -91t67.5 -45q22 0 22 -21q0 -28 -17 -28q-60 0 -121.5 -23
t-74.5 -56q-278 -702 -517 -702q-33 0 -49.5 12t-16.5 27q0 25 32 25q35 0 75.5 40.5t77 100t80 154t76 175.5t74.5 191q18 48 74.5 77.5t131.5 29.5z" />
    <glyph glyph-name="asciitilde" unicode="~" horiz-adv-x="1235" 
d="M275 247q0 -17 17.5 -30t38.5 -20t38.5 -17t17.5 -21q0 -18 -38 -18q-58 0 -106 41.5t-48 90.5q0 55 64 90t162 35q91 0 259 -47.5t246 -47.5q75 0 75 38q0 17 -18.5 31.5t-40.5 22.5t-40.5 18t-18.5 19q0 8 12.5 13.5t30.5 5.5q53 0 101.5 -46.5t48.5 -95.5
q0 -51 -59.5 -82t-153.5 -31q-92 0 -262 46.5t-249 46.5q-35 0 -56 -11.5t-21 -30.5z" />
    <glyph glyph-name="exclamdown" unicode="&#xa1;" horiz-adv-x="605" 
d="M12 -179q59 59 207 373.5t148 379.5q0 22 22 22q23 0 48 -20t25 -45q0 -74 -63 -278t-137.5 -378.5t-103.5 -174.5q-57 0 -107.5 31t-50.5 65q0 13 12 25zM374 736q0 9 10 19q15 13 28.5 38.5t13.5 39.5q0 26 41 26q37 0 62 -25.5t25 -63.5q0 -35 -20 -63.5t-45 -28.5
q-41 0 -77.5 18t-37.5 40z" />
    <glyph glyph-name="cent" unicode="&#xa2;" horiz-adv-x="534" 
d="M517 473q-14 0 -14 15q0 14 -14 22.5t-34 8.5q-102 -247 -159 -425q36 12 63.5 37t27.5 48q0 21 19 21q10 0 18 -7t8 -18q0 -62 -45.5 -109.5t-117.5 -60.5q-26 -98 -26 -141q0 -47 -23 -47q-28 0 -28 68q0 42 13 115q-92 5 -148.5 67.5t-56.5 158.5q0 95 53 200
t136.5 175.5t162.5 70.5q47 0 88 -23q69 135 94 135q7 0 12 -11t5 -27q0 -35 -34 -89q-6 -9 -23 -46q48 -48 48 -97q0 -20 -7.5 -30.5t-17.5 -10.5zM363 483q-70 -50 -123.5 -141.5t-53.5 -172.5q0 -65 39 -80q48 186 138 394z" />
    <glyph glyph-name="sterling" unicode="&#xa3;" horiz-adv-x="1039" 
d="M389 111q-77 -152 -231 -152q-68 0 -108 29.5t-40 77.5q0 55 54 93.5t148 54.5q35 89 115 266q-118 -7 -144 -19q-4 -2 -6 -2q-6 0 -6 10q0 19 23.5 45.5t46.5 36.5q30 13 125 18q45 101 86 183t93 168t100 144t103 95.5t106 37.5q73 0 124.5 -65.5t51.5 -163.5
q0 -74 -29 -150t-83 -129t-116 -53q-38 0 -74.5 16t-36.5 39q0 13 19 13q49 0 97.5 58t78 142.5t29.5 161.5q-32 -3 -72 -44.5t-83.5 -115.5t-83 -153t-85.5 -181q132 -5 141 -24q1 -2 1 -5q0 -18 -19.5 -45.5t-32.5 -27.5q-4 0 -8 2q-24 9 -120 13q-58 -130 -115 -267
q188 -21 318.5 -103.5t130.5 -175.5q0 -31 -14 -74t-34.5 -75t-38.5 -31q-16 0 -16 33q0 101 -113.5 193.5t-281.5 125.5zM69 71q0 -10 8 -17t21 -7q22 0 42 22t27 50q-98 -13 -98 -48z" />
    <glyph glyph-name="yen" unicode="&#xa5;" horiz-adv-x="1051" 
d="M644 469q-25 -50 -52 -119q169 -6 169 -25q0 -9 -11.5 -35t-20.5 -26q-5 0 -32 3q-64 8 -131 8q-50 -158 -50 -296q0 -26 -23 -26q-139 0 -139 89q0 104 40 232q-150 0 -176 -14q-1 -1 -4 -1q-4 0 -4 6q0 13 16 39.5t29 32.5q34 14 167 14q22 59 51 117q-150 0 -176 -14
q-1 -1 -4 -1q-4 0 -4 6q0 13 16 39.5t29 32.5q32 14 179 14q12 20 17 30q-32 161 -107.5 310.5t-126.5 149.5q-18 0 -18 11q0 4 5.5 9t16.5 10.5t26.5 9.5t37 6.5t45.5 2.5q80 0 138.5 -93t83.5 -257q106 154 211 258.5t150 104.5q34 0 74.5 -56t40.5 -90q0 -17 -13 -17
q-7 0 -19 8.5t-24 8.5q-57 0 -166 -118.5t-203 -288.5q158 -8 158 -25q0 -9 -11.5 -35t-20.5 -26q-5 0 -32 3q-64 8 -132 8z" />
    <glyph glyph-name="section" unicode="&#xa7;" horiz-adv-x="923" 
d="M384 827q0 82 66 182.5t164.5 170.5t182.5 70q79 0 135.5 -59.5t56.5 -141.5q0 -57 -26.5 -127.5t-69.5 -122t-85 -51.5q-30 0 -87 18.5t-57 31.5q0 7 16 7q42 0 93 57t85.5 137.5t34.5 144.5q-59 0 -123.5 -32.5t-114.5 -81.5t-82.5 -111t-32.5 -117q0 -44 21.5 -78
t53.5 -53.5t69.5 -41t69.5 -40.5t53.5 -51t21.5 -73q0 -98 -102 -184.5t-231 -104.5q33 -17 52 -29.5t41.5 -32t33 -44.5t10.5 -55q0 -71 -57 -140t-146 -111t-180 -42q-90 0 -142.5 42t-52.5 110q0 49 23.5 106t43.5 57q5 0 10 -4t5 -11q0 -5 -5 -21q-15 -42 -15 -75
q0 -80 70 -80q66 0 142.5 33.5t128.5 82.5t52 91q0 31 -33 57.5t-80 49.5t-94.5 49.5t-80.5 69.5t-33 98q0 83 66.5 183.5t161.5 168.5q-33 45 -33 98zM345 352q0 -27 8 -51q15 -5 32 -5q64 0 140 33.5t128 82.5t52 91q0 17 -8 31.5t-29.5 30t-34.5 23t-49.5 26t-47.5 24.5
q-81 -52 -136 -132t-55 -154z" />
    <glyph glyph-name="dieresis" unicode="&#xa8;" horiz-adv-x="508" 
d="M380 1009q-30 0 -49.5 20t-19.5 51q0 28 16 50.5t36 22.5q33 0 62 -14.5t30 -31.5q0 -7 -8 -15q-12 -11 -23 -31.5t-11 -31.5q0 -20 -33 -20zM167 1205q33 0 62 -14.5t30 -31.5q0 -7 -8 -15q-12 -11 -23 -31.5t-11 -31.5q0 -20 -33 -20q-30 0 -49.5 20t-19.5 51
q0 28 16 50.5t36 22.5z" />
    <glyph glyph-name="copyright" unicode="&#xa9;" horiz-adv-x="1491" 
d="M238 255q0 127 57 251.5t149.5 217.5t216 151t248.5 58q187 0 303.5 -121.5t116.5 -315.5q0 -173 -92 -330t-244 -252t-319 -95q-191 0 -313.5 121.5t-122.5 314.5zM1217 546q0 144 -76 211.5t-195 67.5q-108 0 -217 -54t-191 -138.5t-133.5 -194.5t-51.5 -216
q0 -136 80.5 -214t210.5 -78q107 0 212.5 54t184 140t127.5 198.5t49 223.5zM925 291q28 0 28 -23q0 -39 -83.5 -112.5t-130.5 -73.5q-72 0 -123 71t-51 155q0 76 44.5 158.5t114.5 138t137 55.5q54 0 103 -32.5t49 -80.5q0 -17 -6.5 -26t-15.5 -9q-12 0 -12 13
q0 12 -11.5 19t-28.5 7q-47 0 -100.5 -53t-89 -132t-35.5 -149q0 -63 31 -63q36 0 133 104q31 33 47 33z" />
    <glyph glyph-name="ordfeminine" unicode="&#xaa;" horiz-adv-x="693" 
d="M824 1021q-33 -35 -77.5 -145t-44.5 -176q0 -14 15 -31q11 -13 11 -22q0 -17 -19 -17q-62 0 -113 29.5t-51 64.5q0 15 3 30q-92 -171 -153 -171q-36 0 -95.5 37t-59.5 62q0 103 40 206.5t99.5 168t116.5 64.5q36 0 93.5 -20.5t65.5 -45.5q43 66 66 66q21 0 66.5 -31
t45.5 -52q0 -6 -9 -17zM648 1044q-62 0 -121.5 -57.5t-97.5 -154.5t-38 -201q13 5 30.5 25t41.5 60t40.5 69t46.5 86q68 126 98 173z" />
    <glyph glyph-name="guillemotleft" unicode="&#xab;" horiz-adv-x="1223" 
d="M641 830q9 13 20 13q19 0 58.5 -24t39.5 -41q0 -20 -70.5 -67.5t-234.5 -136.5q-84 -46 -126 -71q35 -20 88 -50q57 -32 89 -50.5t74 -45.5t62 -46t20 -31q0 -18 -39 -42.5t-59 -24.5q-13 0 -20 13q-17 28 -217 143q-198 114 -198 133q0 21 254 164q244 138 259 164z
M1011 830q7 13 19 13q20 0 59 -24t39 -41q0 -13 -26 -35t-78 -54t-94.5 -56t-110.5 -62q-45 -24 -122 -68q35 -20 88 -50q57 -32 89 -50.5t74 -45.5t62 -46t20 -31q0 -18 -38.5 -42.5t-58.5 -24.5q-14 0 -21 13q-16 27 -217 143q-198 114 -198 133q0 25 253 164
q240 130 261 164z" />
    <glyph glyph-name="registered" unicode="&#xae;" horiz-adv-x="1491" 
d="M1329 496q0 -173 -92 -330t-244 -252t-319 -95q-191 0 -313.5 121.5t-122.5 314.5q0 127 57 251.5t149.5 217.5t216 151t248.5 58q187 0 303.5 -121.5t116.5 -315.5zM1232 519q0 139 -87.5 230t-219.5 91t-267.5 -90.5t-222.5 -230.5t-87 -276q0 -138 89.5 -227.5
t225.5 -89.5q102 0 207 54.5t183.5 139t128.5 191.5t50 208zM708 352q-69 -159 -69 -203q0 -15 -11 -15q-16 0 -45.5 19.5t-29.5 38.5q0 36 72 203.5t92 167.5t51.5 -16t31.5 -29q0 -8 -6 -8q-14 0 -70 -123q5 -1 17 -1q66 0 128.5 41.5t62.5 91.5q0 38 -40 64t-102 26
q-83 0 -152.5 -44t-69.5 -95q0 -20 11 -33.5t28 -13.5q14 0 14 -8q0 -9 -22 -9q-33 0 -55 27.5t-22 65.5q0 78 86 146.5t194 68.5q94 0 166.5 -52.5t72.5 -127.5q0 -70 -64.5 -122.5t-158.5 -64.5q7 -98 44.5 -150t95.5 -52q53 0 53 37q0 18 12 18q11 0 11 -19
q0 -29 -31.5 -47t-78.5 -18q-85 0 -141 61t-62 171q-5 0 -13 4z" />
    <glyph glyph-name="degree" unicode="&#xb0;" horiz-adv-x="458" 
d="M365 857q-71 0 -116 45t-45 117q0 96 76.5 173.5t171.5 77.5q70 0 113 -45t43 -117q0 -98 -74 -174.5t-169 -76.5zM302 1026q0 -32 19.5 -51t50.5 -19q53 0 96 46.5t43 102.5q0 35 -18 51t-47 16q-54 0 -99 -46t-45 -100z" />
    <glyph glyph-name="plusminus" unicode="&#xb1;" horiz-adv-x="1248" 
d="M1055 491q-2 0 -6 2.5t-6 3.5q-36 14 -296 14q-71 -293 -71 -329q0 -13 -11 -13q-21 0 -70.5 25.5t-49.5 45.5q0 18 63 270q-102 0 -209 -8t-126 -18q-6 -3 -13 -3t-7 11q0 23 26 67.5t47 53.5q48 22 312 22q71 288 71 318q0 8 7 8q18 0 64.5 -21.5t46.5 -33.5
q0 -32 -52 -272q98 0 174.5 -5.5t115.5 -14t39 -18.5q0 -12 -19.5 -58.5t-29.5 -46.5zM967 -18q-2 0 -6 2.5t-6 3.5q-35 14 -365 14q-111 0 -247 -8t-158 -18q-6 -4 -13 -4t-7 11q0 24 25.5 68t47.5 53q49 22 373 22q185 0 295 -10.5t110 -28.5q0 -11 -19.5 -58t-29.5 -47z
" />
    <glyph glyph-name="twosuperior" unicode="&#xb2;" horiz-adv-x="570" 
d="M666 1016q0 -61 -44 -133t-120 -138q67 -23 111 -54t44 -59q0 -24 -26.5 -68t-41.5 -43q-8 0 -8 14q0 38 -48 78.5t-120 65.5q-121 -76 -211 -76q-34 0 -55 15.5t-21 39.5q0 45 65 81t150 36q12 0 17 -1q176 169 176 280q0 39 -23 61.5t-64 22.5q-61 0 -115.5 -45
t-54.5 -96q0 -25 14.5 -41.5t37.5 -16.5q20 0 20 -10q0 -12 -28 -12q-41 0 -70 29.5t-29 72.5q0 67 70 119.5t165 52.5q92 0 150.5 -51.5t58.5 -123.5zM279 705q-52 0 -84 -11.5t-32 -30.5q0 -15 15 -15q30 0 101 57z" />
    <glyph glyph-name="threesuperior" unicode="&#xb3;" horiz-adv-x="616" 
d="M523 926q65 -13 101 -47t36 -83q0 -81 -91.5 -138.5t-213.5 -57.5q-75 0 -115 24t-40 67q0 30 17 60t36 30q12 0 33 -11t21 -17q0 -3 -4 -3q-12 0 -26 -23.5t-14 -40.5t17.5 -27t46.5 -10q69 0 125 49.5t56 114.5q0 46 -30.5 72.5t-84.5 26.5q-8 0 -16 8t-8 17q0 10 8 10
q74 0 124 35.5t50 89.5q0 32 -19 50.5t-52 18.5q-37 0 -72.5 -23t-53.5 -59q-5 -10 -21 -18t-28 -8q-15 0 -15 14q0 4 4 16q21 55 76.5 86.5t136.5 31.5q83 0 135.5 -32.5t52.5 -82.5q0 -47 -47 -84.5t-125 -55.5z" />
    <glyph glyph-name="acute" unicode="&#xb4;" horiz-adv-x="598" 
d="M428 1238q26 0 72 -41.5t46 -64.5q0 -19 -46 -71.5t-91.5 -106.5t-45.5 -77q0 -9 -7 -9q-14 0 -39 18.5t-25 39.5q0 40 30.5 102t61 116.5t30.5 76.5q0 17 14 17z" />
    <glyph glyph-name="cedilla" unicode="&#xb8;" horiz-adv-x="529" 
d="M199 -237q0 -2 -5 -2q-12 0 -22.5 -13.5t-10.5 -28.5q0 -16 14.5 -27t34.5 -11q40 0 73 38.5t33 77.5q0 31 -23 55t-52 24q-12 0 -27 -5.5t-16 -5.5q-6 0 -6 3q0 20 20.5 72.5t31.5 56.5h67q-7 0 -22.5 -35t-23.5 -61q13 3 29 3q49 0 85 -29t36 -74q0 -58 -54.5 -106
t-125.5 -48q-47 0 -77 23t-30 60q0 21 10 36.5t23 15.5q10 -1 24 -8.5t14 -10.5z" />
    <glyph glyph-name="onesuperior" unicode="&#xb9;" horiz-adv-x="420" 
d="M436 1176q33 0 71 -22.5t38 -42.5l-120 -414q65 -5 65 -19q0 -8 -14 -41t-20 -33q-2 0 -6 2q-13 6 -89 6q-131 0 -153 -11q-2 -1 -5 -1t-3 4q0 12 17 46t31 40q7 4 41 7l116 387q-32 -23 -56 -47.5t-24 -36.5q0 -4 -5 -4q-12 0 -31 7.5t-19 17.5q0 21 71.5 88t94.5 67z
" />
    <glyph glyph-name="ordmasculine" unicode="&#xba;" horiz-adv-x="588" 
d="M688 1034q0 -20 -15 -26q3 -18 3 -38q0 -77 -38 -166t-101.5 -152t-126.5 -63t-116.5 57.5t-53.5 132.5q0 63 36.5 150.5t98.5 155.5t122 68q52 0 121.5 -38t69.5 -81zM625 979q0 48 -23 48q-18 0 -18 -32q0 -21 -9.5 -33.5t-21.5 -12.5q-11 0 -20 12t-10 35
q-47 -51 -81 -132t-34 -147q0 -60 32 -60q36 0 80.5 59t74.5 135.5t30 127.5z" />
    <glyph glyph-name="guillemotright" unicode="&#xbb;" horiz-adv-x="1237" 
d="M569 554q-121 62 -227 128t-106 93q0 16 37.5 41t57.5 25q17 0 25 -13q20 -30 210 -138q200 -113 200 -135q0 -13 -73.5 -60.5t-176.5 -103.5q-97 -52 -174 -100.5t-89 -67.5q-6 -8 -17 -8q-23 0 -61.5 24.5t-38.5 40.5q0 29 139.5 112.5t293.5 161.5zM601 217
q-20 0 -57.5 23.5t-37.5 39.5q0 29 139.5 112.5t293.5 161.5q-114 57 -223.5 125t-109.5 96q0 17 37.5 42.5t57.5 25.5q16 0 24 -14q17 -24 212 -140q199 -116 199 -134q0 -14 -77 -62.5t-180 -103.5q-231 -124 -252 -159q-8 -13 -26 -13z" />
    <glyph glyph-name="questiondown" unicode="&#xbf;" horiz-adv-x="1057" 
d="M660 316q82 0 131.5 -51.5t49.5 -136.5q0 -131 -112 -220.5t-276 -89.5q-152 0 -253.5 77t-101.5 194q0 58 25.5 112t77 106t97 88t118.5 88q53 38 87 63.5t76 63t66 68t41 68.5t17 75q0 8 10 8q25 0 51 -34.5t26 -68.5q0 -32 -16.5 -67.5t-36.5 -62.5t-62 -66.5
t-67.5 -61.5t-78.5 -65q-51 -41 -78.5 -64t-67.5 -61t-60.5 -65.5t-36.5 -62.5t-16 -66q0 -67 60 -109.5t155 -42.5q113 0 188 59.5t75 149.5q0 57 -30.5 92t-80.5 35q-44 0 -44 21q0 11 17 19t50 8zM811 1060q37 0 62 -25.5t25 -63.5q0 -35 -20 -63.5t-45 -28.5
q-41 0 -77.5 18t-37.5 40q0 10 10 19q15 14 28.5 39t13.5 39q0 26 41 26z" />
    <glyph glyph-name="Agrave" unicode="&#xc0;" horiz-adv-x="1402" 
d="M908 23q0 116 38 283q-66 32 -136 56q-150 -177 -296 -282t-253 -105q-77 0 -126 51.5t-49 133.5q0 141 143.5 235.5t357.5 94.5q87 0 183 -17q126 163 225 337.5t141 315.5q-184 -15 -340.5 -75.5t-248.5 -150.5t-92 -188q0 -54 28 -83t77 -29q24 0 37 -6.5t13 -14.5
q0 -11 -18 -19t-52 -8q-82 0 -130.5 48t-48.5 130q0 133 123 260t324 206t413 79q56 0 129 -51t122 -113t49 -96q0 -13 -8.5 -23t-19.5 -10q-35 0 -95.5 -91t-125.5 -242t-107 -307q155 -84 155 -165q0 -42 -35 -94t-65 -52q-19 0 -19 28q0 60 -71 126q-17 -100 -17 -186
q0 -121 32.5 -200t83.5 -79q31 0 51 28t20 71q0 54 23 54q10 0 17 -16t7 -46q0 -71 -47 -113.5t-126 -42.5q-121 0 -193.5 100t-72.5 268zM705 392q-97 24 -189 24q-153 0 -259 -71t-106 -173q0 -55 31 -90.5t79 -35.5q77 0 196 95t248 251zM1430 1393q0 25 -83 118.5
t-83 113.5q0 21 42 58.5t65 37.5q13 0 13 -15q0 -21 55 -121.5t55 -146.5q0 -19 -23 -36t-35 -17q-6 0 -6 8zM881 450q36 -9 95 -28q50 178 127 367q-101 -184 -222 -339z" />
    <glyph glyph-name="Aacute" unicode="&#xc1;" horiz-adv-x="1402" 
d="M908 23q0 116 38 283q-66 32 -136 56q-150 -177 -296 -282t-253 -105q-77 0 -126 51.5t-49 133.5q0 141 143.5 235.5t357.5 94.5q87 0 183 -17q126 163 225 337.5t141 315.5q-184 -15 -340.5 -75.5t-248.5 -150.5t-92 -188q0 -54 28 -83t77 -29q24 0 37 -6.5t13 -14.5
q0 -11 -18 -19t-52 -8q-82 0 -130.5 48t-48.5 130q0 133 123 260t324 206t413 79q56 0 129 -51t122 -113t49 -96q0 -13 -8.5 -23t-19.5 -10q-35 0 -95.5 -91t-125.5 -242t-107 -307q155 -84 155 -165q0 -42 -35 -94t-65 -52q-19 0 -19 28q0 60 -71 126q-17 -100 -17 -186
q0 -121 32.5 -200t83.5 -79q31 0 51 28t20 71q0 54 23 54q10 0 17 -16t7 -46q0 -71 -47 -113.5t-126 -42.5q-121 0 -193.5 100t-72.5 268zM705 392q-97 24 -189 24q-153 0 -259 -71t-106 -173q0 -55 31 -90.5t79 -35.5q77 0 196 95t248 251zM1388 1391q0 40 30.5 102
t61 116.5t30.5 76.5q0 17 14 17q26 0 72 -41.5t46 -64.5q0 -15 -28.5 -51.5t-63 -73t-63 -74.5t-28.5 -56q0 -9 -7 -9q-13 0 -38.5 18.5t-25.5 39.5zM881 450q36 -9 95 -28q50 178 127 367q-101 -184 -222 -339z" />
    <glyph glyph-name="Acircumflex" unicode="&#xc2;" horiz-adv-x="1402" 
d="M1174 -345q-121 0 -193.5 100t-72.5 268q0 116 38 283q-66 32 -136 56q-150 -177 -296 -282t-253 -105q-77 0 -126 51.5t-49 133.5q0 141 143.5 235.5t357.5 94.5q87 0 183 -17q126 163 225 337.5t141 315.5q-184 -15 -340.5 -75.5t-248.5 -150.5t-92 -188q0 -54 28 -83
t77 -29q24 0 37 -6.5t13 -14.5q0 -11 -18 -19t-52 -8q-82 0 -130.5 48t-48.5 130q0 133 123 260t324 206t413 79q56 0 129 -51t122 -113t49 -96q0 -13 -8.5 -23t-19.5 -10q-35 0 -95.5 -91t-125.5 -242t-107 -307q155 -84 155 -165q0 -42 -35 -94t-65 -52q-19 0 -19 28
q0 60 -71 126q-17 -100 -17 -186q0 -121 32.5 -200.5t83.5 -79.5q31 0 51 28.5t20 71.5q0 54 23 54q10 0 17 -16t7 -46q0 -71 -47 -113.5t-126 -42.5zM705 392q-97 24 -189 24q-153 0 -259 -71t-106 -173q0 -55 31 -90.5t79 -35.5q77 0 196 95t248 251zM1504 1724
q23 0 52 -113q26 -95 46 -109q10 -7 10 -22q0 -26 -25.5 -57.5t-43.5 -31.5q-38 0 -73 180q-92 -145 -131 -145q-30 0 -35 88q0 13 19 24q36 17 94 96q64 90 87 90zM1103 789q-101 -184 -222 -339q36 -9 95 -28q50 178 127 367z" />
    <glyph glyph-name="Atilde" unicode="&#xc3;" horiz-adv-x="1402" 
d="M1174 -345q-121 0 -193.5 100t-72.5 268q0 116 38 283q-66 32 -136 56q-150 -177 -296 -282t-253 -105q-77 0 -126 51.5t-49 133.5q0 141 143.5 235.5t357.5 94.5q87 0 183 -17q126 163 225 337.5t141 315.5q-184 -15 -340.5 -75.5t-248.5 -150.5t-92 -188q0 -54 28 -83
t77 -29q24 0 37 -6.5t13 -14.5q0 -11 -18 -19t-52 -8q-82 0 -130.5 48t-48.5 130q0 133 123 260t324 206t413 79q56 0 129 -51t122 -113t49 -96q0 -13 -8.5 -23t-19.5 -10q-35 0 -95.5 -91t-125.5 -242t-107 -307q155 -84 155 -165q0 -42 -35 -94t-65 -52q-19 0 -19 28
q0 60 -71 126q-17 -100 -17 -186q0 -121 32.5 -200.5t83.5 -79.5q31 0 51 28.5t20 71.5q0 54 23 54q10 0 17 -16t7 -46q0 -71 -47 -113.5t-126 -42.5zM151 172q0 -55 31 -90.5t79 -35.5q77 0 196 95t248 251q-97 24 -189 24q-153 0 -259 -71t-106 -173zM1218 1554
q0 35 33.5 58t83.5 23t109 -35t94 -35q42 0 42 22q0 16 -33.5 31t-33.5 21q0 11 24 11q31 0 58.5 -27.5t27.5 -59.5t-32 -53.5t-81 -21.5q-32 0 -61 11t-47.5 23.5t-44 23.5t-49.5 11q-45 0 -45 -23q0 -16 32 -29t32 -22q0 -10 -21 -10q-33 0 -60.5 24.5t-27.5 56.5z
M976 422q50 178 127 367q-101 -184 -222 -339q36 -9 95 -28z" />
    <glyph glyph-name="Adieresis" unicode="&#xc4;" horiz-adv-x="1402" 
d="M1174 -345q-121 0 -193.5 100t-72.5 268q0 116 38 283q-66 32 -136 56q-150 -177 -296 -282t-253 -105q-77 0 -126 51.5t-49 133.5q0 141 143.5 235.5t357.5 94.5q87 0 183 -17q126 163 225 337.5t141 315.5q-184 -15 -340.5 -75.5t-248.5 -150.5t-92 -188q0 -54 28 -83
t77 -29q24 0 37 -6.5t13 -14.5q0 -11 -18 -19t-52 -8q-82 0 -130.5 48t-48.5 130q0 133 123 260t324 206t413 79q56 0 129 -51t122 -113t49 -96q0 -13 -8.5 -23t-19.5 -10q-35 0 -95.5 -91t-125.5 -242t-107 -307q155 -84 155 -165q0 -42 -35 -94t-65 -52q-19 0 -19 28
q0 60 -71 126q-17 -100 -17 -186q0 -121 32.5 -200.5t83.5 -79.5q31 0 51 28.5t20 71.5q0 54 23 54q10 0 17 -16t7 -46q0 -71 -47 -113.5t-126 -42.5zM705 392q-97 24 -189 24q-153 0 -259 -71t-106 -173q0 -55 31 -90.5t79 -35.5q77 0 196 95t248 251zM1396 1474
q-30 0 -49.5 20t-19.5 51q0 28 16 50.5t36 22.5q33 0 62 -14.5t30 -31.5q0 -7 -8 -15q-12 -11 -23 -31.5t-11 -31.5q0 -20 -33 -20zM1575 1566q33 0 62 -14.5t30 -31.5q0 -7 -8 -15q-12 -11 -23 -31.5t-11 -31.5q0 -20 -33 -20q-30 0 -49.5 20t-19.5 51q0 28 16 50.5
t36 22.5zM1103 789q-101 -184 -222 -339q36 -9 95 -28q50 178 127 367z" />
    <glyph glyph-name="Aring" unicode="&#xc5;" horiz-adv-x="1402" 
d="M1174 -345q-121 0 -193.5 100t-72.5 268q0 116 38 283q-66 32 -136 56q-150 -177 -296 -282t-253 -105q-77 0 -126 51.5t-49 133.5q0 141 143.5 235.5t357.5 94.5q87 0 183 -17q126 163 225 337.5t141 315.5q-184 -15 -340.5 -75.5t-248.5 -150.5t-92 -188q0 -54 28 -83
t77 -29q24 0 37 -6.5t13 -14.5q0 -11 -18 -19t-52 -8q-82 0 -130.5 48t-48.5 130q0 133 123 260t324 206t413 79q56 0 129 -51t122 -113t49 -96q0 -13 -8.5 -23t-19.5 -10q-35 0 -95.5 -91t-125.5 -242t-107 -307q155 -84 155 -165q0 -42 -35 -94t-65 -52q-19 0 -19 28
q0 60 -71 126q-17 -100 -17 -186q0 -121 32.5 -200.5t83.5 -79.5q31 0 51 28.5t20 71.5q0 54 23 54q10 0 17 -16t7 -46q0 -71 -47 -113.5t-126 -42.5zM705 392q-97 24 -189 24q-153 0 -259 -71t-106 -173q0 -55 31 -90.5t79 -35.5q77 0 196 95t248 251zM1511 1357
q-47 0 -77 30t-30 77q0 64 51 116t114 52q46 0 75 -30t29 -78q0 -65 -49.5 -116t-112.5 -51zM1604 1520q0 43 -41 43q-33 0 -61.5 -29.5t-28.5 -62.5q0 -21 12 -32.5t32 -11.5q33 0 60 29t27 64zM1103 789q-101 -184 -222 -339q36 -9 95 -28q50 178 127 367z" />
    <glyph glyph-name="AE" unicode="&#xc6;" horiz-adv-x="2373" 
d="M1755 587q-133 0 -256 -51t-200 -139t-77 -187q0 -85 57 -132.5t154 -47.5q169 0 356.5 134t297.5 331q19 34 31 47t24 13t19.5 -8.5t7.5 -21.5q0 -14 -7 -28q-131 -262 -349.5 -420.5t-453.5 -158.5q-176 0 -283 103t-107 273q-73 39 -159 68q-150 -177 -296 -282
t-253 -105q-77 0 -126 51.5t-49 133.5q0 141 143.5 235.5t357.5 94.5q87 0 183 -17q126 163 225 337.5t141 315.5q-184 -15 -340.5 -75.5t-248.5 -150.5t-92 -188q0 -54 28 -83t77 -29q24 0 37 -6.5t13 -14.5q0 -11 -18 -19t-52 -8q-82 0 -130.5 48t-48.5 130q0 133 123 260
t324 206t413 79q70 0 160 -74t127 -144q64 69 149 114t161 45q86 0 149.5 -53.5t63.5 -126.5q0 -65 -48 -130.5t-93 -65.5q-29 0 -75.5 25t-46.5 38q0 7 8 7q30 0 85.5 71.5t59.5 128.5q-63 -3 -132.5 -43t-115.5 -97.5t-46 -107.5q0 -56 51.5 -108t109.5 -65q65 -13 91 -28
q20 -11 37.5 -35.5t17.5 -48.5q0 -19 -10 -19q-9 0 -32 9q-52 20 -137 20zM516 416q-153 0 -259 -71t-106 -173q0 -55 31 -90.5t79 -35.5q77 0 196 95t248 251q-97 24 -189 24zM1252 611q114 70 260 90q-98 77 -98 167q0 35 17 75q-42 -46 -90.5 -134.5t-88.5 -197.5z
M1092 769q-96 -171 -211 -319q60 -15 104 -31q30 156 107 350z" />
    <glyph glyph-name="Ccedilla" unicode="&#xc7;" horiz-adv-x="994" 
d="M384 -307q0 -17 14 -28t35 -11q40 0 73 39t33 78q0 31 -23 54.5t-52 23.5q-12 0 -27 -5.5t-16 -5.5q-6 0 -6 7q0 19 23 76q-147 20 -249.5 150.5t-102.5 301.5q0 134 68.5 283.5t173 268t237 196.5t252.5 78q123 0 202.5 -76.5t79.5 -196.5q0 -124 -80 -225t-172 -101
q-46 0 -106 24t-60 41q0 10 24 10q59 0 126.5 61t114 156.5t46.5 185.5q-103 0 -236 -86.5t-243.5 -211.5t-187 -273.5t-76.5 -262.5q0 -101 58.5 -157.5t162.5 -56.5q155 0 316 124.5t277 331.5q23 41 35.5 55t24.5 14t19.5 -8.5t7.5 -21.5q0 -14 -7 -28
q-127 -254 -300 -411.5t-339 -166.5q-11 -27 -16 -45q14 3 29 3q49 0 85 -28.5t36 -74.5q0 -58 -54.5 -106t-125.5 -48q-47 0 -77 23t-30 60q0 22 9.5 37t23.5 15q10 0 24 -8t14 -11q0 -2 -5 -2q-12 0 -22.5 -13.5t-10.5 -27.5z" />
    <glyph glyph-name="Egrave" unicode="&#xc8;" horiz-adv-x="970" 
d="M372 871q0 70 62 151t157.5 137t182.5 56t151 -53t64 -126q0 -65 -48.5 -130.5t-93.5 -65.5q-29 0 -75.5 25t-46.5 38q0 6 9 6q29 0 84.5 72t59.5 129q-63 -3 -132.5 -43t-115.5 -97.5t-46 -107.5q0 -54 50 -101t111 -72q58 -23 91 -28q19 -3 37 -30.5t18 -53.5
q0 -19 -10 -19q-9 0 -32 9q-52 20 -137 20q-133 0 -256 -51t-200 -139t-77 -187q0 -86 59 -133t167 -47q177 0 347.5 124t287.5 334q22 39 34.5 53t24.5 14t19.5 -8.5t7.5 -21.5q0 -14 -7 -28q-131 -263 -314.5 -421t-366.5 -158q-108 0 -205.5 53.5t-157 144t-59.5 190.5
q0 154 137.5 265t337.5 133q-119 74 -119 167zM967 1309q0 25 -83.5 118t-83.5 113q0 22 42.5 59.5t65.5 36.5q13 0 13 -15q0 -21 55 -121t55 -147q0 -19 -23 -36t-35 -17q-6 0 -6 9z" />
    <glyph glyph-name="Eacute" unicode="&#xc9;" horiz-adv-x="970" 
d="M491 704q-119 74 -119 167q0 70 62 151t157.5 137t182.5 56t151 -53t64 -126q0 -65 -48.5 -130.5t-93.5 -65.5q-29 0 -75.5 25t-46.5 38q0 6 9 6q29 0 84.5 72t59.5 129q-63 -3 -132.5 -43t-115.5 -97.5t-46 -107.5q0 -54 50 -101t111 -72q58 -23 91 -28q19 -3 37 -30.5
t18 -53.5q0 -19 -10 -19q-9 0 -32 9q-52 20 -137 20q-133 0 -256 -51t-200 -139t-77 -187q0 -86 59 -133t167 -47q177 0 347.5 124t287.5 334q22 39 34.5 53t24.5 14t19.5 -8.5t7.5 -21.5q0 -14 -7 -28q-131 -263 -314.5 -421t-366.5 -158q-108 0 -205.5 53.5t-157 144
t-59.5 190.5q0 154 137.5 265t337.5 133zM989 1248q-13 0 -38.5 19t-25.5 40q0 39 30.5 101t61 117t30.5 77q0 16 14 16q26 0 72 -41t46 -65q0 -19 -46 -71.5t-92 -106.5t-46 -76q0 -10 -6 -10z" />
    <glyph glyph-name="Ecircumflex" unicode="&#xca;" horiz-adv-x="970" 
d="M1119 497q-131 -263 -314.5 -421t-366.5 -158q-108 0 -205.5 53.5t-157 144t-59.5 190.5q0 154 137.5 265t337.5 133q-119 74 -119 167q0 70 62 151t157.5 137t182.5 56t151 -53t64 -126q0 -65 -48.5 -130.5t-93.5 -65.5q-29 0 -75.5 25t-46.5 38q0 6 9 6q29 0 84.5 72
t59.5 129q-63 -3 -132.5 -43t-115.5 -97.5t-46 -107.5q0 -54 50 -101t111 -72q58 -23 91 -28q19 -3 37 -30.5t18 -53.5q0 -19 -10 -19q-9 0 -32 9q-52 20 -137 20q-133 0 -256 -51t-200 -139t-77 -187q0 -86 59 -133t167 -47q177 0 347.5 124t287.5 334q22 39 34.5 53
t24.5 14t19.5 -8.5t7.5 -21.5q0 -14 -7 -28zM1139 1417q10 -7 10 -22q0 -26 -26 -57t-43 -31q-38 0 -73 179q-94 -145 -131 -145q-17 0 -26 27.5t-9 60.5q0 15 19 24q39 22 94 97q67 90 86 90q26 0 53 -112q23 -95 46 -111z" />
    <glyph glyph-name="Edieresis" unicode="&#xcb;" horiz-adv-x="970" 
d="M878 1110q-63 -3 -132.5 -43t-115.5 -97.5t-46 -107.5q0 -54 50 -101t111 -72q58 -23 91 -28q19 -3 37 -30.5t18 -53.5q0 -19 -10 -19q-9 0 -32 9q-52 20 -137 20q-133 0 -256 -51t-200 -139t-77 -187q0 -86 59 -133t167 -47q177 0 347.5 124t287.5 334q22 39 34.5 53
t24.5 14t19.5 -8.5t7.5 -21.5q0 -14 -7 -28q-131 -263 -314.5 -421t-366.5 -158q-108 0 -205.5 53.5t-157 144t-59.5 190.5q0 154 137.5 265t337.5 133q-119 74 -119 167q0 70 62 151t157.5 137.5t182.5 56.5q86 0 150.5 -53.5t64.5 -126.5q0 -65 -48.5 -130.5t-93.5 -65.5
q-29 0 -75.5 25t-46.5 38q0 7 9 7q29 0 84.5 72t59.5 128zM1195 1420q-12 -10 -22.5 -30.5t-10.5 -31.5q0 -21 -33 -21q-30 0 -50 20t-20 51q0 28 16.5 51t35.5 23q33 0 62.5 -14.5t29.5 -32.5q0 -7 -8 -15zM966 1410q0 -21 -33 -21q-30 0 -50 20t-20 51q0 28 16.5 51
t35.5 23q33 0 62.5 -14.5t29.5 -31.5q0 -8 -8 -16q-12 -10 -22.5 -30.5t-10.5 -31.5z" />
    <glyph glyph-name="Igrave" unicode="&#xcc;" horiz-adv-x="817" 
d="M171 9q12 0 20.5 -9.5t8.5 -24.5q0 -18 11.5 -29t25.5 -11q41 0 101.5 96t120.5 239.5t120 313t103.5 312.5t68.5 241q-124 -40 -258 -150t-224 -245.5t-90 -240.5q0 -62 31 -98t82 -36q43 0 43 -21q0 -11 -17 -18.5t-47 -7.5q-82 0 -133.5 62t-51.5 160q0 89 44 193
t118.5 197.5t164 171.5t188.5 124.5t183 46.5q68 0 129 -46t61 -90q0 -79 -184.5 -565.5t-258.5 -605.5q-39 -62 -103.5 -96t-134.5 -34q-71 0 -114.5 32.5t-43.5 85.5q0 25 11 39t25 14zM947 1393q0 25 -83.5 118.5t-83.5 113.5q0 21 42.5 58.5t65.5 37.5q13 0 13 -15
q0 -21 55 -121.5t55 -146.5q0 -19 -23 -36t-35 -17q-6 0 -6 8z" />
    <glyph glyph-name="Iacute" unicode="&#xcd;" horiz-adv-x="817" 
d="M171 9q12 0 20.5 -9.5t8.5 -24.5q0 -18 11.5 -29t25.5 -11q41 0 101.5 96t120.5 239.5t120 313t103.5 312.5t68.5 241q-124 -40 -258 -150t-224 -245.5t-90 -240.5q0 -62 31 -98t82 -36q43 0 43 -21q0 -11 -17 -18.5t-47 -7.5q-82 0 -133.5 62t-51.5 160q0 89 44 193
t118.5 197.5t164 171.5t188.5 124.5t183 46.5q68 0 129 -46t61 -90q0 -79 -184.5 -565.5t-258.5 -605.5q-39 -62 -103.5 -96t-134.5 -34q-71 0 -114.5 32.5t-43.5 85.5q0 25 11 39t25 14zM905 1391q0 40 30.5 102t61 116.5t30.5 76.5q0 17 14 17q26 0 72 -41.5t46 -64.5
q0 -19 -46 -71.5t-92 -107t-46 -76.5q0 -9 -6 -9q-14 0 -39 18.5t-25 39.5z" />
    <glyph glyph-name="Icircumflex" unicode="&#xce;" horiz-adv-x="817" 
d="M171 9q12 0 20.5 -9.5t8.5 -24.5q0 -18 11.5 -29t25.5 -11q41 0 101.5 96t120.5 239.5t120 313t103.5 312.5t68.5 241q-124 -40 -258 -150t-224 -245.5t-90 -240.5q0 -62 31 -98t82 -36q43 0 43 -21q0 -11 -17 -18.5t-47 -7.5q-82 0 -133.5 62t-51.5 160q0 89 44 193
t118.5 197.5t164 171.5t188.5 124.5t183 46.5q68 0 129 -46t61 -90q0 -79 -184.5 -565.5t-258.5 -605.5q-39 -62 -103.5 -96t-134.5 -34q-71 0 -114.5 32.5t-43.5 85.5q0 25 11 39t25 14zM821 1514q0 13 19 24q37 19 94 96q64 90 86 90q13 0 29 -33.5t24 -76.5
q7 -38 20.5 -71t25.5 -41q10 -7 10 -22q0 -26 -25.5 -57.5t-43.5 -31.5q-38 0 -73 180q-94 -145 -131 -145q-17 0 -26 27.5t-9 60.5z" />
    <glyph glyph-name="Idieresis" unicode="&#xcf;" horiz-adv-x="817" 
d="M171 9q12 0 20.5 -9.5t8.5 -24.5q0 -18 11.5 -29t25.5 -11q41 0 101.5 96t120.5 239.5t120 313t103.5 312.5t68.5 241q-124 -40 -258 -150t-224 -245.5t-90 -240.5q0 -62 31 -98t82 -36q43 0 43 -21q0 -11 -17 -18.5t-47 -7.5q-82 0 -133.5 62t-51.5 160q0 89 44 193
t118.5 197.5t164 171.5t188.5 124.5t183 46.5q68 0 129 -46t61 -90q0 -79 -184.5 -565.5t-258.5 -605.5q-39 -62 -103.5 -96t-134.5 -34q-71 0 -114.5 32.5t-43.5 85.5q0 25 11 39t25 14zM1039 1493q0 28 16 50.5t36 22.5q33 0 62.5 -14.5t29.5 -31.5q0 -8 -8 -15
q-12 -11 -22.5 -31.5t-10.5 -31.5q0 -20 -33 -20q-30 0 -50 20t-20 51zM843 1545q0 28 16 50.5t36 22.5q33 0 62.5 -14.5t29.5 -31.5q0 -8 -8 -15q-12 -11 -22.5 -31.5t-10.5 -31.5q0 -20 -33 -20q-30 0 -50 20t-20 51z" />
    <glyph glyph-name="Ntilde" unicode="&#xd1;" horiz-adv-x="1285" 
d="M533 -21q0 -35 -32 -35q-49 0 -114 61.5t-65 122.5q0 85 115 403t207 484q-84 -32 -167 -87.5t-149.5 -123t-107.5 -147t-41 -151.5q0 -65 31 -102t82 -37q43 0 43 -21q0 -11 -17 -18.5t-47 -7.5q-83 0 -134 63t-51 165q0 109 62.5 224t157.5 201t213 141.5t223 55.5
q56 0 119 -45t63 -82q0 -11 -5.5 -19.5t-11.5 -8.5q-31 0 -155 -277.5t-193 -501.5q91 177 260 411t331.5 405.5t225.5 171.5q40 0 88.5 -57.5t48.5 -99.5q0 -17 -8.5 -28.5t-20.5 -11.5q-40 0 -112.5 -134.5t-141.5 -315.5t-120 -379.5t-51 -314.5q0 -78 23.5 -120.5
t65.5 -42.5q40 0 69 33.5t29 78.5q0 20 6.5 31.5t14.5 11.5q11 0 19 -17t8 -47q0 -69 -46 -112.5t-131 -43.5q-125 0 -195 97t-70 272q0 205 90.5 469.5t216.5 456.5q-125 -137 -272 -340.5t-250.5 -385t-103.5 -245.5zM1024 1440q0 -10 -21 -10q-33 0 -60.5 24.5
t-27.5 56.5q0 35 33.5 58t83.5 23t109 -35t94 -35q42 0 42 22q0 16 -33.5 31t-33.5 21q0 11 24 11q31 0 58.5 -27.5t27.5 -59.5t-32 -53.5t-81 -21.5t-108 34.5t-94 34.5q-45 0 -45 -23q0 -16 32 -29t32 -22z" />
    <glyph glyph-name="Ograve" unicode="&#xd2;" horiz-adv-x="1417" 
d="M320 268q-16 -8 -46 -8q-83 0 -135.5 68t-52.5 177q0 103 48.5 212t133.5 202.5t191.5 168.5t232 118.5t244.5 43.5q226 0 367 -146t141 -371q0 -152 -69.5 -303.5t-176 -262.5t-239.5 -180t-256 -69q-152 0 -257 99t-126 251zM902 951q-15 -13 -62.5 -63t-117 -135
t-132 -176t-107.5 -193t-45 -178q0 -85 37.5 -130t107.5 -45q93 0 220.5 78t238 192t188 255t77.5 256q0 121 -85 197.5t-238 76.5q-68 0 -137 -15q29 -22 48 -47.5t19 -45.5q0 -16 -12 -27zM295 308q13 0 21 -3q0 141 79.5 332.5t199.5 337.5q-177 -96 -296 -238.5
t-119 -272.5q0 -69 32.5 -112.5t82.5 -43.5zM1006 1600q0 21 42 58.5t65 37.5q13 0 13 -15q0 -21 55 -121.5t55 -146.5q0 -19 -23 -36t-35 -17q-6 0 -6 8q0 25 -83 118.5t-83 113.5z" />
    <glyph glyph-name="Oacute" unicode="&#xd3;" horiz-adv-x="1417" 
d="M320 268q-16 -8 -46 -8q-83 0 -135.5 68t-52.5 177q0 103 48.5 212t133.5 202.5t191.5 168.5t232 118.5t244.5 43.5q226 0 367 -146t141 -371q0 -152 -69.5 -303.5t-176 -262.5t-239.5 -180t-256 -69q-152 0 -257 99t-126 251zM902 951q-15 -13 -62.5 -63t-117 -135
t-132 -176t-107.5 -193t-45 -178q0 -85 37.5 -130t107.5 -45q93 0 220.5 78t238 192t188 255t77.5 256q0 121 -85 197.5t-238 76.5q-68 0 -137 -15q29 -22 48 -47.5t19 -45.5q0 -16 -12 -27zM295 308q13 0 21 -3q0 141 79.5 332.5t199.5 337.5q-177 -96 -296 -238.5
t-119 -272.5q0 -69 32.5 -112.5t82.5 -43.5zM1194 1308q-13 0 -38.5 18.5t-25.5 39.5q0 40 30.5 102t61 116.5t30.5 76.5q0 17 14 17q26 0 72 -41.5t46 -64.5q0 -15 -28.5 -51.5t-63 -73t-63 -74.5t-28.5 -56q0 -9 -7 -9z" />
    <glyph glyph-name="Ocircumflex" unicode="&#xd4;" horiz-adv-x="1417" 
d="M320 268q-16 -8 -46 -8q-83 0 -135.5 68t-52.5 177q0 103 48.5 212t133.5 202.5t191.5 168.5t232 118.5t244.5 43.5q226 0 367 -146t141 -371q0 -152 -69.5 -303.5t-176 -262.5t-239.5 -180t-256 -69q-152 0 -257 99t-126 251zM438 206q0 -85 37.5 -130t107.5 -45
q93 0 220.5 78t238 192t188 255t77.5 256q0 121 -85 197.5t-238 76.5q-68 0 -137 -15q29 -22 48 -47.5t19 -45.5q0 -16 -12 -27q-15 -13 -62.5 -63t-117 -135t-132 -176t-107.5 -193t-45 -178zM295 308q13 0 21 -3q0 141 79.5 332.5t199.5 337.5q-177 -96 -296 -238.5
t-119 -272.5q0 -69 32.5 -112.5t82.5 -43.5zM1046 1489q0 13 19 24q36 17 94 96q64 90 87 90q19 0 53 -116q30 -95 45 -106q10 -7 10 -22q0 -26 -25.5 -57.5t-43.5 -31.5q-38 0 -73 180q-92 -145 -131 -145q-30 0 -35 88z" />
    <glyph glyph-name="Otilde" unicode="&#xd5;" horiz-adv-x="1417" 
d="M320 268q-16 -8 -46 -8q-83 0 -135.5 68t-52.5 177q0 103 48.5 212t133.5 202.5t191.5 168.5t232 118.5t244.5 43.5q226 0 367 -146t141 -371q0 -152 -69.5 -303.5t-176 -262.5t-239.5 -180t-256 -69q-152 0 -257 99t-126 251zM438 206q0 -85 37.5 -130t107.5 -45
q93 0 220.5 78t238 192t188 255t77.5 256q0 121 -85 197.5t-238 76.5q-68 0 -137 -15q29 -22 48 -47.5t19 -45.5q0 -16 -12 -27q-15 -13 -62.5 -63t-117 -135t-132 -176t-107.5 -193t-45 -178zM295 308q13 0 21 -3q0 141 79.5 332.5t199.5 337.5q-177 -96 -296 -238.5
t-119 -272.5q0 -69 32.5 -112.5t82.5 -43.5zM1048 1448q-33 0 -60.5 24.5t-27.5 56.5q0 35 33.5 58t83.5 23t109 -35t94 -35q42 0 42 22q0 16 -33.5 31t-33.5 21q0 11 24 11q31 0 58.5 -27.5t27.5 -59.5t-32 -53.5t-81 -21.5q-40 0 -75 17.5t-66 34.5t-61 17q-45 0 -45 -23
q0 -16 32 -29t32 -22q0 -10 -21 -10z" />
    <glyph glyph-name="Odieresis" unicode="&#xd6;" horiz-adv-x="1417" 
d="M320 268q-16 -8 -46 -8q-83 0 -135.5 68t-52.5 177q0 103 48.5 212t133.5 202.5t191.5 168.5t232 118.5t244.5 43.5q226 0 367 -146t141 -371q0 -152 -69.5 -303.5t-176 -262.5t-239.5 -180t-256 -69q-152 0 -257 99t-126 251zM438 206q0 -85 37.5 -130t107.5 -45
q93 0 220.5 78t238 192t188 255t77.5 256q0 121 -85 197.5t-238 76.5q-68 0 -137 -15q29 -22 48 -47.5t19 -45.5q0 -16 -12 -27q-15 -13 -62.5 -63t-117 -135t-132 -176t-107.5 -193t-45 -178zM295 308q13 0 21 -3q0 141 79.5 332.5t199.5 337.5q-177 -96 -296 -238.5
t-119 -272.5q0 -69 32.5 -112.5t82.5 -43.5zM1265 1468q0 28 16 50.5t36 22.5q33 0 62 -14.5t30 -31.5q0 -7 -8 -15q-12 -11 -23 -31.5t-11 -31.5q0 -20 -33 -20q-30 0 -49.5 20t-19.5 51zM1069 1520q0 28 16 50.5t36 22.5q33 0 62 -14.5t30 -31.5q0 -7 -8 -15
q-12 -11 -23 -31.5t-11 -31.5q0 -20 -33 -20q-30 0 -49.5 20t-19.5 51z" />
    <glyph glyph-name="multiply" unicode="&#xd7;" horiz-adv-x="1017" 
d="M238 851q3 0 7 -5q12 -19 83 -89t154 -139q99 86 176 144t100 66q8 2 15 2q28 0 62.5 -14t44.5 -30q4 -5 4 -10q0 -4 -5 -7.5t-10 -3.5q-21 0 -109.5 -69t-187.5 -155q192 -160 212 -188q6 -8 6 -20q0 -26 -24.5 -74t-38.5 -48q-7 0 -11 6q-7 11 -84 81.5t-168 149.5
q-125 -109 -181.5 -161.5t-59.5 -68.5q-1 -4 -6 -9t-10 -5q-12 0 -46 19.5t-39 27.5q-1 1 -1 5q2 22 71 95t186 175q-180 162 -201 192q-4 5 -4 14q3 22 27.5 71t37.5 48z" />
    <glyph glyph-name="Oslash" unicode="&#xd8;" horiz-adv-x="1417" 
d="M320 268q-16 -8 -46 -8q-83 0 -135.5 68t-52.5 177q0 103 48.5 212t133.5 202.5t191.5 168.5t232 118.5t244.5 43.5q133 0 243 -55q113 154 169 154q23 0 36 -22.5t13 -54.5q0 -38 -16 -69t-39 -31q-24 0 -66 -42q80 -70 124 -172.5t44 -224.5q0 -152 -69.5 -303.5
t-176 -262.5t-239.5 -180t-256 -69q-33 0 -75 7q-59 -151 -59 -196q0 -33 -26 -33q-41 0 -41 136q0 41 27 127q-85 43 -140 124.5t-69 184.5zM1196 1029q-113 -160 -261 -444.5t-256 -535.5q97 32 208.5 117t204 191t154 229.5t61.5 225.5q0 142 -111 217zM902 951
q-15 -13 -62.5 -63t-117 -135t-132 -176t-107.5 -193t-45 -178t30 -120t87 -53q78 209 236 513t304 527q-48 13 -111 13q-68 0 -137 -15q29 -22 48 -47.5t19 -45.5q0 -16 -12 -27zM295 308q13 0 21 -3q0 141 79.5 332.5t199.5 337.5q-177 -96 -296 -238.5t-119 -272.5
q0 -69 32.5 -112.5t82.5 -43.5z" />
    <glyph glyph-name="Ugrave" unicode="&#xd9;" horiz-adv-x="1302" 
d="M335 346q0 -11 -17 -18.5t-47 -7.5q-83 0 -134 62.5t-51 162.5q0 106 60.5 219.5t153.5 202t212 146t230 57.5q56 0 119 -44.5t63 -81.5q0 -11 -5.5 -19t-12.5 -8q-34 0 -129 -191t-178 -429t-83 -348q0 -39 11 -60t29 -21q59 0 204 259q54 96 174 328q42 81 64.5 124
t61.5 117t63.5 115.5t58.5 99t57.5 89.5t50 64t48 46t39.5 14q39 0 89 -57.5t50 -98.5q0 -16 -9.5 -28.5t-22.5 -12.5q-39 0 -111.5 -134.5t-141.5 -315.5t-120.5 -380t-51.5 -315q0 -77 23.5 -119.5t65.5 -42.5q40 0 69 33.5t29 78.5q0 20 6.5 31.5t14.5 11.5q11 0 19 -17
t8 -47q0 -69 -46 -112.5t-131 -43.5q-123 0 -185 93.5t-62 261.5q0 181 67 406q-45 -93 -81.5 -163.5t-81.5 -144t-84 -120.5t-82.5 -77t-83.5 -30q-85 0 -133 60.5t-48 162.5q0 160 106 455.5t207 461.5q-117 -42 -227 -127.5t-179.5 -192t-69.5 -199.5q0 -62 30.5 -98.5
t81.5 -36.5q43 0 43 -21zM1095 1317q0 25 -83 118.5t-83 113.5q0 21 42 58.5t65 37.5q13 0 13 -15q0 -21 55 -121.5t55 -146.5q0 -19 -23 -36t-35 -17q-6 0 -6 8z" />
    <glyph glyph-name="Uacute" unicode="&#xda;" horiz-adv-x="1302" 
d="M335 346q0 -11 -17 -18.5t-47 -7.5q-83 0 -134 62.5t-51 162.5q0 106 60.5 219.5t153.5 202t212 146t230 57.5q56 0 119 -44.5t63 -81.5q0 -11 -5.5 -19t-12.5 -8q-34 0 -129 -191t-178 -429t-83 -348q0 -39 11 -60t29 -21q59 0 204 259q54 96 174 328q42 81 64.5 124
t61.5 117t63.5 115.5t58.5 99t57.5 89.5t50 64t48 46t39.5 14q39 0 89 -57.5t50 -98.5q0 -16 -9.5 -28.5t-22.5 -12.5q-39 0 -111.5 -134.5t-141.5 -315.5t-120.5 -380t-51.5 -315q0 -77 23.5 -119.5t65.5 -42.5q40 0 69 33.5t29 78.5q0 20 6.5 31.5t14.5 11.5q11 0 19 -17
t8 -47q0 -69 -46 -112.5t-131 -43.5q-123 0 -185 93.5t-62 261.5q0 181 67 406q-45 -93 -81.5 -163.5t-81.5 -144t-84 -120.5t-82.5 -77t-83.5 -30q-85 0 -133 60.5t-48 162.5q0 160 106 455.5t207 461.5q-117 -42 -227 -127.5t-179.5 -192t-69.5 -199.5q0 -62 30.5 -98.5
t81.5 -36.5q43 0 43 -21zM1117 1257q-13 0 -38.5 18.5t-25.5 39.5q0 40 30.5 102t61 116.5t30.5 76.5q0 17 14 17q26 0 72 -41.5t46 -64.5q0 -19 -45.5 -71.5t-91.5 -107t-46 -76.5q0 -9 -7 -9z" />
    <glyph glyph-name="Ucircumflex" unicode="&#xdb;" horiz-adv-x="1302" 
d="M906 1017q-34 0 -129 -191t-178 -429t-83 -348q0 -39 11 -60t29 -21q59 0 204 259q54 96 174 328q42 81 64.5 124t61.5 117t63.5 115.5t58.5 99t57.5 89.5t50 64t48 46t39.5 14q39 0 89 -57.5t50 -98.5q0 -16 -9.5 -28.5t-22.5 -12.5q-39 0 -111.5 -134.5t-141.5 -315.5
t-120.5 -380t-51.5 -315q0 -77 23.5 -119.5t65.5 -42.5q40 0 69 33.5t29 78.5q0 20 6.5 31.5t14.5 11.5q11 0 19 -17t8 -47q0 -69 -46 -112.5t-131 -43.5q-123 0 -185 93.5t-62 261.5q0 181 67 406q-45 -93 -81.5 -163.5t-81.5 -144t-84 -120.5t-82.5 -77t-83.5 -30
q-85 0 -133 60.5t-48 162.5q0 160 106 455.5t207 461.5q-117 -42 -227 -127.5t-180 -192t-70 -199.5q0 -62 31 -98.5t82 -36.5q43 0 43 -21q0 -11 -17 -18.5t-47 -7.5q-83 0 -134 62.5t-51 162.5q0 106 60.5 219.5t153.5 202t212 146t230 57.5q56 0 119 -44.5t63 -81.5
q0 -11 -5.5 -19t-12.5 -8zM1004 1350q-30 0 -35 88q0 13 19 24q36 17 94 96q64 90 87 90q19 0 51 -108q31 -102 48 -115q9 -6 9 -21q0 -26 -25.5 -57.5t-43.5 -31.5q-38 0 -73 180q-92 -145 -131 -145z" />
    <glyph glyph-name="Udieresis" unicode="&#xdc;" horiz-adv-x="1302" 
d="M556 -32q59 0 204 259q54 96 174 328q42 81 64.5 124t61.5 117t63.5 115.5t58.5 99t57.5 89.5t50 64t48 46t39.5 14q39 0 89 -57.5t50 -98.5q0 -16 -9.5 -28.5t-22.5 -12.5q-39 0 -111.5 -134.5t-141.5 -315.5t-120.5 -380t-51.5 -315q0 -77 23.5 -119.5t65.5 -42.5
q40 0 69 33.5t29 78.5q0 20 6.5 31.5t14.5 11.5q11 0 19 -17t8 -47q0 -69 -46 -112.5t-131 -43.5q-123 0 -185 93.5t-62 261.5q0 181 67 406q-45 -93 -81.5 -163.5t-81.5 -144t-84 -120.5t-82.5 -77t-83.5 -30q-85 0 -133 60.5t-48 162.5q0 160 106 455.5t207 461.5
q-117 -42 -227 -127.5t-180 -192t-70 -199.5q0 -62 31 -98.5t82 -36.5q43 0 43 -21q0 -11 -17 -18.5t-47 -7.5q-83 0 -134 62.5t-51 162.5q0 106 60.5 219.5t153.5 202t212 146t230 57.5q56 0 119 -44.5t63 -81.5q0 -11 -5.5 -19t-12.5 -8q-34 0 -129 -191t-178 -429
t-83 -348q0 -39 11 -60t29 -21zM1324 1429q-12 -11 -23 -31.5t-11 -31.5q0 -20 -33 -20q-30 0 -49.5 20t-19.5 51q0 28 16 50.5t36 22.5q33 0 62 -14.5t30 -31.5q0 -7 -8 -15zM1061 1398q-30 0 -49.5 20t-19.5 51q0 28 16 50.5t36 22.5q33 0 62 -14.5t30 -31.5q0 -7 -8 -15
q-12 -11 -23 -31.5t-11 -31.5q0 -20 -33 -20z" />
    <glyph glyph-name="Yacute" unicode="&#xdd;" horiz-adv-x="1273" 
d="M603 -425q-93 0 -152 67t-59 175q0 167 139 300t360 185q79 184 146 368q-96 -178 -206 -288t-219 -110q-82 0 -133 61.5t-51 161.5q0 115 37 262t87 247q-151 -71 -262 -213.5t-111 -278.5q0 -69 31 -107t82 -38q43 0 43 -21q0 -11 -17 -18.5t-47 -7.5q-83 0 -134 64.5
t-51 175.5q0 108 51.5 219.5t132.5 197t187 139.5t209 54q56 0 117.5 -44t61.5 -84q0 -13 -7.5 -24t-15.5 -11q-23 0 -73 -108t-91.5 -245.5t-41.5 -209.5q0 -85 55 -85q53 0 136 95t158 227.5t129.5 285.5t54.5 257q0 32 27 32q44 0 123 -67t79 -101q0 -75 -70.5 -290
t-173.5 -468q34 0 53 -8.5t19 -19.5t-19.5 -19.5t-56.5 -8.5q-12 0 -19 -1q-164 -394 -275 -569q-37 -58 -101 -93.5t-132 -35.5zM862 235q-180 -54 -292.5 -165t-112.5 -243q0 -64 24.5 -106t49.5 -42q43 0 133.5 156t197.5 400zM937 1426q0 40 30.5 102t61 116.5
t30.5 76.5q0 17 14 17q26 0 72 -41.5t46 -64.5q0 -19 -45.5 -71.5t-91.5 -106.5t-46 -77q0 -9 -7 -9q-14 0 -39 18.5t-25 39.5z" />
    <glyph glyph-name="germandbls" unicode="&#xdf;" horiz-adv-x="789" 
d="M268 -31q-62 0 -110 15q-27 -113 -27 -183q0 -68 23.5 -108.5t64.5 -40.5q40 0 69.5 34t29.5 79q0 43 21 43q11 0 19 -17t8 -47q0 -69 -46.5 -112.5t-131.5 -43.5q-120 0 -181.5 86.5t-61.5 226.5q0 100 31.5 237t84 281t127.5 286.5t156 253.5t174.5 180t179.5 69
q80 0 129.5 -56t49.5 -152q0 -121 -70.5 -264t-164.5 -195q90 -62 90 -182q0 -103 -66 -194t-173 -143.5t-225 -52.5zM369 557q-125 -271 -191 -499q18 -2 28 -2q82 0 164.5 48t136.5 125.5t54 156.5q0 76 -51 122t-141 49zM711 1100q-40 0 -129 -139.5t-187 -347.5
q4 1 14 1q60 0 139 87.5t132.5 194t53.5 165.5q0 39 -23 39z" />
    <glyph glyph-name="agrave" unicode="&#xe0;" horiz-adv-x="744" 
d="M357 224q-56 -106 -104.5 -165t-92.5 -59t-119 46.5t-75 77.5q0 128 50 257.5t125 210t145 80.5q46 0 118 -25.5t81 -56.5q54 82 83 82q27 0 96.5 -39t69.5 -65q0 -8 -6.5 -15t-15.5 -7q-29 0 -71.5 -85.5t-72.5 -190t-30 -160.5q0 -18 3 -18q9 0 145.5 193.5
t161.5 234.5q22 35 48 35q10 0 17.5 -6t6.5 -13q-1 -21 -86.5 -154t-177.5 -257.5t-109 -124.5q-77 0 -140.5 35t-63.5 74q0 48 14 115zM355 363q65 126 121 213q-77 0 -151.5 -72t-122 -192.5t-47.5 -250.5q53 20 200 302zM324 1005q0 21 42 58.5t65 37.5q13 0 13 -15
q0 -21 55 -121.5t55 -146.5q0 -19 -23 -36t-35 -17q-6 0 -6 8q0 25 -83 118.5t-83 113.5z" />
    <glyph glyph-name="aacute" unicode="&#xe1;" horiz-adv-x="744" 
d="M357 224q-56 -106 -104.5 -165t-92.5 -59t-119 46.5t-75 77.5q0 128 50 257.5t125 210t145 80.5q46 0 118 -25.5t81 -56.5q54 82 83 82q27 0 96.5 -39t69.5 -65q0 -8 -6.5 -15t-15.5 -7q-29 0 -71.5 -85.5t-72.5 -190t-30 -160.5q0 -18 3 -18q9 0 145.5 193.5
t161.5 234.5q22 35 48 35q10 0 17.5 -6t6.5 -13q-1 -21 -86.5 -154t-177.5 -257.5t-109 -124.5q-77 0 -140.5 35t-63.5 74q0 48 14 115zM355 363q65 126 121 213q-77 0 -151.5 -72t-122 -192.5t-47.5 -250.5q53 20 200 302zM512 713q-13 0 -38.5 18.5t-25.5 39.5
q0 40 30.5 102t61 116.5t30.5 76.5q0 17 14 17q26 0 72 -41.5t46 -64.5q0 -15 -28.5 -51.5t-63 -73t-63 -74.5t-28.5 -56q0 -9 -7 -9z" />
    <glyph glyph-name="acircumflex" unicode="&#xe2;" horiz-adv-x="744" 
d="M357 224q-56 -106 -104.5 -165t-92.5 -59t-119 46.5t-75 77.5q0 128 50 257.5t125 210t145 80.5q46 0 118 -25.5t81 -56.5q54 82 83 82q27 0 96.5 -39t69.5 -65q0 -8 -6.5 -15t-15.5 -7q-29 0 -71.5 -85.5t-72.5 -190t-30 -160.5q0 -18 3 -18q9 0 145.5 193.5
t161.5 234.5q22 35 48 35q10 0 17.5 -6t6.5 -13q-1 -21 -86.5 -154t-177.5 -257.5t-109 -124.5q-77 0 -140.5 35t-63.5 74q0 48 14 115zM355 363q65 126 121 213q-77 0 -151.5 -72t-122 -192.5t-47.5 -250.5q53 20 200 302zM364 894q0 13 19 24q36 17 94 96q64 90 87 90
q21 0 53 -116q26 -93 45 -106q10 -7 10 -22q0 -26 -25.5 -57.5t-43.5 -31.5q-38 0 -73 180q-92 -145 -131 -145q-30 0 -35 88z" />
    <glyph glyph-name="atilde" unicode="&#xe3;" horiz-adv-x="744" 
d="M357 224q-56 -106 -104.5 -165t-92.5 -59t-119 46.5t-75 77.5q0 128 50 257.5t125 210t145 80.5q46 0 118 -25.5t81 -56.5q54 82 83 82q27 0 96.5 -39t69.5 -65q0 -8 -6.5 -15t-15.5 -7q-29 0 -71.5 -85.5t-72.5 -190t-30 -160.5q0 -18 3 -18q9 0 145.5 193.5
t161.5 234.5q22 35 48 35q10 0 17.5 -6t6.5 -13q-1 -21 -86.5 -154t-177.5 -257.5t-109 -124.5q-77 0 -140.5 35t-63.5 74q0 48 14 115zM355 363q65 126 121 213q-77 0 -151.5 -72t-122 -192.5t-47.5 -250.5q53 20 200 302zM278 934q0 35 33.5 58t83.5 23t109 -35t94 -35
q42 0 42 22q0 16 -33.5 31t-33.5 21q0 11 24 11q31 0 58.5 -27.5t27.5 -59.5t-32 -53.5t-81 -21.5q-32 0 -61 11t-47.5 23.5t-44 23.5t-49.5 11q-45 0 -45 -23q0 -16 32 -29t32 -22q0 -10 -21 -10q-33 0 -60.5 24.5t-27.5 56.5z" />
    <glyph glyph-name="adieresis" unicode="&#xe4;" horiz-adv-x="744" 
d="M357 224q-56 -106 -104.5 -165t-92.5 -59t-119 46.5t-75 77.5q0 128 50 257.5t125 210t145 80.5q46 0 118 -25.5t81 -56.5q54 82 83 82q27 0 96.5 -39t69.5 -65q0 -8 -6.5 -15t-15.5 -7q-29 0 -71.5 -85.5t-72.5 -190t-30 -160.5q0 -18 3 -18q9 0 145.5 193.5
t161.5 234.5q22 35 48 35q10 0 17.5 -6t6.5 -13q-1 -21 -86.5 -154t-177.5 -257.5t-109 -124.5q-77 0 -140.5 35t-63.5 74q0 48 14 115zM355 363q65 126 121 213q-77 0 -151.5 -72t-122 -192.5t-47.5 -250.5q53 20 200 302zM652 802q-30 0 -49.5 20t-19.5 51q0 28 16 50.5
t36 22.5q33 0 62 -14.5t30 -31.5q0 -7 -8 -15q-12 -11 -23 -31.5t-11 -31.5q0 -20 -33 -20zM456 854q-30 0 -49.5 20t-19.5 51q0 28 16 50.5t36 22.5q33 0 62 -14.5t30 -31.5q0 -7 -8 -15q-12 -11 -23 -31.5t-11 -31.5q0 -20 -33 -20z" />
    <glyph glyph-name="aring" unicode="&#xe5;" horiz-adv-x="744" 
d="M357 224q-56 -106 -104.5 -165t-92.5 -59t-119 46.5t-75 77.5q0 128 50 257.5t125 210t145 80.5q46 0 118 -25.5t81 -56.5q54 82 83 82q27 0 96.5 -39t69.5 -65q0 -8 -6.5 -15t-15.5 -7q-29 0 -71.5 -85.5t-72.5 -190t-30 -160.5q0 -18 3 -18q9 0 145.5 193.5
t161.5 234.5q22 35 48 35q10 0 17.5 -6t6.5 -13q-1 -21 -86.5 -154t-177.5 -257.5t-109 -124.5q-77 0 -140.5 35t-63.5 74q0 48 14 115zM355 363q65 126 121 213q-77 0 -151.5 -72t-122 -192.5t-47.5 -250.5q53 20 200 302zM571 737q-47 0 -77 30t-30 77q0 64 51 116t114 52
q46 0 75 -30t29 -78q0 -65 -49.5 -116t-112.5 -51zM623 943q-33 0 -61.5 -29.5t-28.5 -62.5q0 -21 12 -32.5t32 -11.5q33 0 60 29t27 64q0 43 -41 43z" />
    <glyph glyph-name="ae" unicode="&#xe6;" horiz-adv-x="919" 
d="M350 188q-116 -188 -190 -188q-44 0 -119 46.5t-75 77.5q0 128 50 257.5t125 210t145 80.5q50 0 125 -28t75 -61q0 -7 -18 -7q-77 0 -149.5 -72.5t-118 -192.5t-45.5 -250q16 5 35.5 25.5t45.5 62.5t42.5 71.5t49.5 89.5q51 94 103.5 170.5t86.5 104.5q105 87 184 87
q68 0 129 -49.5t61 -108.5q0 -65 -42 -125.5t-95 -94t-94 -33.5q-29 0 -64 16t-35 26q0 7 20 7q34 0 79 25.5t84.5 75t47.5 107.5q-53 -6 -115.5 -61t-106 -134t-43.5 -145q0 -43 19.5 -68t53.5 -25q52 0 124.5 59.5t136 141t108 146t59.5 93.5q17 30 33 30q12 0 20.5 -11
t8.5 -26q0 -13 -6 -25q-8 -16 -35.5 -60.5t-83.5 -122t-116.5 -144t-137 -116.5t-141.5 -50q-72 0 -136.5 53.5t-84.5 134.5z" />
    <glyph glyph-name="ccedilla" unicode="&#xe7;" horiz-adv-x="529" 
d="M110 -73q-5 0 -5 3q0 20 21 77q-65 18 -109 78t-44 144q0 94 53 198t136.5 174.5t162.5 70.5q70 0 130 -50t60 -108q0 -20 -7.5 -30.5t-17.5 -10.5q-14 0 -14 15q0 14 -14.5 22.5t-34.5 8.5q-54 0 -117 -56t-107 -142.5t-44 -165.5q0 -40 11.5 -55t35.5 -15
q42 0 99.5 41.5t109.5 99t102.5 124t80.5 111.5t42 66q16 28 32 28q11 0 20 -11t9 -26q0 -9 -7 -25q-3 -7 -30.5 -51.5t-81.5 -118t-114.5 -142t-136 -121.5t-140.5 -59q-10 -26 -13 -38q13 3 28 3q49 0 85.5 -29t36.5 -74q0 -57 -54.5 -105.5t-125.5 -48.5q-48 0 -77.5 23
t-29.5 60q0 21 9.5 36.5t23.5 15.5q10 -1 24 -8.5t14 -10.5q0 -2 -5 -2q-13 0 -23 -13.5t-10 -28.5q0 -16 14.5 -27t34.5 -11q40 0 73 38.5t33 77.5q0 31 -23 55t-52 24q-12 0 -27 -5.5t-17 -5.5z" />
    <glyph glyph-name="egrave" unicode="&#xe8;" horiz-adv-x="552" 
d="M294 261q-29 0 -64 16t-35 26q0 7 20 7q34 0 79 25.5t84.5 75t47.5 107.5q-53 -6 -115.5 -61t-106 -134t-43.5 -145q0 -43 19.5 -68t53.5 -25q52 0 124.5 59.5t136 141t108 146t59.5 93.5q16 30 33 30q12 0 20.5 -11t8.5 -26q0 -13 -6 -25q-8 -16 -35.5 -60.5t-83.5 -122
t-116.5 -144t-137 -116.5t-141.5 -50q-86 0 -157 73t-71 174q0 88 55.5 188.5t140.5 168.5t162 68q68 0 129.5 -49t61.5 -108q0 -65 -42 -126t-95 -94.5t-94 -33.5zM178 1005q0 21 42 58.5t65 37.5q13 0 13 -15q0 -21 55 -121.5t55 -146.5q0 -19 -23 -36t-35 -17q-6 0 -6 8
q0 25 -83 118.5t-83 113.5z" />
    <glyph glyph-name="eacute" unicode="&#xe9;" horiz-adv-x="552" 
d="M195 303q0 7 20 7q34 0 79 25.5t84.5 75t47.5 107.5q-53 -6 -115.5 -61t-106 -134t-43.5 -145q0 -43 19.5 -68t53.5 -25q52 0 124.5 59.5t136 141t108 146t59.5 93.5q16 30 33 30q12 0 20.5 -11t8.5 -26q0 -13 -6 -25q-8 -16 -35.5 -60.5t-83.5 -122t-116.5 -144
t-137 -116.5t-141.5 -50q-86 0 -157 73t-71 174q0 88 55.5 188.5t140.5 168.5t162 68q68 0 129.5 -49t61.5 -108q0 -65 -42 -126t-95 -94.5t-94 -33.5q-29 0 -64 16t-35 26zM366 713q-13 0 -38.5 18.5t-25.5 39.5q0 40 30.5 102t61 116.5t30.5 76.5q0 17 14 17
q26 0 72 -41.5t46 -64.5q0 -15 -28.5 -51.5t-63 -73t-63 -74.5t-28.5 -56q0 -9 -7 -9z" />
    <glyph glyph-name="ecircumflex" unicode="&#xea;" horiz-adv-x="552" 
d="M195 303q0 7 20 7q34 0 79 25.5t84.5 75t47.5 107.5q-53 -6 -115.5 -61t-106 -134t-43.5 -145q0 -43 19.5 -68t53.5 -25q52 0 124.5 59.5t136 141t108 146t59.5 93.5q16 30 33 30q12 0 20.5 -11t8.5 -26q0 -13 -6 -25q-8 -16 -35.5 -60.5t-83.5 -122t-116.5 -144
t-137 -116.5t-141.5 -50q-86 0 -157 73t-71 174q0 88 55.5 188.5t140.5 168.5t162 68q68 0 129.5 -49t61.5 -108q0 -65 -42 -126t-95 -94.5t-94 -33.5q-29 0 -64 16t-35 26zM218 894q0 13 19 24q36 17 94 96q64 90 87 90q12 0 27.5 -33t24.5 -78q21 -94 46 -111
q10 -7 10 -22q0 -26 -25.5 -57.5t-43.5 -31.5q-38 0 -73 180q-92 -145 -131 -145q-30 0 -35 88z" />
    <glyph glyph-name="edieresis" unicode="&#xeb;" horiz-adv-x="552" 
d="M294 261q-29 0 -64 16t-35 26q0 7 20 7q34 0 79 25.5t84.5 75t47.5 107.5q-53 -6 -115.5 -61t-106 -134t-43.5 -145q0 -43 19.5 -68t53.5 -25q52 0 124.5 59.5t136 141t108 146t59.5 93.5q16 30 33 30q12 0 20.5 -11t8.5 -26q0 -13 -6 -25q-8 -16 -35.5 -60.5t-83.5 -122
t-116.5 -144t-137 -116.5t-141.5 -50q-86 0 -157 73t-71 174q0 88 55.5 188.5t140.5 168.5t162 68q68 0 129.5 -49t61.5 -108q0 -65 -42 -126t-95 -94.5t-94 -33.5zM437 873q0 28 16 50.5t36 22.5q33 0 62 -14.5t30 -31.5q0 -7 -8 -15q-12 -11 -23 -31.5t-11 -31.5
q0 -20 -33 -20q-30 0 -49.5 20t-19.5 51zM241 925q0 28 16 50.5t36 22.5q33 0 62 -14.5t30 -31.5q0 -7 -8 -15q-12 -11 -23 -31.5t-11 -31.5q0 -20 -33 -20q-30 0 -49.5 20t-19.5 51z" />
    <glyph glyph-name="igrave" unicode="&#xec;" horiz-adv-x="351" 
d="M316 567q0 -15 -10 -15q-26 0 -93.5 -202t-67.5 -247q0 -11 3 -11q9 0 146 189t162 230q20 34 47 34q10 0 17.5 -6t6.5 -13q-1 -21 -87 -151.5t-178 -252.5t-109 -122q-79 0 -146.5 37t-67.5 83q0 63 90 307.5t122 244.5q44 0 104.5 -38t60.5 -67zM94 1005q0 21 42 58.5
t65 37.5q13 0 13 -15q0 -21 55 -121.5t55 -146.5q0 -19 -23 -36t-35 -17q-6 0 -6 8q0 25 -83 118.5t-83 113.5z" />
    <glyph glyph-name="iacute" unicode="&#xed;" horiz-adv-x="351" 
d="M456 511q20 34 47 34q10 0 17.5 -6t6.5 -13q-1 -21 -87 -151.5t-178 -252.5t-109 -122q-79 0 -146.5 37t-67.5 83q0 63 90 307.5t122 244.5q44 0 104.5 -38t60.5 -67q0 -15 -10 -15q-26 0 -93.5 -202t-67.5 -247q0 -11 3 -11q9 0 146 189t162 230zM354 1083
q26 0 72 -41.5t46 -64.5q0 -15 -28.5 -51.5t-63 -73t-63 -74.5t-28.5 -56q0 -9 -7 -9q-13 0 -38.5 18.5t-25.5 39.5q0 40 30.5 102t61 116.5t30.5 76.5q0 17 14 17z" />
    <glyph glyph-name="icircumflex" unicode="&#xee;" horiz-adv-x="351" 
d="M306 552q-26 0 -93.5 -202t-67.5 -247q0 -11 3 -11q9 0 146 189t162 230q20 34 47 34q10 0 17.5 -6t6.5 -13q-1 -21 -87 -151.5t-178 -252.5t-109 -122q-79 0 -146.5 37t-67.5 83q0 63 90 307.5t122 244.5q44 0 104.5 -38t60.5 -67q0 -15 -10 -15zM153 918q36 17 94 96
q64 90 87 90q19 0 54 -120q27 -91 44 -102q10 -7 10 -22q0 -26 -25.5 -57.5t-43.5 -31.5q-38 0 -73 180q-92 -145 -131 -145q-30 0 -35 88q0 13 19 24z" />
    <glyph glyph-name="idieresis" unicode="&#xef;" horiz-adv-x="351" 
d="M148 92q9 0 146 189t162 230q20 34 47 34q10 0 17.5 -6t6.5 -13q-1 -21 -87 -151.5t-178 -252.5t-109 -122q-79 0 -146.5 37t-67.5 83q0 63 90 307.5t122 244.5q44 0 104.5 -38t60.5 -67q0 -15 -10 -15q-26 0 -93.5 -202t-67.5 -247q0 -11 3 -11zM353 873q0 28 16 50.5
t36 22.5q33 0 62 -14.5t30 -31.5q0 -7 -8 -15q-12 -11 -23 -31.5t-11 -31.5q0 -20 -33 -20q-30 0 -49.5 20t-19.5 51zM157 925q0 28 16 50.5t36 22.5q33 0 62 -14.5t30 -31.5q0 -7 -8 -15q-12 -11 -23 -31.5t-11 -31.5q0 -20 -33 -20q-30 0 -49.5 20t-19.5 51z" />
    <glyph glyph-name="ntilde" unicode="&#xf1;" horiz-adv-x="706" 
d="M164 672q39 0 107 -29.5t68 -55.5q0 -11 -8 -11q-22 0 -65.5 -90t-82.5 -206q82 143 184.5 267.5t145.5 124.5q29 0 103 -39t74 -65q0 -8 -6.5 -15.5t-13.5 -7.5q-23 0 -64.5 -85t-73 -191t-31.5 -160q0 -17 3 -17q9 0 145.5 193.5t161.5 235.5q22 35 48 35q10 0 17.5 -6
t6.5 -13q-2 -34 -174 -285.5t-196 -251.5q-77 0 -144.5 35t-67.5 74q0 69 33.5 181t76.5 203q-101 -127 -185.5 -274t-84.5 -198q0 -21 -18 -21q-38 0 -109.5 41.5t-71.5 87.5q0 38 41.5 169.5t96 252.5t84.5 121zM210 934q0 35 33.5 58t83.5 23t109 -35t94 -35q42 0 42 22
q0 16 -33.5 31t-33.5 21q0 11 24 11q31 0 58.5 -27.5t27.5 -59.5t-32 -53.5t-81 -21.5q-32 0 -61 11t-47.5 23.5t-44 23.5t-49.5 11q-45 0 -45 -23q0 -16 32 -29t32 -22q0 -10 -21 -10q-33 0 -60.5 24.5t-27.5 56.5z" />
    <glyph glyph-name="ograve" unicode="&#xf2;" 
d="M302 682q79 0 155 -42.5t76 -87.5q0 -14 -8 -23t-16 -9q-4 0 -8 2q6 -27 6 -64q0 -20 -1 -30q60 0 112 31.5t75 82.5q14 31 33 31q23 0 23 -34q0 -61 -81 -115.5t-170 -54.5q-29 -143 -126 -256t-198 -113q-78 0 -134.5 67.5t-56.5 162.5q0 90 52 197.5t128 181t139 73.5
zM318 500q-58 -61 -99.5 -159.5t-41.5 -180.5q0 -75 42 -75q55 0 121 93.5t93 201.5q-47 15 -78.5 47.5t-36.5 72.5zM210 1005q0 21 42 58.5t65 37.5q13 0 13 -15q0 -21 55 -121.5t55 -146.5q0 -19 -23 -36t-35 -17q-6 0 -6 8q0 25 -83 118.5t-83 113.5zM393 501
q0 -41 50 -62q1 10 1 28q0 68 -27 68q-10 0 -17 -9.5t-7 -24.5z" />
    <glyph glyph-name="oacute" unicode="&#xf3;" 
d="M302 682q79 0 155 -42.5t76 -87.5q0 -14 -8 -23t-16 -9q-4 0 -8 2q6 -27 6 -64q0 -20 -1 -30q60 0 112 31.5t75 82.5q14 31 33 31q23 0 23 -34q0 -61 -81 -115.5t-170 -54.5q-29 -143 -126 -256t-198 -113q-78 0 -134.5 67.5t-56.5 162.5q0 90 52 197.5t128 181t139 73.5
zM318 500q-58 -61 -99.5 -159.5t-41.5 -180.5q0 -75 42 -75q55 0 121 93.5t93 201.5q-47 15 -78.5 47.5t-36.5 72.5zM398 713q-13 0 -38.5 18.5t-25.5 39.5q0 40 30.5 102t61 116.5t30.5 76.5q0 17 14 17q26 0 72 -41.5t46 -64.5q0 -15 -28.5 -51.5t-63 -73t-63 -74.5
t-28.5 -56q0 -9 -7 -9zM417 535q-10 0 -17 -9.5t-7 -24.5q0 -41 50 -62q1 10 1 28q0 68 -27 68z" />
    <glyph glyph-name="ocircumflex" unicode="&#xf4;" 
d="M302 682q79 0 155 -42.5t76 -87.5q0 -14 -8 -23t-16 -9q-4 0 -8 2q6 -27 6 -64q0 -20 -1 -30q60 0 112 31.5t75 82.5q14 31 33 31q23 0 23 -34q0 -61 -81 -115.5t-170 -54.5q-29 -143 -126 -256t-198 -113q-78 0 -134.5 67.5t-56.5 162.5q0 90 52 197.5t128 181t139 73.5
zM318 500q-58 -61 -99.5 -159.5t-41.5 -180.5q0 -75 42 -75q55 0 121 93.5t93 201.5q-47 15 -78.5 47.5t-36.5 72.5zM250 894q0 13 19 24q36 17 94 96q64 90 87 90q19 0 54 -120q27 -91 44 -102q10 -7 10 -22q0 -26 -25.5 -57.5t-43.5 -31.5q-38 0 -73 180
q-92 -145 -131 -145q-30 0 -35 88zM417 535q-10 0 -17 -9.5t-7 -24.5q0 -41 50 -62q1 10 1 28q0 68 -27 68z" />
    <glyph glyph-name="otilde" unicode="&#xf5;" 
d="M498 369q-29 -143 -126 -256t-198 -113q-78 0 -134.5 67.5t-56.5 162.5q0 90 52 197.5t128 181t139 73.5q79 0 155 -42.5t76 -87.5q0 -14 -8 -23t-16 -9q-4 0 -8 2q6 -27 6 -64q0 -20 -1 -30q60 0 112 31.5t75 82.5q14 31 33 31q23 0 23 -34q0 -61 -81 -115.5t-170 -54.5
zM177 160q0 -75 42 -75q55 0 121 93.5t93 201.5q-47 15 -78.5 47.5t-36.5 72.5q-58 -61 -99.5 -159.5t-41.5 -180.5zM254 937q-45 0 -45 -23q0 -16 32 -29t32 -22q0 -10 -21 -10q-33 0 -60.5 24.5t-27.5 56.5q0 35 33.5 58t83.5 23t109 -35t94 -35q42 0 42 22q0 16 -33.5 31
t-33.5 21q0 11 24 11q31 0 58.5 -27.5t27.5 -59.5t-32 -53.5t-81 -21.5q-32 0 -61 11t-47.5 23.5t-44 23.5t-49.5 11zM417 535q-10 0 -17 -9.5t-7 -24.5q0 -41 50 -62q1 10 1 28q0 68 -27 68z" />
    <glyph glyph-name="odieresis" unicode="&#xf6;" 
d="M302 682q79 0 155 -42.5t76 -87.5q0 -14 -8 -23t-16 -9q-4 0 -8 2q6 -27 6 -64q0 -20 -1 -30q60 0 112 31.5t75 82.5q14 31 33 31q23 0 23 -34q0 -61 -81 -115.5t-170 -54.5q-29 -143 -126 -256t-198 -113q-78 0 -134.5 67.5t-56.5 162.5q0 90 52 197.5t128 181t139 73.5
zM318 500q-58 -61 -99.5 -159.5t-41.5 -180.5q0 -75 42 -75q55 0 121 93.5t93 201.5q-47 15 -78.5 47.5t-36.5 72.5zM342 854q-30 0 -49.5 20t-19.5 51q0 28 16 50.5t36 22.5q33 0 62 -14.5t30 -31.5q0 -7 -8 -15q-12 -11 -23 -31.5t-11 -31.5q0 -20 -33 -20zM469 873
q0 28 16 50.5t36 22.5q33 0 62 -14.5t30 -31.5q0 -7 -8 -15q-12 -11 -23 -31.5t-11 -31.5q0 -20 -33 -20q-30 0 -49.5 20t-19.5 51zM417 535q-10 0 -17 -9.5t-7 -24.5q0 -41 50 -62q1 10 1 28q0 68 -27 68z" />
    <glyph glyph-name="oslash" unicode="&#xf8;" 
d="M220 -136q0 -47 -23 -47q-28 0 -28 68q0 42 13 115q-85 0 -142 67t-57 162q0 91 52 198.5t127.5 181t139.5 73.5q57 0 119 -25q66 127 90 127q7 0 12 -11t5 -27q0 -35 -29 -81q-8 -13 -21 -39q55 -37 55 -74q0 -14 -8 -23t-16 -9q-4 0 -8 2q6 -27 6 -64q0 -20 -1 -30
q60 0 112 31.5t75 82.5q14 31 33 31q23 0 23 -34q0 -61 -81 -115.5t-170 -54.5q-23 -114 -93.5 -214.5t-154.5 -137.5q-30 -108 -30 -153zM177 160q0 -59 25 -71q41 162 128 372q-9 19 -12 39q-58 -61 -99.5 -159.5t-41.5 -180.5zM385 403q-63 -157 -107 -292
q47 37 91.5 113.5t63.5 155.5q-30 10 -48 23zM434 523q-12 -26 -25 -61q12 -14 34 -23q1 10 1 28q0 38 -10 56z" />
    <glyph glyph-name="ugrave" unicode="&#xf9;" horiz-adv-x="702" 
d="M310 182q-102 -182 -173 -182q-46 0 -120 49t-74 89q0 33 44.5 162.5t102 250.5t86.5 121q47 0 108.5 -29.5t61.5 -52.5q0 -11 -9 -11q-20 0 -70 -104t-92.5 -231t-42.5 -183q16 6 38 31.5t52 75t51.5 87.5t58.5 108q40 74 63.5 115.5t55.5 93.5t55 75.5t39 23.5
q27 0 85 -39t58 -68q0 -7 -4.5 -13t-9.5 -6q-22 0 -65 -86t-77.5 -192t-34.5 -159q0 -16 3 -16q9 0 145 194.5t162 236.5q22 35 48 35q10 0 17 -5.5t7 -13.5q-2 -21 -87.5 -154.5t-177 -259t-107.5 -125.5q-77 0 -140.5 35t-63.5 74q0 35 7 73zM255 1005q0 21 42 58.5
t65 37.5q13 0 13 -15q0 -21 55 -121.5t55 -146.5q0 -19 -23 -36t-35 -17q-6 0 -6 8q0 25 -83 118.5t-83 113.5z" />
    <glyph glyph-name="uacute" unicode="&#xfa;" horiz-adv-x="702" 
d="M310 182q-102 -182 -173 -182q-46 0 -120 49t-74 89q0 33 44.5 162.5t102 250.5t86.5 121q47 0 108.5 -29.5t61.5 -52.5q0 -11 -9 -11q-20 0 -70 -104t-92.5 -231t-42.5 -183q16 6 38 31.5t52 75t51.5 87.5t58.5 108q40 74 63.5 115.5t55.5 93.5t55 75.5t39 23.5
q27 0 85 -39t58 -68q0 -7 -4.5 -13t-9.5 -6q-22 0 -65 -86t-77.5 -192t-34.5 -159q0 -16 3 -16q9 0 145 194.5t162 236.5q22 35 48 35q10 0 17 -5.5t7 -13.5q-2 -21 -87.5 -154.5t-177 -259t-107.5 -125.5q-77 0 -140.5 35t-63.5 74q0 35 7 73zM443 713q-13 0 -38.5 18.5
t-25.5 39.5q0 40 30.5 102t61 116.5t30.5 76.5q0 17 14 17q26 0 72 -41.5t46 -64.5q0 -19 -45.5 -71.5t-91.5 -107t-46 -76.5q0 -9 -7 -9z" />
    <glyph glyph-name="ucircumflex" unicode="&#xfb;" horiz-adv-x="702" 
d="M310 182q-102 -182 -173 -182q-46 0 -120 49t-74 89q0 33 44.5 162.5t102 250.5t86.5 121q47 0 108.5 -29.5t61.5 -52.5q0 -11 -9 -11q-20 0 -70 -104t-92.5 -231t-42.5 -183q16 6 38 31.5t52 75t51.5 87.5t58.5 108q40 74 63.5 115.5t55.5 93.5t55 75.5t39 23.5
q27 0 85 -39t58 -68q0 -7 -4.5 -13t-9.5 -6q-22 0 -65 -86t-77.5 -192t-34.5 -159q0 -16 3 -16q9 0 145 194.5t162 236.5q22 35 48 35q10 0 17 -5.5t7 -13.5q-2 -21 -87.5 -154.5t-177 -259t-107.5 -125.5q-77 0 -140.5 35t-63.5 74q0 35 7 73zM295 894q0 13 19 24
q36 17 94 96q64 90 87 90q19 0 54 -120q27 -91 44 -102q10 -7 10 -22q0 -26 -25.5 -57.5t-43.5 -31.5q-38 0 -73 180q-92 -145 -131 -145q-30 0 -35 88z" />
    <glyph glyph-name="udieresis" unicode="&#xfc;" horiz-adv-x="702" 
d="M310 182q-102 -182 -173 -182q-46 0 -120 49t-74 89q0 33 44.5 162.5t102 250.5t86.5 121q47 0 108.5 -29.5t61.5 -52.5q0 -11 -9 -11q-20 0 -70 -104t-92.5 -231t-42.5 -183q16 6 38 31.5t52 75t51.5 87.5t58.5 108q40 74 63.5 115.5t55.5 93.5t55 75.5t39 23.5
q27 0 85 -39t58 -68q0 -7 -4.5 -13t-9.5 -6q-22 0 -65 -86t-77.5 -192t-34.5 -159q0 -16 3 -16q9 0 145 194.5t162 236.5q22 35 48 35q10 0 17 -5.5t7 -13.5q-2 -21 -87.5 -154.5t-177 -259t-107.5 -125.5q-77 0 -140.5 35t-63.5 74q0 35 7 73zM583 802q-30 0 -49.5 20
t-19.5 51q0 28 16 50.5t36 22.5q33 0 62 -14.5t30 -31.5q0 -7 -8 -15q-12 -11 -23 -31.5t-11 -31.5q0 -20 -33 -20zM387 854q-30 0 -49.5 20t-19.5 51q0 28 16 50.5t36 22.5q33 0 62 -14.5t30 -31.5q0 -7 -8 -15q-12 -11 -23 -31.5t-11 -31.5q0 -20 -33 -20z" />
    <glyph glyph-name="yacute" unicode="&#xfd;" horiz-adv-x="691" 
d="M-40 -145q8 0 14.5 -11.5t6.5 -31.5q0 -45 30.5 -79t74.5 -34q60 0 116.5 65t91 167.5t34.5 208.5q0 27 3 54q-120 -194 -195 -194q-45 0 -118 49t-73 89q0 56 90 295t125 239q46 0 113.5 -31t67.5 -54q0 -8 -7 -8q-19 0 -68 -104.5t-91 -231.5t-42 -183q31 11 78 86.5
t123 217.5q38 72 62 115t55.5 93.5t55 75t40.5 24.5q26 0 86 -38t60 -63q0 -16 -11 -16q-30 0 -119 -315q-84 -295 -133 -390q-53 -100 -148 -157.5t-183 -57.5q-77 0 -121.5 44t-44.5 113q0 30 8 46.5t19 16.5zM364 771q0 40 30.5 102t61 116.5t30.5 76.5q0 17 14 17
q26 0 72 -41.5t46 -64.5q0 -15 -28.5 -51.5t-63 -73t-63 -74.5t-28.5 -56q0 -9 -7 -9q-13 0 -38.5 18.5t-25.5 39.5z" />
    <glyph glyph-name="ydieresis" unicode="&#xff;" horiz-adv-x="691" 
d="M-40 -145q8 0 14.5 -11.5t6.5 -31.5q0 -45 30.5 -79t74.5 -34q60 0 116.5 65t91 167.5t34.5 208.5q0 27 3 54q-120 -194 -195 -194q-45 0 -118 49t-73 89q0 56 90 295t125 239q46 0 113.5 -31t67.5 -54q0 -8 -7 -8q-19 0 -68 -104.5t-91 -231.5t-42 -183q31 11 78 86.5
t123 217.5q38 72 62 115t55.5 93.5t55 75t40.5 24.5q26 0 86 -38t60 -63q0 -16 -11 -16q-30 0 -119 -315q-84 -295 -133 -390q-53 -100 -148 -157.5t-183 -57.5q-77 0 -121.5 44t-44.5 113q0 30 8 46.5t19 16.5zM568 802q-30 0 -49.5 20t-19.5 51q0 28 16 50.5t36 22.5
q33 0 62 -14.5t30 -31.5q0 -7 -8 -15q-12 -11 -23 -31.5t-11 -31.5q0 -20 -33 -20zM303 925q0 28 16 50.5t36 22.5q33 0 62 -14.5t30 -31.5q0 -7 -8 -15q-12 -11 -23 -31.5t-11 -31.5q0 -20 -33 -20q-30 0 -49.5 20t-19.5 51z" />
    <glyph glyph-name="dotlessi" unicode="&#x131;" horiz-adv-x="351" 
d="M316 567q0 -15 -10 -15q-26 0 -93.5 -202t-67.5 -247q0 -11 3 -11q9 0 146 189t162 230q20 34 47 34q10 0 17.5 -6t6.5 -13q-1 -21 -87 -151.5t-178 -252.5t-109 -122q-79 0 -146.5 37t-67.5 83q0 63 90 307.5t122 244.5q44 0 104.5 -38t60.5 -67z" />
    <glyph glyph-name="Lslash" unicode="&#x141;" horiz-adv-x="1017" 
d="M398 470q-4 -4 -7 -4q-11 0 -11 20t13 46t27 40q31 29 160 79q116 309 163 484q-123 -42 -255 -152t-220.5 -244t-88.5 -238q0 -62 31 -98t82 -36q43 0 43 -21q0 -11 -17 -18.5t-47 -7.5q-82 0 -133.5 62t-51.5 160q0 89 44 193t118.5 197.5t164 171.5t188.5 124.5
t183 46.5q68 0 129 -46t61 -90q0 -61 -122 -399q71 19 91 19q24 0 24 -27q0 -15 -9 -37.5t-18 -26.5q-2 -1 -8 -1q-24 0 -118 -30q-114 -306 -207 -514q135 -15 249 -62.5t178 -112.5t64 -132q0 -34 -15 -81t-38.5 -82t-42.5 -34q-17 0 -17 36q0 111 -124 212.5t-309 137.5
q-15 -27 -21 -37q-39 -62 -103.5 -95.5t-134.5 -33.5q-71 0 -114.5 32t-43.5 85q0 61 61 104t167 60q76 162 175 418q-119 -48 -140 -68zM200 -38q0 -11 8.5 -19t20.5 -8q23 0 48 29q15 18 33 51q-110 -15 -110 -53z" />
    <glyph glyph-name="lslash" unicode="&#x142;" horiz-adv-x="344" 
d="M492 919q-33 0 -124 -186q87 26 115 26q27 0 27 -27q0 -15 -9 -37.5t-18 -26.5q-3 -1 -6 -1q-29 1 -160 -43q-71 -159 -125 -313t-54 -205q0 -14 3 -14q9 0 146 189t162 229q20 34 47 34q10 0 17.5 -6t6.5 -13q-1 -21 -86.5 -151t-177.5 -252t-109 -122q-79 0 -141.5 38
t-62.5 88q0 80 125 407q-103 -42 -127 -63q-4 -4 -8 -4q-10 0 -10 20t13 46t27 40q30 28 149 74q70 170 128.5 280.5t87.5 110.5q24 0 102 -37.5t78 -62.5q0 -6 -5 -12t-11 -6z" />
    <glyph glyph-name="OE" unicode="&#x152;" horiz-adv-x="2105" 
d="M2261 525q0 -14 -7 -28q-131 -263 -314.5 -421t-365.5 -158q-121 0 -228 67.5t-158 171.5q-108 -110 -236.5 -174.5t-248.5 -64.5q-152 0 -257 99t-126 251q-16 -8 -46 -8q-83 0 -135.5 68t-52.5 177q0 103 48.5 212t133.5 202.5t191.5 168.5t232 118.5t244.5 43.5
q226 0 367 -146t141 -371q0 -42 -4 -74q90 35 186 45q-119 74 -119 167q0 70 62 151t157.5 137.5t182.5 56.5t151 -53.5t64 -126.5q0 -65 -48.5 -130.5t-93.5 -65.5q-29 0 -75 25t-46 38q0 7 8 7q29 0 84.5 72t59.5 128q-63 -3 -132.5 -43t-115.5 -97.5t-46 -107.5
q0 -54 50.5 -101t111.5 -72q45 -18 91 -28q19 -5 36.5 -32t17.5 -52q0 -19 -10 -19q-9 0 -32 9q-52 20 -136 20q-133 0 -256.5 -51t-200.5 -139t-77 -187q0 -86 59 -133t167 -47q177 0 348 124t288 334q21 39 33.5 53t24.5 14t19.5 -8.5t7.5 -21.5zM1307 812
q0 121 -85 197.5t-238 76.5q-68 0 -137 -15q30 -22 48.5 -47.5t18.5 -46.5q0 -15 -12 -26q-15 -13 -62.5 -63t-117 -135t-132 -176t-107.5 -193t-45 -178q0 -85 37.5 -130t107.5 -45q93 0 220.5 78t238 192t188 255t77.5 256zM595 975q-177 -96 -296.5 -238.5t-119.5 -272.5
q0 -68 33 -112t83 -44q13 0 21 -3q0 141 79.5 332.5t199.5 337.5z" />
    <glyph glyph-name="oe" unicode="&#x153;" horiz-adv-x="988" 
d="M302 682q79 0 155 -42.5t76 -87.5q0 -14 -8 -23t-16 -9q-4 0 -8 2q2 -10 4 -29q56 79 128 129t137 50q68 0 129.5 -49t61.5 -109q0 -65 -42 -125.5t-95 -94t-94 -33.5q-29 0 -64 16t-35 26q0 7 20 7q34 0 79 25.5t84.5 75t47.5 107.5q-53 -6 -115.5 -61t-106 -134
t-43.5 -145q0 -43 19.5 -68t53.5 -25q52 0 124.5 59.5t136 141t108 146t59.5 93.5q16 30 33 30q12 0 20.5 -11t8.5 -26q0 -13 -6 -25q-8 -16 -35.5 -60.5t-83.5 -122t-116.5 -144t-136.5 -116.5t-141 -50q-71 0 -134.5 51t-85.5 129q-51 -81 -116.5 -130.5t-130.5 -49.5
q-78 0 -134.5 67.5t-56.5 162.5q0 90 52 197.5t128 181t139 73.5zM318 500q-58 -61 -99.5 -159.5t-41.5 -180.5q0 -75 42 -75q55 0 120.5 93t92.5 200q-47 14 -78.5 47.5t-35.5 74.5zM393 501q0 -41 50 -62q1 10 1 28q0 68 -27 68q-10 0 -17 -9.5t-7 -24.5z" />
    <glyph glyph-name="Scaron" unicode="&#x160;" horiz-adv-x="934" 
d="M139 198q7 0 14 -5.5t7 -14.5q0 -8 -8 -30q-19 -52 -19 -96q0 -104 91 -104q87 0 187.5 43.5t169 107.5t68.5 118q0 23 -12 43t-40 40t-50.5 32.5t-65.5 34.5q-41 21 -60.5 32t-56 33t-55.5 41t-41 46t-31.5 58t-9.5 67q0 108 86.5 239.5t215.5 223t240 91.5
q103 0 177 -77.5t74 -185.5q0 -75 -34 -167.5t-91 -160t-113 -67.5q-39 0 -113 24t-74 41q0 10 20 10q55 0 122 74t112.5 179.5t45.5 190.5q-103 0 -212.5 -70.5t-180 -176t-70.5 -202.5q0 -36 12 -66.5t27 -51t45.5 -43t50 -34t57.5 -31.5q48 -26 71 -40.5t55 -41.5
t46 -59.5t14 -73.5q0 -93 -74 -183t-191 -145t-237 -55q-118 0 -187 54.5t-69 143.5q0 64 31 139t56 75zM762 1508q-11 7 -11 22q0 26 26 57t44 31q38 0 73 -179q92 145 130 145q18 0 26.5 -27.5t8.5 -60.5q0 -14 -19 -24q-38 -22 -93 -96q-21 -30 -48 -60t-39 -30t-24 28.5
t-30 87.5q-27 95 -44 106z" />
    <glyph glyph-name="scaron" unicode="&#x161;" horiz-adv-x="508" 
d="M351 64q0 -47 -50 -99t-112.5 -83.5t-104.5 -31.5q-55 0 -115.5 49t-60.5 113q0 107 188 192q13 6 45 22q-50 56 -81 113.5t-31 94.5q0 50 53 118t125.5 117.5t124.5 49.5q56 0 118.5 -49t62.5 -110q0 -41 -24 -41q-15 0 -15 17q0 12 -13 21.5t-29 9.5q-31 0 -84 -36.5
t-94 -85t-41 -78.5q0 -25 35 -84q106 59 221 131t163 107q33 26 49 26q10 0 17.5 -7.5t7.5 -18.5q0 -22 -23 -39q-44 -32 -166.5 -110t-235.5 -143q70 -118 70 -165zM225 1030q0 26 26 57t44 31q38 0 73 -179q92 145 130 145q18 0 26.5 -27.5t8.5 -60.5q0 -14 -19 -24
q-38 -22 -93 -96q-21 -30 -48 -60t-39 -30t-24 28.5t-30 87.5q-27 95 -44 106q-11 7 -11 22zM-5 -19q48 0 121.5 49.5t73.5 94.5q0 19 -14 45q-19 -10 -53 -27q-84 -41 -123 -76.5t-39 -59.5q0 -26 34 -26z" />
    <glyph glyph-name="Ydieresis" unicode="&#x178;" horiz-adv-x="1273" 
d="M616 444q0 -85 55 -85q53 0 136 95t158 227.5t129.5 285.5t54.5 257q0 32 27 32q44 0 123 -67t79 -101q0 -75 -70.5 -290t-173.5 -468q34 0 53 -8.5t19 -19.5t-19.5 -19.5t-56.5 -8.5q-12 0 -19 -1q-164 -394 -275 -569q-37 -58 -101 -93.5t-132 -35.5q-93 0 -152 67
t-59 175q0 167 139 300t360 185q79 184 146 368q-96 -178 -206 -288t-219 -110q-82 0 -133 61.5t-51 161.5q0 115 37 262t87 247q-151 -71 -262 -213.5t-111 -278.5q0 -69 31 -107t82 -38q43 0 43 -21q0 -11 -17 -18.5t-47 -7.5q-83 0 -134 64.5t-51 175.5q0 108 51.5 219.5
t132.5 197t187 139.5t209 54q56 0 117.5 -44t61.5 -84q0 -13 -7.5 -24t-15.5 -11q-23 0 -73 -108t-91.5 -245.5t-41.5 -209.5zM862 235q-180 -54 -292.5 -165t-112.5 -243q0 -64 24.5 -106t49.5 -42q43 0 133.5 156t197.5 400zM1160 1566q33 0 62 -14.5t30 -31.5
q0 -7 -8 -15q-12 -11 -23 -31.5t-11 -31.5q0 -20 -33 -20q-30 0 -49.5 20t-19.5 51q0 28 16 50.5t36 22.5zM981 1474q-30 0 -49.5 20t-19.5 51q0 28 16 50.5t36 22.5q33 0 62 -14.5t30 -31.5q0 -7 -8 -15q-12 -11 -23 -31.5t-11 -31.5q0 -20 -33 -20z" />
    <glyph glyph-name="Zcaron" unicode="&#x17d;" horiz-adv-x="970" 
d="M225 433q0 6 25 28q111 95 302.5 302.5t262.5 324.5q-178 -18 -331 -71t-244.5 -128.5t-91.5 -154.5q0 -48 31.5 -81t80.5 -33q43 0 43 -21q0 -10 -16.5 -18t-46.5 -8q-81 0 -133 57.5t-52 137.5q0 117 118 220.5t315.5 165.5t419.5 62q67 0 128.5 -45t61.5 -84
q0 -52 -133.5 -190.5t-364.5 -325.5q131 0 205 -45t74 -112q0 -27 -14 -77q33 0 52.5 -8.5t19.5 -18.5q0 -12 -26.5 -21t-63.5 -9q-49 -138 -140.5 -308t-177.5 -270q-49 -57 -125.5 -92t-149.5 -35q-99 0 -158.5 64.5t-59.5 167.5q0 114 77.5 217t204.5 174.5t284 107.5
q53 127 53 175q0 18 -16 18q-34 0 -113.5 -37.5t-113.5 -69.5q-14 -13 -29 -13q-34 0 -96 19.5t-62 34.5zM174 -321q36 0 89 53t108.5 137.5t107.5 180.5t95 190q-132 -37 -236.5 -100.5t-169 -151.5t-64.5 -184q0 -55 19.5 -90t50.5 -35zM984 1534q-38 -22 -93 -96
q-21 -30 -48 -60t-39 -30t-24 28.5t-30 87.5q-27 95 -44 106q-11 7 -11 22q0 26 26 57t44 31q38 0 73 -179q92 145 130 145q18 0 26.5 -27.5t8.5 -60.5q0 -14 -19 -24z" />
    <glyph glyph-name="zcaron" unicode="&#x17e;" horiz-adv-x="556" 
d="M251 -40q0 53 -62 85t-165 32q0 73 85.5 197.5t190.5 241.5q-47 -15 -104 -15q-50 0 -90 22t-40 51q0 16 23 16q95 0 167 30q126 52 171 52q40 0 102 -39t62 -65q0 -7 -5.5 -13.5t-10.5 -6.5q-24 0 -142 -141t-168 -229q82 0 138 -51t56 -113q0 -120 -106 -198t-269 -78
q-79 0 -126 42.5t-47 113.5q0 30 8 46.5t19 16.5q21 0 21 -44q0 -50 32.5 -81t84.5 -31q79 0 127 44t48 115zM311 1030q0 26 26 57t44 31q38 0 73 -179q92 145 130 145q18 0 26.5 -27.5t8.5 -60.5q0 -14 -19 -24q-38 -22 -93 -96q-21 -30 -48 -60t-39 -30t-24 28.5t-30 87.5
q-27 95 -44 106q-11 7 -11 22z" />
    <glyph glyph-name="circumflex" unicode="&#x2c6;" horiz-adv-x="963" 
d="M439 974q39 20 94 96q64 90 87 90q19 0 54 -119q27 -91 44 -103q10 -7 10 -22q0 -26 -26 -57t-43 -31q-38 0 -73 179q-92 -145 -131 -145q-30 0 -35 88q0 13 19 24z" />
    <glyph glyph-name="caron" unicode="&#x2c7;" horiz-adv-x="963" 
d="M709 1014q-38 -22 -93 -96q-21 -30 -48 -60t-39 -30t-24 28.5t-30 87.5q-27 95 -44 106q-11 7 -11 22q0 26 26 57t44 31q38 0 73 -179q92 145 130 145q18 0 26.5 -27.5t8.5 -60.5q0 -14 -19 -24z" />
    <glyph glyph-name="ring" unicode="&#x2da;" horiz-adv-x="458" 
d="M311 857q-47 0 -77 30t-30 77q0 64 51 116t114 52q46 0 75 -30t29 -78q0 -65 -49.5 -116t-112.5 -51zM273 971q0 -21 12 -32.5t32 -11.5q33 0 60 29t27 64q0 43 -41 43q-33 0 -61.5 -29.5t-28.5 -62.5z" />
    <glyph glyph-name="tilde" unicode="&#x2dc;" horiz-adv-x="1106" 
d="M396 1046q0 -16 32 -29t32 -22q0 -10 -21 -10q-33 0 -60.5 24.5t-27.5 56.5q0 35 33.5 58t83.5 23t109 -35t94 -35q42 0 42 22q0 16 -33.5 31t-33.5 21q0 11 24 11q31 0 58.5 -27.5t27.5 -59.5t-32 -53.5t-81 -21.5t-108 34.5t-94 34.5q-45 0 -45 -23z" />
    <glyph glyph-name="endash" unicode="&#x2013;" horiz-adv-x="1092" 
d="M1087 422q0 -22 -22 -68.5t-35 -46.5q-5 0 -9 2q-19 7 -195.5 11t-288.5 4q-138 0 -317.5 -8t-202.5 -19q-3 -1 -7 -1q-7 0 -7 10q0 22 27 68t49 55q28 12 185 19t277 7q66 0 143.5 -1t176 -4.5t162.5 -10.5t64 -17z" />
    <glyph glyph-name="emdash" unicode="&#x2014;" horiz-adv-x="1818" 
d="M1803 422q0 -22 -22 -68.5t-35 -46.5q-5 0 -9 2q-19 7 -329.5 11t-469.5 4q-179 0 -539.5 -8.5t-382.5 -18.5q-2 -1 -6 -1q-7 0 -7 10q0 23 28.5 69t55.5 58q22 9 358.5 15.5t498.5 6.5q77 0 194 -1t280 -4.5t274 -10.5t111 -17z" />
    <glyph glyph-name="quoteleft" unicode="&#x2018;" horiz-adv-x="529" 
d="M515 1300q27 0 60.5 -14.5t33.5 -26.5q0 -8 -18 -8q-59 0 -122.5 -77t-63.5 -175q0 -27 -35 -27q-30 0 -61 20.5t-31 40.5q0 65 42.5 129t97.5 101t97 37z" />
    <glyph glyph-name="quoteright" unicode="&#x2019;" horiz-adv-x="529" 
d="M482 1273q0 27 35 27q30 0 61 -20.5t31 -40.5q0 -65 -42.5 -129t-97.5 -101t-97 -37q-27 0 -60.5 14.5t-33.5 26.5q0 8 18 8q59 0 122.5 77t63.5 175z" />
    <glyph glyph-name="quotesinglbase" unicode="&#x201a;" horiz-adv-x="529" 
d="M124 125q0 27 35 27q30 0 61 -20.5t31 -40.5q0 -65 -42.5 -129t-97.5 -101t-97 -37q-27 0 -60.5 14.5t-33.5 26.5q0 8 18 8q59 0 122.5 77t63.5 175z" />
    <glyph glyph-name="quotedblleft" unicode="&#x201c;" horiz-adv-x="789" 
d="M538 1033q0 65 42.5 129t97.5 101t97 37q27 0 60.5 -14.5t33.5 -26.5q0 -8 -18 -8q-59 0 -122.5 -77t-63.5 -175q0 -27 -35 -27q-30 0 -61 20.5t-31 40.5zM405 999q0 -27 -35 -27q-30 0 -61 20.5t-31 40.5q0 65 42.5 129t97.5 101t97 37q27 0 60.5 -14.5t33.5 -26.5
q0 -8 -18 -8q-59 0 -122.5 -77t-63.5 -175z" />
    <glyph glyph-name="quotedblright" unicode="&#x201d;" horiz-adv-x="789" 
d="M538 1013q0 8 18 8q59 0 122.5 77t63.5 175q0 27 35 27q30 0 61 -20.5t31 -40.5q0 -65 -42.5 -129t-97.5 -101t-97 -37q-27 0 -60.5 14.5t-33.5 26.5zM296 1021q59 0 122.5 77t63.5 175q0 27 35 27q30 0 61 -20.5t31 -40.5q0 -65 -42.5 -129t-97.5 -101t-97 -37
q-27 0 -60.5 14.5t-33.5 26.5q0 8 18 8z" />
    <glyph glyph-name="quotedblbase" unicode="&#x201e;" horiz-adv-x="789" 
d="M180 -135q0 8 18 8q59 0 122.5 77t63.5 175q0 27 35 27q30 0 61 -20.5t31 -40.5q0 -65 -42.5 -129t-97.5 -101t-97 -37q-27 0 -60.5 14.5t-33.5 26.5zM-62 -127q59 0 122.5 77t63.5 175q0 27 35 27q30 0 61 -20.5t31 -40.5q0 -65 -42.5 -129t-97.5 -101t-97 -37
q-27 0 -60.5 14.5t-33.5 26.5q0 8 18 8z" />
    <glyph glyph-name="dagger" unicode="&#x2020;" horiz-adv-x="532" 
d="M586 585q-36 14 -179 14q-112 -283 -191.5 -515.5t-79.5 -297.5q0 -40 -22 -40t-61.5 34.5t-39.5 67.5q0 153 227 747q-157 -7 -187 -22q-5 -2 -9 -2q-7 0 -7 10q0 24 28 69.5t56 57.5q34 15 171 20q155 390 215 513q16 34 28 34q25 0 68 -47t43 -81q0 -16 -7 -21
q-29 -24 -180 -397q79 0 133.5 -7.5t60.5 -19.5q1 -2 1 -5q0 -22 -22 -68.5t-35 -46.5q-5 0 -11 3z" />
    <glyph glyph-name="bullet" unicode="&#x2022;" horiz-adv-x="913" 
d="M200 543q0 106 75 181.5t181 75.5t181.5 -75t75.5 -182t-75.5 -182t-181.5 -75t-181 75.5t-75 181.5z" />
    <glyph glyph-name="ellipsis" unicode="&#x2026;" horiz-adv-x="1524" 
d="M250 82q-15 -13 -28.5 -38.5t-13.5 -39.5q0 -26 -41 -26q-37 0 -62 25.5t-25 63.5q0 35 20 63.5t45 28.5q41 0 77.5 -18t37.5 -40q0 -9 -10 -19zM758 82q-15 -13 -28.5 -38.5t-13.5 -39.5q0 -26 -41 -26q-37 0 -62 25.5t-25 63.5q0 35 20 63.5t45 28.5q41 0 77.5 -18
t37.5 -40q0 -9 -10 -19zM1266 82q-15 -13 -28.5 -38.5t-13.5 -39.5q0 -26 -41 -26q-37 0 -62 25.5t-25 63.5q0 35 20 63.5t45 28.5q41 0 77.5 -18t37.5 -40q0 -9 -10 -19z" />
    <glyph glyph-name="guilsinglleft" unicode="&#x2039;" horiz-adv-x="1047" 
d="M841 280q0 -18 -39 -42.5t-59 -24.5q-13 0 -20 13q-17 28 -217 143q-198 114 -198 133q0 21 254 164q244 138 259 164q9 13 20 13q19 0 58.5 -24t39.5 -41q0 -49 -431 -275q333 -178 333 -223z" />
    <glyph glyph-name="guilsinglright" unicode="&#x203a;" horiz-adv-x="1046" 
d="M429 230q-7 -13 -26 -13q-20 0 -57.5 23.5t-37.5 39.5q0 45 433 274q-333 173 -333 221q0 17 37.5 42.5t57.5 25.5q15 0 25 -14q17 -25 212 -140q198 -117 198 -134q0 -25 -258 -167q-234 -129 -251 -158z" />
    <glyph glyph-name="Euro" unicode="&#x20ac;" horiz-adv-x="836" 
d="M274 372q0 -134 49.5 -212.5t131.5 -78.5q71 0 137.5 49.5t66.5 104.5q0 19 12 19q17 1 41 -27t24 -57q0 -60 -99 -115t-211 -55q-144 0 -235 98.5t-102 260.5q-89 -8 -109 -16q-6 0 -6 8q0 16 19.5 49.5t36.5 40.5q13 6 60 9q8 79 31 149q-77 -5 -91 -11q-3 -1 -6 -1
q-5 0 -5 7q0 17 20 50t36 40q17 7 87 12q78 152 215.5 246.5t291.5 94.5q75 0 120 -22.5t45 -60.5q0 -30 -25.5 -49.5t-50.5 -19.5q-19 0 -19 18q0 19 -19 30t-37 13.5t-36 2.5q-85 0 -166 -67.5t-135 -179.5q112 0 236.5 -8t124.5 -26q0 -9 -16.5 -40.5t-25.5 -32.5
q-7 0 -13 2q-28 10 -344 10q-23 -78 -30 -149q18 1 47 1q153 0 244.5 -9t91.5 -25q0 -11 -17.5 -43.5t-31.5 -32.5q-8 0 -23 6q-18 8 -129 12.5t-186 4.5z" />
    <glyph glyph-name="lessequal" unicode="&#x2264;" horiz-adv-x="1276" 
d="M1017 247q0 -18 -44 -44t-65 -26q-13 0 -22 13q-13 22 -112.5 69t-231.5 99q-121 46 -206.5 86.5t-85.5 54.5q0 8 26.5 24.5t87 44.5t107 48.5t134.5 58.5q87 37 139 60t115.5 52.5t97 49t39.5 30.5q7 12 21 12q21 0 65 -26t44 -43q0 -50 -449 -234q-84 -34 -174 -74
q242 -92 378 -159.5t136 -95.5zM652 86q322 0 335 -28q1 -2 1 -5q0 -21 -21.5 -59t-35.5 -38q-5 0 -11 3q-37 14 -279 14q-407 0 -461 -26q-5 -2 -9 -2q-7 0 -7 10q0 21 26 58t49 47q58 26 413 26z" />
    <glyph glyph-name="greaterequal" unicode="&#x2265;" horiz-adv-x="1276" 
d="M359 177q-21 0 -65 26t-44 43q0 29 131.5 94t317.5 140q71 28 174 74q-57 28 -139 59q-150 55 -262.5 110.5t-112.5 84.5q0 18 43.5 44.5t65.5 26.5q13 0 22 -13q13 -22 112.5 -69t231.5 -99q121 -46 206.5 -86.5t85.5 -54.5q0 -8 -26.5 -24.5t-87 -44.5t-107 -48.5
t-134.5 -58.5q-87 -37 -139 -60t-115.5 -52.5t-97 -49t-39.5 -30.5q-7 -12 -21 -12zM565 86q355 0 413 -26q23 -10 49 -47t26 -58q0 -10 -7 -10q-4 0 -9 2q-54 26 -461 26q-232 0 -269 -14q-6 -3 -11 -3q-14 0 -35.5 38t-21.5 59q0 3 1 5q13 28 325 28z" />
    <glyph glyph-name="r.1" unicode="&#xe000;" 
d="M749 532q-1 -21 -87 -153t-178 -255.5t-109 -123.5q-77 0 -140.5 35t-63.5 74q0 70 37 192t82 203q-33 -25 -54 -25t-65 19q-74 -111 -127 -178t-65 -67q-6 0 -13 10t-7 23q0 20 16 39q54 70 138 204q-59 38 -59 75q0 70 37 142t77 72q32 0 98.5 -30t66.5 -55
q0 -8 -6 -14.5t-15 -6.5q-26 0 -45.5 -56.5t-22.5 -107.5q33 11 54 29t28 33.5t19 27t32 11.5q30 0 100 -39t70 -67q0 -7 -5 -14t-13 -7q-25 0 -64.5 -85t-68.5 -186t-29 -147q0 -16 3 -16q9 0 145.5 193.5t161.5 234.5q22 35 48 35q10 0 17.5 -6t6.5 -13z" />
    <glyph glyph-name="r.2" unicode="&#xe001;" 
d="M749 532q-1 -21 -87 -153t-178 -255.5t-109 -123.5q-77 0 -140.5 35t-63.5 74q0 70 37 192t82 203q-33 -25 -54 -25q-37 0 -109.5 41t-72.5 84q0 70 37 142t77 72q31 0 97 -30t66 -54q0 -7 -5.5 -14.5t-13.5 -7.5q-23 0 -44 -58.5t-24 -105.5q33 11 54 29t28 33.5t19 27
t32 11.5q30 0 101.5 -38.5t71.5 -66.5q0 -8 -5.5 -15t-11.5 -7q-19 0 -59.5 -84.5t-73.5 -186.5t-33 -147q0 -16 3 -16q9 0 145.5 193.5t161.5 234.5q22 35 48 35q10 0 17.5 -6t6.5 -13z" />
    <glyph glyph-name="a.3" unicode="&#xe002;" horiz-adv-x="1208" 
d="M538 110q0 -44 22 -68t63 -24q79 0 182.5 82t176.5 193.5t73 191.5q0 53 -32 96t-82 43q-19 0 -30 6.5t-11 14.5q0 11 16 19t45 8q87 0 137 -73t50 -192q0 -204 -140 -339t-350 -135q-143 0 -229 65.5t-86 174.5q0 19 1 29q-52 -96 -97 -149t-87 -53q-44 0 -119 46.5
t-75 77.5q0 128 50 257.5t125 210t145 80.5q46 0 118 -25.5t81 -56.5q54 82 83 82q27 0 96.5 -39t69.5 -65q0 -8 -6.5 -15t-15.5 -7q-29 0 -71.5 -85.5t-72.5 -190t-30 -160.5zM476 576q-77 0 -151.5 -72t-122 -192.5t-47.5 -250.5q31 11 80 89.5t120 212.5q69 132 121 213z
" />
    <glyph glyph-name="c.3" unicode="&#xe003;" horiz-adv-x="892" 
d="M-24 250q0 90 52.5 189.5t134.5 166t160 66.5q71 0 131.5 -50t60.5 -108q0 -20 -7.5 -30.5t-17.5 -10.5q-14 0 -14 15q0 14 -14.5 22.5t-36.5 8.5q-53 0 -115 -52t-105.5 -133.5t-43.5 -157.5q0 -69 36 -113.5t91 -44.5q81 0 192 94.5t188.5 210.5t77.5 179
q0 42 -33 82.5t-82 40.5q-40 0 -40 21q0 11 15.5 18.5t44.5 7.5q87 0 137.5 -68.5t50.5 -171.5q0 -125 -75 -241.5t-193 -187t-241 -70.5q-145 0 -249.5 93.5t-104.5 223.5z" />
    <glyph glyph-name="d.3" unicode="&#xe004;" horiz-adv-x="1189" 
d="M456 576q-71 0 -141 -72.5t-115 -193t-45 -249.5q16 5 36.5 26.5t46.5 64.5t48 82t56.5 108t55 111.5t58.5 122.5zM325 169q-98 -169 -165 -169q-44 0 -119 46.5t-75 77.5q0 129 50.5 258t128.5 209.5t155 80.5q39 0 92.5 -20.5t78.5 -42.5q32 68 52.5 110t48.5 98.5
t47 90t39.5 66.5t35.5 48t26 15q25 0 102 -37t77 -62q0 -13 -12 -13q-33 0 -123.5 -178.5t-167 -380.5t-76.5 -264q0 -84 79 -84q81 0 186 82t178 193.5t73 191.5q0 53 -32 96t-82 43q-19 0 -30 6.5t-11 14.5q0 11 16 19t45 8q87 0 137 -73t50 -192q0 -204 -140 -339
t-350 -135q-143 0 -228.5 65t-85.5 171z" />
    <glyph glyph-name="e.3" unicode="&#xe005;" horiz-adv-x="892" 
d="M426 518q-56 -6 -122.5 -68t-106.5 -143q6 3 18 3q34 0 79 25.5t84.5 75t47.5 107.5zM525 515q0 -96 -82 -175t-149 -79q-28 0 -62.5 15t-36.5 26q-34 -71 -34 -132q0 -64 36 -108t91 -44q81 0 192 94.5t188.5 210.5t77.5 179q0 42 -33 82.5t-82 40.5q-40 0 -40 21
q0 11 15.5 18.5t44.5 7.5q87 0 137.5 -68.5t50.5 -171.5q0 -125 -75 -241.5t-193 -187t-241 -70.5q-144 0 -249 93t-105 217q0 90 55.5 191t140.5 169.5t162 68.5q68 0 129.5 -49t61.5 -108z" />
    <glyph glyph-name="f.3" unicode="&#xe006;" horiz-adv-x="734" 
d="M244 367l-9 3q-83 -197 -138.5 -361t-55.5 -221t55 -57q76 0 137 104.5t61 268.5q0 155 -50 263zM335 352q35 -109 35 -289q0 -179 -92.5 -303.5t-224.5 -124.5q-75 0 -133.5 67.5t-58.5 153.5q0 88 68.5 288t156.5 396t175 346.5t121 150.5q24 0 99.5 -36.5t75.5 -61.5
q0 -8 -8 -16t-15 -8q-30 0 -104.5 -135t-163.5 -337q16 -6 36 -6q80 0 197.5 86.5t203.5 200.5t86 189q0 48 -32.5 89.5t-83.5 41.5q-18 0 -28.5 6t-10.5 14q0 11 15.5 19t45.5 8q86 0 136.5 -68.5t50.5 -171.5q0 -126 -77.5 -242t-205 -186.5t-264.5 -70.5z" />
    <glyph glyph-name="h.3" unicode="&#xe007;" horiz-adv-x="1155" 
d="M488 937q-31 0 -133.5 -214t-182.5 -431q82 141 181.5 260.5t141.5 119.5q30 0 102 -39.5t72 -68.5q0 -7 -4 -13t-9 -6q-19 0 -60.5 -85t-76 -192.5t-34.5 -162.5q0 -42 21.5 -64.5t62.5 -22.5q80 0 183.5 82t176.5 193.5t73 191.5q0 53 -32 96t-82 43q-19 0 -30 6.5
t-11 14.5q0 11 16 19t45 8q87 0 137 -73t50 -192q0 -204 -141 -339t-354 -135q-143 0 -227 63t-84 169q0 61 27 148t65 164q-98 -126 -178 -266t-80 -190q0 -21 -18 -21q-36 0 -100.5 39.5t-64.5 81.5q0 50 77.5 274t173 433t134.5 209q46 0 110 -31.5t64 -55.5
q0 -13 -11 -13z" />
    <glyph glyph-name="i.3" unicode="&#xe008;" horiz-adv-x="817" 
d="M306 552q-26 0 -93.5 -207t-67.5 -252t23 -69.5t64 -24.5q59 0 135.5 50t141 121.5t109 153.5t44.5 141q0 54 -32 97t-82 43q-19 0 -30 6.5t-11 14.5q0 11 16 19t45 8q87 0 137 -73t50 -192q0 -204 -140.5 -339t-351.5 -135q-143 0 -228.5 63.5t-85.5 169.5q0 63 85 294
t117 231q44 0 104.5 -38t60.5 -67q0 -15 -10 -15zM468 924q-26 0 -63.5 -78.5t-37.5 -128.5q0 -7 -1.5 -10.5t-10 -6.5t-24.5 -3q-60 0 -99 32t-39 81q0 63 52 145t93 82q30 0 87.5 -38t57.5 -60q0 -5 -4.5 -10t-10.5 -5z" />
    <glyph glyph-name="k.3" unicode="&#xe009;" horiz-adv-x="1085" 
d="M1026 408q0 -132 -62.5 -242.5t-162.5 -171.5t-212 -61q-140 0 -248.5 90.5t-124.5 215.5q-95 -163 -95 -218q0 -21 -18 -21q-35 0 -99.5 40t-64.5 81q0 49 81.5 273.5t179 433.5t132.5 209q44 0 109 -30.5t65 -50.5q0 -5 -4.5 -10t-9.5 -5q-30 0 -133 -213t-185 -429
q84 141 183 257t145 116q30 0 95.5 -41t65.5 -62q0 -47 -41.5 -126t-106.5 -143.5t-119 -64.5q0 -75 48.5 -146t103.5 -71q58 0 150 81.5t163.5 194.5t71.5 191q0 54 -32.5 97t-83.5 43q-39 0 -39 20q0 12 15.5 20t45.5 8q87 0 137 -73t50 -192zM456 570q-97 -105 -193 -256
q11 -7 21 -7q29 0 71 50t72 111.5t30 96.5q0 3 -1 5z" />
    <glyph glyph-name="l.3" unicode="&#xe00a;" horiz-adv-x="808" 
d="M212 18q63 0 143 50t145 121.5t110 153.5t45 142q0 53 -32 96t-82 43q-19 0 -30 6.5t-11 14.5q0 11 16 19t45 8q87 0 137 -73t50 -192q0 -205 -142.5 -339.5t-361.5 -134.5q-137 0 -219.5 56.5t-82.5 159.5q0 58 78 275.5t173.5 415t134.5 197.5q24 0 102 -37.5t78 -62.5
q0 -6 -5 -12t-11 -6q-33 0 -120 -179.5t-160.5 -381.5t-73.5 -263q0 -77 74 -77z" />
    <glyph glyph-name="m.3" unicode="&#xe00b;" horiz-adv-x="1537" 
d="M515 185q74 153 200.5 320t176.5 167q30 0 102.5 -39.5t72.5 -68.5q0 -7 -4.5 -12.5t-10.5 -5.5q-23 0 -68 -88t-81 -198t-36 -167q0 -75 75 -75q63 0 142.5 50t144.5 121.5t110 153.5t45 142q0 53 -32 96t-82 43q-19 0 -30 6.5t-11 14.5q0 11 16 19t45 8q87 0 137 -73
t50 -192q0 -205 -142.5 -339.5t-360.5 -134.5q-137 0 -220 56.5t-83 157.5q0 62 29.5 152t71.5 172q-96 -124 -172 -258t-76 -181q0 -13 -6 -22.5t-14 -9.5q-77 0 -140.5 35t-63.5 74q0 67 34.5 177.5t79.5 202.5q-103 -128 -188 -272.5t-85 -195.5q0 -21 -18 -21
q-38 0 -109.5 41t-71.5 86q0 63 93 304t128 241q40 0 109.5 -29t69.5 -55q0 -12 -9 -12q-17 0 -61 -89.5t-83 -199.5q84 141 186 263t144 122q31 0 103 -39.5t72 -68.5q0 -7 -4 -12.5t-10 -5.5q-28 0 -82 -120.5t-83 -240.5z" />
    <glyph glyph-name="n.3" unicode="&#xe00c;" horiz-adv-x="1171" 
d="M501 109q0 -44 23 -67.5t63 -23.5q59 0 136 50t141.5 121.5t109 153.5t44.5 142q0 53 -31.5 95t-80.5 42q-20 0 -31.5 7t-11.5 16q0 11 16 19t45 8q87 0 137 -73t50 -192q0 -204 -140.5 -339t-352.5 -135q-142 0 -227.5 63t-85.5 170q0 61 26.5 146.5t64.5 161.5
q-98 -126 -176.5 -265t-78.5 -188q0 -21 -18 -21q-38 0 -109.5 41.5t-71.5 87.5q0 38 41.5 169.5t96 252.5t84.5 121q39 0 107 -29.5t68 -55.5q0 -11 -8 -11q-22 0 -65.5 -90t-82.5 -206q82 143 184.5 267.5t145.5 124.5q29 0 103 -39t74 -65q0 -8 -6.5 -15.5t-13.5 -7.5
q-23 0 -64.5 -85t-73 -190.5t-31.5 -160.5z" />
    <glyph glyph-name="o.3" unicode="&#xe00d;" horiz-adv-x="974" 
d="M849 962q-18 0 -28.5 6t-10.5 15q0 11 16 19t45 8q86 0 137 -69.5t51 -172.5q0 -125 -75.5 -241t-195 -186.5t-243.5 -70.5q-38 0 -75 8q-46 -116 -129 -197t-167 -81q-78 0 -134.5 67.5t-56.5 162.5q0 90 52 197.5t128 181t139 73.5q79 0 155 -42.5t76 -87.5
q0 -14 -8 -23t-16 -9q-3 0 -9 2q7 -27 7 -65q0 -50 -12 -101q69 5 155 64t154 136t114.5 157t46.5 126q0 42 -33 82.5t-83 40.5zM219 85q44 0 97.5 63.5t90.5 152.5q-100 54 -100 167q0 15 1 22q-55 -63 -93 -157.5t-38 -172.5q0 -75 42 -75zM444 467q0 68 -28 68
q-16 0 -31 -24t-15 -56q0 -64 59 -89q15 58 15 101z" />
    <glyph glyph-name="r.3" unicode="&#xe00e;" horiz-adv-x="1037" 
d="M533 522q-48 -50 -107 -199.5t-59 -222.5q0 -39 21.5 -60.5t61.5 -21.5q80 0 184 82t177 193.5t73 191.5q0 53 -31.5 95t-80.5 42q-20 0 -31.5 7t-11.5 16q0 11 16 19t45 8q87 0 137 -73t50 -192q0 -204 -141 -339t-355 -135q-142 0 -226 61.5t-84 164.5q0 68 34 167
t79 174q-29 -21 -48 -21q-21 0 -65 19q-74 -111 -127 -178t-65 -67q-6 0 -13 10t-7 23q0 20 16 39q54 70 138 204q-59 38 -59 75q0 70 37 142t77 72q31 0 97 -29.5t66 -53.5q0 -7 -14 -23q-30 -34 -50.5 -79t-22.5 -85q33 11 54 29t28 33.5t19 27t32 11.5q29 0 99.5 -38
t70.5 -65q0 -10 -14 -24z" />
    <glyph glyph-name="s.3" unicode="&#xe00f;" horiz-adv-x="853" 
d="M-5 -19q48 0 121.5 49.5t73.5 94.5q0 7 -1 12q-101 -31 -164.5 -66.5t-63.5 -64.5q0 -25 34 -25zM161 195q-39 50 -62 82t-46.5 77.5t-23.5 75.5q0 51 53 120.5t125.5 119t124.5 49.5q56 0 118.5 -49t62.5 -110q0 -41 -24 -41q-15 0 -15 17q0 12 -13 21.5t-29 9.5
q-49 0 -134 -77t-85 -124q0 -34 57 -120q239 120 375 246.5t136 228.5q0 49 -31.5 82t-79.5 33q-43 0 -43 21q0 11 15.5 19t46.5 8q83 0 134.5 -61t51.5 -158q0 -166 -151.5 -300.5t-408.5 -196.5q36 -65 36 -104q0 -47 -50 -99t-112.5 -83.5t-104.5 -31.5q-55 0 -115.5 49
t-60.5 113q0 72 253 183z" />
    <glyph glyph-name="t.3" unicode="&#xe010;" horiz-adv-x="809" 
d="M749 407q0 -204 -142 -339t-359 -135q-138 0 -221.5 57.5t-83.5 160.5q0 40 42 171t103 282h-20q-29 0 -45.5 10t-16.5 24t16.5 24t45.5 10h48q67 159 124 262t86 103q24 0 99 -37t75 -60q0 -7 -6 -14t-12 -7q-33 0 -143 -247h50q29 0 45 -10t16 -24t-16 -24t-45 -10h-80
q-68 -160 -119 -309t-51 -196q0 -81 78 -81q82 0 187.5 82t178.5 193.5t73 191.5q0 53 -32 96t-82 43q-19 0 -30 6.5t-11 14.5q0 11 16 19t45 8q87 0 137 -73t50 -192z" />
    <glyph glyph-name="u.3" unicode="&#xe011;" horiz-adv-x="1167" 
d="M303 168q-98 -168 -166 -168q-46 0 -120 49t-74 89q0 33 44.5 162.5t102 250.5t86.5 121q47 0 108.5 -29.5t61.5 -52.5q0 -11 -9 -11q-20 0 -70 -104t-92.5 -231t-42.5 -183q16 6 38 31.5t52 75t51.5 87.5t58.5 108q40 74 63.5 115.5t55.5 93.5t55 75.5t39 23.5
q27 0 85 -39t58 -68q0 -7 -4.5 -13t-9.5 -6q-22 0 -65 -85t-77.5 -192t-34.5 -161q0 -42 23 -65.5t63 -23.5q59 0 136 50t141.5 121.5t109 153.5t44.5 142q0 53 -32 96t-82 43q-19 0 -30 6.5t-11 14.5q0 11 16 19t45 8q87 0 137 -73t50 -192q0 -204 -140.5 -339t-350.5 -135
q-143 0 -228 64.5t-85 170.5z" />
    <glyph glyph-name="x.3" unicode="&#xe012;" horiz-adv-x="1097" 
d="M709 596q0 -8 -10 -8q-6 0 -17.5 3.5t-16.5 3.5q-28 0 -120.5 -71t-207.5 -177q31 -133 80 -231t89 -98q59 0 137 49t144 119t112 152.5t46 144.5q0 55 -32.5 98.5t-83.5 43.5q-39 0 -39 20q0 11 15.5 19t44.5 8q87 0 137.5 -72.5t50.5 -191.5q0 -204 -140.5 -339.5
t-349.5 -135.5q-137 0 -243 60t-145 159q-2 6 -4 14q-178 -192 -178 -254q0 -24 -28 -24q-22 0 -35.5 12.5t-13.5 33.5q0 91 232 332q-17 92 -33.5 210t-16.5 142q0 28 27 40.5t64 12.5q48 0 103.5 -17t55.5 -33q0 -5 -5.5 -10t-9.5 -5q-10 0 -10 -42q0 -46 10 -119
q111 99 199.5 162.5t121.5 63.5q22 0 46 -25t24 -50z" />
    <glyph glyph-name="g.4" unicode="&#xe013;" horiz-adv-x="711" 
d="M485 590q54 82 83 82q26 0 87 -37.5t61 -61.5q0 -8 -5.5 -16t-11.5 -8q-30 0 -113 -299q-31 -119 -79 -258q227 -19 508 -97q191 -55 276 -55q32 0 52 8t26.5 19.5t10 23t9 19.5t17.5 8q27 0 27 -34q0 -26 -17.5 -59.5t-49 -66.5t-84 -55.5t-113.5 -22.5
q-46 0 -105.5 15.5t-101 32t-120.5 50.5q-73 31 -118 49.5t-116 41t-134 34.5q-47 -113 -141 -190.5t-205 -77.5q-82 0 -127.5 42.5t-45.5 105.5q0 48 29 86.5t70.5 60.5t96.5 37.5t98 21t84 7.5q16 70 16 134q0 38 4 70q-120 -200 -195 -200q-43 0 -117.5 46.5t-74.5 77.5
q0 129 50.5 258t128.5 209.5t155 80.5q49 0 114.5 -29.5t70.5 -52.5zM155 61q55 20 199 301q67 130 123 216q-10 -2 -19 -2q-72 0 -142.5 -72t-115.5 -193t-45 -250zM13 -221q0 -36 29 -58t66 -22q58 0 112.5 61.5t89.5 157.5q-132 0 -214.5 -39t-82.5 -100z" />
    <glyph glyph-name="j.4" unicode="&#xe014;" horiz-adv-x="300" 
d="M999 -82q27 0 27 -34q0 -26 -17.5 -59.5t-49.5 -66.5t-85 -55.5t-114 -22.5q-112 0 -320 96q-211 97 -374 127q-45 -113 -139.5 -190.5t-205.5 -77.5q-82 0 -127.5 42.5t-45.5 106.5q0 49 29 87t70.5 60t97 37t98.5 20.5t85 7.5q16 56 23 114q13 105 52.5 238.5
t85.5 228.5t74 95q22 0 82 -42t60 -62q0 -6 -4.5 -12t-10.5 -6q-35 0 -119 -314q-26 -104 -73 -244q236 -19 510 -98q193 -54 276 -54q32 0 52 8t26.5 19.5t10 23t9 19.5t17.5 8zM182 810q0 63 52 145t93 82q30 0 87.5 -38t57.5 -60q0 -5 -4.5 -10t-10.5 -5
q-26 0 -63.5 -78.5t-37.5 -128.5q0 -7 -1.5 -10.5t-10 -6.5t-24.5 -3q-60 0 -99 32t-39 81zM-394 -218q0 -36 29.5 -59t65.5 -23q56 0 110 59.5t92 158.5q-131 0 -214 -38.5t-83 -97.5z" />
    <glyph glyph-name="q.4" unicode="&#xe015;" horiz-adv-x="695" 
d="M1609 -421q-66 0 -142.5 25t-182.5 73q-164 74 -288 107t-239 33q-135 0 -219 -39.5t-84 -101.5q0 -18 -7.5 -29.5t-19.5 -11.5q-77 0 -140.5 35t-63.5 74q0 95 108 434q-101 -178 -172 -178q-44 0 -119 46.5t-75 77.5q0 129 50.5 257.5t128.5 209t155 80.5
q51 0 116.5 -30t68.5 -53q55 83 83 83q27 0 85 -38.5t58 -67.5q0 -16 -10 -16q-30 0 -138 -308t-137 -466q45 57 149 89t254 32q268 0 629 -103q193 -54 275 -54q32 0 52 8t26.5 19.5t10 23t9 19.5t17.5 8q27 0 27 -34q0 -26 -17.5 -59.5t-49.5 -66.5t-84.5 -55.5
t-113.5 -22.5zM154 61q17 6 39 31.5t52 76t51 87t59 108.5q79 146 122 214q-8 -2 -17 -2q-73 0 -144 -72t-116.5 -192.5t-45.5 -250.5z" />
    <glyph glyph-name="y.4" unicode="&#xe016;" horiz-adv-x="691" 
d="M331 194q-120 -194 -195 -194q-45 0 -118 49t-73 89q0 56 90 295t125 239q46 0 113.5 -31t67.5 -54q0 -8 -7 -8q-19 0 -68 -104.5t-91 -231.5t-42 -183q55 19 201 305q159 307 213 307q26 0 86 -38t60 -63q0 -16 -11 -16q-18 0 -45.5 -78t-72.5 -234q-48 -164 -78 -251
q187 -16 507 -97q216 -55 280 -55q38 0 58 12t23 27t9.5 27t20.5 12q27 0 27 -34q0 -26 -17.5 -59.5t-49.5 -66.5t-85 -55.5t-114 -22.5q-114 0 -320 96q-207 95 -372 127q-46 -114 -140 -191t-206 -77q-82 0 -128 42.5t-46 106.5q0 48 29 86.5t70 60.5t96 37t98.5 20.5
t84.5 7.5q17 74 17 145q0 26 3 53zM-9 -217q0 -36 31 -60t67 -24q56 0 110 61.5t89 157.5q-131 0 -214 -38.5t-83 -96.5z" />
    <glyph glyph-name="z.4" unicode="&#xe017;" horiz-adv-x="556" 
d="M591 568q0 -7 -5.5 -13.5t-10.5 -6.5q-24 0 -142 -141t-168 -229q82 0 138 -51t56 -115q0 -11 -1 -17q204 -12 560 -101q211 -54 277 -54q38 0 58 12t23 27t9.5 27t20.5 12q27 0 27 -34q0 -26 -17.5 -59.5t-49 -66.5t-84 -55.5t-113.5 -22.5q-45 0 -102 14.5t-97.5 30
t-117.5 47.5q-82 34 -131 53t-131.5 43.5t-157.5 36.5q-41 -77 -133.5 -122t-214.5 -45q-55 0 -91 27t-36 68q0 59 77.5 101t210.5 56q-17 41 -75.5 64t-145.5 23q0 73 85.5 197.5t190.5 241.5q-47 -15 -104 -15q-50 0 -90 22t-40 51q0 16 23 16q95 0 167 30q126 52 171 52
q40 0 102 -39t62 -65zM246 -82q-97 0 -161.5 -21t-64.5 -59q0 -37 64 -37q62 0 105.5 31.5t56.5 85.5z" />
    <glyph glyph-name="t_h" unicode="&#xe018;" horiz-adv-x="1036" 
d="M467 21q0 -21 -18 -21q-36 0 -100.5 40.5t-64.5 84.5q0 13 6 43q-123 -168 -143 -168q-79 0 -141.5 38t-62.5 88q0 52 66 247t144 376q-119 24 -269 62q-219 57 -294 57q-38 0 -58 -12t-23 -27t-9.5 -27t-20.5 -12q-27 0 -27 33q0 26 18 60t49.5 67t84 55.5t112.5 22.5
q48 0 110.5 -16.5t107 -34t127.5 -52.5q77 -33 146 -59q83 171 119 171q24 0 99 -37t75 -60q0 -7 -6 -14t-12 -7q-21 0 -79 -112q52 -10 107 -15q179 358 357 358q62 0 102.5 -40.5t40.5 -103.5q0 -92 -89 -166t-236 -107q-99 -210 -185 -467q82 145 188.5 275.5
t150.5 130.5q30 0 102 -39.5t72 -68.5q0 -7 -4 -13t-9 -6q-19 0 -60.5 -85t-76 -191.5t-34.5 -160.5q0 -16 3 -16q9 0 145.5 193.5t161.5 234.5q22 35 48 35q10 0 17.5 -6t6.5 -13q-1 -21 -86.5 -154t-177.5 -257.5t-108 -124.5q-77 0 -140.5 35t-63.5 74q0 70 32 184
t73 204q-101 -125 -187 -274.5t-86 -201.5zM359 717q-79 -170 -149.5 -365.5t-70.5 -252.5q0 -14 3 -14q11 0 194 263q61 198 135 363q-36 0 -112 6zM723 810q95 25 153.5 74t58.5 102q0 23 -10.5 37t-26.5 14q-62 0 -175 -227z" />
    <glyph glyph-name="t_t" unicode="&#xe019;" horiz-adv-x="690" 
d="M139 106q0 -14 3 -14q13 0 213 285q62 182 132 346q-61 6 -119 15q-80 -168 -154.5 -370.5t-74.5 -261.5zM702 711q-79 -170 -148.5 -362.5t-69.5 -248.5q0 -15 3 -15q9 0 145.5 193.5t161.5 234.5q22 35 48 35q10 0 17.5 -6t6.5 -13q-1 -21 -86.5 -152t-178 -254
t-109.5 -123q-79 0 -141.5 38t-62.5 88q0 12 7 50q-127 -176 -148 -176q-79 0 -141.5 38t-62.5 88q0 55 70 260.5t151 387.5q-388 94 -507 94q-44 0 -72.5 -8t-39 -19.5t-16 -23t-11.5 -19.5t-18 -8q-27 0 -27 33q0 27 18.5 60.5t53.5 66.5t96.5 55.5t135.5 22.5
q86 0 180 -27t266 -101q72 137 103 137q24 0 99 -37t75 -60q0 -7 -6 -14t-12 -7q-18 0 -64 -83q52 -14 108 -24q104 225 145 225q24 0 99 -37t75 -60q0 -7 -6 -14t-12 -7q-24 0 -87 -129q175 0 287 38t112 104q0 18 8 29t19 11q13 0 22 -14.5t9 -41.5q0 -97 -131 -151
t-364 -54z" />
    <glyph glyph-name="b.4" unicode="&#xe01a;" horiz-adv-x="706" 
d="M313 0q-40 0 -92 19t-80 41q-11 -34 -22.5 -47t-29.5 -13q-43 0 -98.5 45.5t-55.5 84.5q0 44 55.5 227.5t132.5 354.5q-89 0 -205 18t-187.5 34.5t-195.5 47.5q-226 57 -292 57q-38 0 -58.5 -12t-23.5 -27t-9.5 -27t-20.5 -12q-27 0 -27 33q0 26 18 60t49.5 67t84 55.5
t112.5 22.5q47 0 109 -16t107.5 -34t126.5 -52q94 -39 147.5 -60t141 -44.5t162.5 -29.5q81 162 172 260t186 98q62 0 102 -40.5t40 -103.5q0 -92 -89 -166.5t-236 -106.5q-129 -277 -206 -537q56 107 119.5 208t136.5 184t116 83q38 0 100 -47.5t62 -77.5
q0 -123 -53 -251.5t-136 -212t-163 -83.5zM587 987q0 23 -10.5 37t-26.5 14q-62 0 -175 -227q95 25 153.5 74t58.5 102zM154 95q77 0 154.5 76.5t127 197t49.5 239.5q-43 -30 -167.5 -224t-163.5 -289z" />
    <glyph glyph-name="d.4" unicode="&#xe01b;" horiz-adv-x="725" 
d="M542 792q192 358 364 358q62 0 102 -40.5t40 -103.5q0 -92 -87.5 -165.5t-232.5 -106.5q-79 -177 -143.5 -376t-64.5 -253q0 -13 3 -13q9 0 143.5 189t163.5 235q20 35 48 35q10 0 17 -5.5t7 -13.5q-3 -35 -175.5 -283.5t-198.5 -248.5q-77 0 -140.5 35t-63.5 74
q0 31 6 68q-100 -177 -170 -177q-44 0 -119 46.5t-75 77.5q0 129 50.5 258t128.5 209.5t155 80.5q34 0 79.5 -16t76.5 -36q23 52 43 91q-213 0 -575 98q-222 59 -296 59q-38 0 -58 -12t-23 -27t-9.5 -27t-20.5 -12q-27 0 -27 33q0 26 18 60t49.5 67t84 55.5t112.5 22.5
q47 0 110 -16.5t106.5 -33.5t126.5 -52q92 -39 145.5 -59.5t139.5 -44.5t160 -30zM434 574q-68 -12 -132.5 -85.5t-105.5 -189.5t-41 -239q20 6 43.5 34t54.5 88t53.5 108t63.5 141q39 90 64 143zM936 1037q-63 0 -172 -226q94 26 151.5 74t57.5 101q0 23 -10.5 37t-26.5 14
z" />
    <glyph glyph-name="f.4" unicode="&#xe01c;" horiz-adv-x="479" 
d="M274 459q90 10 153 40q24 12 42 12q12 0 18 -6t6 -14q0 -25 -54 -52t-124 -42q30 -47 42.5 -152t12.5 -182q0 -179 -92.5 -303.5t-224.5 -124.5q-75 0 -133.5 67.5t-58.5 153.5q0 91 90.5 357.5t211.5 497.5q-89 0 -203.5 18t-184.5 34.5t-192 47.5q-224 57 -289 57
q-38 0 -57.5 -12t-22.5 -27t-9.5 -27t-20.5 -12q-27 0 -27 33q0 26 18 60t49.5 67t84 55.5t112.5 22.5q69 0 148.5 -26t194.5 -76q85 -37 143 -59.5t142 -45t158 -28.5q204 357 372 357q58 0 97 -40.5t39 -102.5q0 -92 -87 -165.5t-232 -107.5q-59 -125 -122 -275zM436 813
q92 26 148 74t56 100q0 22 -10.5 36t-24.5 14q-53 0 -169 -224zM240 377q-84 -206 -141.5 -379t-57.5 -218q0 -22 14.5 -35.5t40.5 -13.5q76 0 137 103.5t61 263.5q0 162 -54 279z" />
    <glyph glyph-name="h.4" unicode="&#xe01d;" horiz-adv-x="691" 
d="M157 266q81 145 187.5 275.5t150.5 130.5q30 0 102 -39.5t72 -68.5q0 -7 -4 -13t-9 -6q-19 0 -60.5 -85t-76 -191.5t-34.5 -160.5q0 -16 3 -16q9 0 145.5 193.5t161.5 234.5q22 35 48 35q10 0 17.5 -6t6.5 -13q-1 -21 -86.5 -154t-177.5 -257.5t-108 -124.5
q-77 0 -140.5 35t-63.5 74q0 70 32 184t73 204q-102 -127 -187.5 -275.5t-85.5 -200.5q0 -21 -18 -21q-36 0 -100.5 40t-64.5 84q0 47 55 231t133 356q-90 0 -206 18t-187.5 34.5t-195.5 47.5q-226 57 -292 57q-38 0 -58.5 -12t-23.5 -27t-9.5 -27t-20.5 -12q-27 0 -27 33
q0 26 18 60t49.5 67t85 55.5t114.5 22.5q116 0 341 -102q263 -120 450 -134q181 358 358 358q62 0 102 -40.5t40 -103.5q0 -92 -89 -166.5t-236 -106.5q-105 -227 -184 -467zM554 1037q-60 0 -175 -227q95 25 153.5 74t58.5 102q0 23 -10.5 37t-26.5 14z" />
    <glyph glyph-name="k.4" unicode="&#xe01e;" horiz-adv-x="685" 
d="M339 734q-100 -215 -184 -466q84 147 191 275.5t156 128.5q30 0 95.5 -41t65.5 -62q0 -47 -41.5 -126t-106.5 -143.5t-119 -64.5q0 -52 26 -97.5t61 -45.5q9 0 143.5 189t163.5 235q20 35 48 35q10 0 17 -5.5t7 -13.5q-3 -35 -175.5 -283.5t-198.5 -248.5q-93 0 -174 73
t-97 168q-96 -163 -96 -220q0 -21 -18 -21q-35 0 -99.5 40.5t-64.5 83.5q0 48 54.5 232t132.5 356q-89 0 -204.5 17.5t-189 34.5t-194.5 48q-228 57 -293 57q-38 0 -58 -12t-23 -27t-9.5 -27t-20.5 -12q-27 0 -27 33q0 26 18 60t49.5 67t84 55.5t113.5 22.5q68 0 147.5 -26
t194.5 -76q273 -121 450 -134q181 358 359 358q62 0 102 -40.5t40 -103.5q0 -92 -89.5 -166.5t-236.5 -106.5zM377 811q95 25 154 74t59 102q0 23 -10.5 37t-26.5 14q-61 0 -176 -227zM263 314q11 -7 21 -7q29 0 71 49.5t72 111t30 94.5q0 6 -1 8q-97 -105 -193 -256z" />
    <glyph glyph-name="l.4" unicode="&#xe01f;" horiz-adv-x="344" 
d="M348 734q-79 -178 -144.5 -376.5t-65.5 -252.5q0 -13 3 -13q9 0 146 189t162 229q20 34 47 34q10 0 17.5 -6t6.5 -13q-1 -21 -86.5 -151t-177.5 -252t-109 -122q-78 0 -141 37t-63 84q0 50 54.5 234t132.5 357q-238 0 -582 97q-209 60 -296 60q-32 0 -51.5 -8t-26 -19.5
t-10 -23t-9 -19.5t-17.5 -8q-27 0 -27 33q0 26 18 60t49.5 67t85 55.5t114.5 22.5q114 0 339 -102q271 -122 452 -134q180 358 358 358q62 0 102 -40.5t40 -103.5q0 -92 -88 -166t-233 -107zM557 1038q-62 0 -173 -226q94 25 152 73.5t58 101.5q0 23 -10.5 37t-26.5 14z" />
    <glyph glyph-name="t.4" unicode="&#xe020;" horiz-adv-x="344" 
d="M500 940q0 -7 -6 -14t-12 -7q-22 0 -82 -119q68 -10 131 -10q133 0 216.5 39t83.5 101q0 19 7.5 30.5t19.5 11.5q14 0 22.5 -15t8.5 -41q0 -94 -116.5 -149.5t-314.5 -55.5q-56 0 -100 4q-79 -170 -149 -364.5t-70 -251.5q0 -14 3 -14q9 0 145.5 193.5t161.5 234.5
q22 35 48 35q10 0 17.5 -6t6.5 -13q-1 -21 -86.5 -152t-178 -254t-109.5 -123q-79 0 -141.5 38t-62.5 88q0 52 65 244.5t142 371.5q-183 36 -295 72q-175 54 -260 54q-40 0 -61 -12t-24.5 -27t-10 -27t-20.5 -12q-27 0 -27 33q0 26 18 60t49.5 67t84 55.5t113.5 22.5
q66 0 136 -24.5t174 -73.5q92 -44 174 -76q88 183 125 183q24 0 99 -37t75 -60z" />
    <glyph glyph-name="k.5" unicode="&#xe021;" horiz-adv-x="1085" 
d="M589 -67q-140 0 -248.5 90.5t-124.5 215.5q-95 -163 -95 -218q0 -21 -18 -21q-35 0 -99.5 40.5t-64.5 83.5q0 48 54.5 232t132.5 356q-89 0 -204.5 17.5t-189 34.5t-194.5 48q-228 57 -293 57q-38 0 -58 -12t-23 -27t-9.5 -27t-20.5 -12q-27 0 -27 33q0 26 18 60t49.5 67
t84.5 55.5t114 22.5q115 0 340 -102q268 -120 451 -134q181 358 359 358q62 0 102 -40.5t40 -103.5q0 -92 -89.5 -166.5t-236.5 -106.5q-100 -215 -184 -466q84 147 191 275.5t156 128.5q30 0 95.5 -41t65.5 -62q0 -47 -41.5 -126t-106.5 -143.5t-119 -64.5q0 -75 48.5 -146
t103.5 -71q58 0 150 81.5t163.5 194.5t71.5 191q0 54 -32.5 97t-83.5 43q-39 0 -39 20q0 12 15.5 20t45.5 8q87 0 137 -73t50 -192q0 -132 -62.5 -242.5t-162.5 -171.5t-212 -61zM377 811q95 25 154 74t59 102q0 23 -10.5 37t-26.5 14q-61 0 -176 -227zM263 314q11 -7 21 -7
q29 0 71 49.5t72 111t30 94.5q0 6 -1 8q-97 -105 -193 -256z" />
    <glyph glyph-name="t.5" unicode="&#xe022;" horiz-adv-x="809" 
d="M889 916q0 -94 -116.5 -149.5t-314.5 -55.5q-56 0 -100 4q-79 -170 -149 -364.5t-70 -251.5q0 -81 78 -81q82 0 187.5 82t178.5 193.5t73 191.5q0 53 -32 96t-82 43q-19 0 -30 6.5t-11 14.5q0 11 16 19t45 8q87 0 137 -73t50 -192q0 -204 -142 -339t-359 -135
q-138 0 -221.5 57.5t-83.5 160.5q0 51 63.5 234.5t140.5 357.5q-130 24 -303 74q-180 51 -254 51q-38 0 -58 -12t-23 -27t-9.5 -27t-20.5 -12q-27 0 -27 33q0 26 18 60t49.5 67t84 55.5t112.5 22.5q47 0 103 -15.5t96.5 -33t111.5 -50.5q106 -49 172 -74q88 182 127 182
q24 0 99 -37t75 -60q0 -7 -6 -14t-12 -7q-22 0 -82 -119q68 -10 131 -10q133 0 216.5 39t83.5 101q0 19 7.5 30.5t19.5 11.5q14 0 22.5 -15t8.5 -41z" />
    <glyph glyph-name="d.5" unicode="&#xe023;" horiz-adv-x="1189" 
d="M434 574q-68 -12 -132.5 -85.5t-105.5 -189.5t-41 -239q66 19 200 336q31 74 79 178zM935 1037q-62 0 -171 -226q94 26 151.5 74.5t57.5 100.5q0 23 -11 37t-27 14zM325 169q-98 -169 -165 -169q-44 0 -119 46.5t-75 77.5q0 129 50.5 258t128.5 209.5t155 80.5
q34 0 79 -15.5t76 -36.5q16 31 44 91q-89 0 -203.5 17.5t-186.5 34.5t-192 48q-224 57 -290 57q-38 0 -57.5 -12t-22.5 -27t-9.5 -27t-20.5 -12q-27 0 -27 33q0 26 18 60t49.5 67t84.5 55.5t114 22.5q115 0 340 -102q266 -119 445 -134q193 358 365 358q62 0 102 -40.5
t40 -103.5q0 -91 -87.5 -165t-232.5 -107q-79 -177 -143.5 -376t-64.5 -253q0 -87 81 -87q80 0 184.5 82t177.5 193.5t73 191.5q0 53 -32 96t-82 43q-19 0 -30 6.5t-11 14.5q0 11 16 19t45 8q87 0 137 -73t50 -192q0 -204 -140.5 -339t-350.5 -135q-144 0 -228.5 65.5
t-84.5 170.5z" />
    <glyph glyph-name="h.5" unicode="&#xe024;" horiz-adv-x="1155" 
d="M157 266q81 145 187.5 275.5t150.5 130.5q30 0 102 -39.5t72 -68.5q0 -7 -4 -13t-9 -6q-19 0 -60.5 -85t-76 -192.5t-34.5 -162.5q0 -42 21.5 -64.5t62.5 -22.5q80 0 183.5 82t176.5 193.5t73 191.5q0 53 -32 96t-82 43q-19 0 -30 6.5t-11 14.5q0 11 16 19t45 8
q87 0 137 -73t50 -192q0 -204 -141 -339t-354 -135q-143 0 -227 63t-84 169q0 61 27 148t65 164q-98 -126 -178 -266t-80 -190q0 -21 -18 -21q-36 0 -100.5 40t-64.5 84q0 47 55 231t133 356q-90 0 -206 18t-187.5 34.5t-195.5 47.5q-226 57 -292 57q-38 0 -58.5 -12
t-23.5 -27t-9.5 -27t-20.5 -12q-27 0 -27 33q0 26 18 60t50 67t85 55.5t115 22.5q121 0 339 -102q258 -120 451 -134q181 358 358 358q62 0 102 -40.5t40 -103.5q0 -92 -89 -166.5t-236 -106.5q-105 -227 -184 -467zM379 810q95 25 153.5 74t58.5 102q0 23 -10.5 37
t-26.5 14q-60 0 -175 -227z" />
    <glyph glyph-name="l.5" unicode="&#xe025;" horiz-adv-x="852" 
d="M545 645q0 11 16 19t45 8q87 0 137 -73t50 -191q0 -207 -144.5 -352t-350.5 -145q-141 0 -225.5 72t-84.5 191q0 86 41.5 238t110.5 301q-238 9 -546 97q-206 59 -296 59q-32 0 -52 -8t-26.5 -19.5t-10 -23t-9 -19.5t-17.5 -8q-27 0 -27 33q0 26 18 60t50 67t85 55.5
t115 22.5q121 0 335 -101q236 -111 421 -132q84 160 182 257.5t202 97.5q67 0 108.5 -40t41.5 -104q0 -98 -99 -175t-260 -106q-74 -150 -123.5 -307t-49.5 -256q0 -70 26 -107.5t73 -37.5q73 0 173.5 82t173 194t72.5 191q0 53 -32 96t-82 43q-19 0 -30 6.5t-11 14.5z
M599 1038q-38 0 -91.5 -63.5t-112.5 -170.5q107 22 175.5 74t68.5 109q0 24 -11 37.5t-29 13.5z" />
    <glyph glyph-name="k.6" unicode="&#xe026;" horiz-adv-x="666" 
d="M339 734q-100 -215 -184 -466q84 147 191 275.5t156 128.5q30 0 95.5 -41t65.5 -62q0 -47 -41.5 -126t-106.5 -143.5t-119 -64.5q0 -103 30.5 -217t77 -190t90.5 -76q31 0 58.5 34.5t27.5 78.5q0 42 21 42q11 0 19 -16.5t8 -46.5q0 -71 -45.5 -113.5t-120.5 -42.5
q-96 0 -177.5 71.5t-129.5 195t-48 269.5q-86 -149 -86 -203q0 -21 -18 -21q-35 0 -99.5 41t-64.5 85q0 47 54.5 230.5t132.5 355.5q-90 0 -205.5 17.5t-188 34.5t-194.5 48q-228 57 -293 57q-38 0 -58 -12t-23 -27t-9.5 -27t-20.5 -12q-27 0 -27 33q0 26 18 60t49.5 67
t84.5 55.5t114 22.5q115 0 340 -102q265 -120 451 -134q181 358 359 358q62 0 102 -40.5t40 -103.5q0 -92 -89.5 -166.5t-236.5 -106.5zM590 987q0 23 -10.5 37t-26.5 14q-61 0 -176 -227q95 25 154 74t59 102zM284 307q29 0 71 49.5t72 111t30 94.5q0 6 -1 8
q-97 -105 -193 -256q11 -7 21 -7z" />
    <glyph glyph-name="a.7" unicode="&#xe027;" horiz-adv-x="744" 
d="M547 0q-77 0 -140.5 35t-63.5 74q0 48 14 115q-56 -106 -104.5 -165t-92.5 -59t-119 46.5t-75 77.5q0 128 50 257.5t125 210t145 80.5q46 0 118 -25.5t81 -56.5q54 82 83 82q27 0 96.5 -39t69.5 -65q0 -8 -6.5 -15t-15.5 -7q-29 0 -71.5 -85.5t-72.5 -191.5t-30 -163
q0 -49 20 -49q18 0 18 -25q0 -32 -29 -32zM476 576q-77 0 -151.5 -72t-122 -192.5t-47.5 -250.5q31 12 85.5 100t126.5 222.5t109 192.5z" />
    <glyph glyph-name="c.7" unicode="&#xe028;" horiz-adv-x="529" 
d="M159 169q0 -84 64 -84q45 0 91 31.5t46 62.5q0 21 19 21q10 0 18 -7t8 -18q0 -73 -61 -124t-151 -51q-98 0 -159 63t-61 163q0 95 53 200t136.5 175.5t162.5 70.5q70 0 130 -50t60 -108q0 -20 -7.5 -30.5t-17.5 -10.5q-14 0 -14 15q0 14 -14.5 22.5t-34.5 8.5
q-54 0 -117.5 -55.5t-107 -138.5t-43.5 -156z" />
    <glyph glyph-name="d.7" unicode="&#xe029;" horiz-adv-x="725" 
d="M330 177q-100 -177 -170 -177q-44 0 -119 46.5t-75 77.5q0 129 50.5 258t128.5 209.5t155 80.5q35 0 83 -17t78 -38q44 107 67.5 162t57 126t56.5 101.5t40 30.5q27 0 105 -37t78 -62q0 -13 -12 -13q-33 0 -115 -178t-150 -380t-68 -267q0 -43 21 -43q17 0 17 -26
q0 -31 -30 -31q-77 0 -140.5 35t-63.5 74q0 31 6 68zM444 575q-70 -7 -137 -80t-109.5 -191t-42.5 -244q19 4 41.5 26t47.5 62.5t47.5 83t51.5 107t49.5 113.5t51.5 123z" />
    <glyph glyph-name="e.7" unicode="&#xe02a;" horiz-adv-x="552" 
d="M426 518q-55 -7 -120.5 -68t-106.5 -142q8 2 16 2q34 0 79 25.5t84.5 75t47.5 107.5zM525 507q0 -92 -82.5 -169t-148.5 -77q-27 0 -60 14.5t-38 25.5q-37 -74 -37 -136q0 -80 64 -80q45 0 91 31.5t46 62.5q0 21 19 21q10 0 18 -7t8 -18q0 -73 -61 -124t-151 -51
q-97 0 -158.5 61.5t-61.5 155.5q0 92 56 199.5t142 181.5t163 74q68 0 129.5 -52.5t61.5 -112.5z" />
    <glyph glyph-name="h.7" unicode="&#xe02b;" horiz-adv-x="691" 
d="M499 950q0 -13 -11 -13q-31 0 -133.5 -214t-182.5 -431q81 138 184.5 259t146.5 121q29 0 97.5 -39.5t68.5 -68.5q0 -7 -4 -13t-9 -6q-19 0 -60.5 -85.5t-76 -193t-34.5 -162.5q0 -47 21 -47q17 0 17 -26q0 -31 -29 -31q-76 0 -139.5 34.5t-63.5 72.5q0 70 32.5 185.5
t73.5 205.5q-102 -127 -188 -276t-86 -201q0 -21 -18 -21q-36 0 -100.5 39.5t-64.5 81.5q0 50 77.5 274t173 433t134.5 209q46 0 110 -31.5t64 -55.5z" />
    <glyph glyph-name="i.7" unicode="&#xe02c;" horiz-adv-x="351" 
d="M151 672q44 0 104.5 -38t60.5 -67q0 -15 -10 -15q-26 0 -93.5 -200.5t-67.5 -245.5q0 -49 21 -49q17 0 17 -26q0 -31 -29 -31q-77 0 -140.5 36t-63.5 78q0 61 84.5 309.5t116.5 248.5zM367 717q0 -7 -1.5 -10.5t-10 -6.5t-24.5 -3q-60 0 -99 32t-39 81q0 63 52 145t93 82
q30 0 87.5 -38t57.5 -60q0 -5 -4.5 -10t-10.5 -5q-26 0 -63.5 -78.5t-37.5 -128.5z" />
    <glyph glyph-name="l.7" unicode="&#xe02d;" horiz-adv-x="344" 
d="M-57 109q0 59 78 286t173 434.5t134 207.5q24 0 102 -37.5t78 -62.5q0 -6 -5 -12t-11 -6q-33 0 -120 -177t-160.5 -378t-73.5 -266q0 -17 6 -29t15 -12q17 0 17 -26q0 -31 -29 -31q-77 0 -140.5 35t-63.5 74z" />
    <glyph glyph-name="m.7" unicode="&#xe02e;" horiz-adv-x="1073" 
d="M1052 546q-23 0 -68 -85t-81 -192.5t-36 -165.5q0 -46 19 -46q18 0 18 -26q0 -31 -29 -31q-77 0 -140.5 35t-63.5 74q0 67 35 177t80 203q-99 -125 -180.5 -267t-81.5 -190q0 -13 -6 -22.5t-14 -9.5q-77 0 -140.5 35t-63.5 74q0 67 34.5 177.5t79.5 202.5
q-103 -128 -188 -272.5t-85 -195.5q0 -21 -18 -21q-38 0 -109.5 41t-71.5 86q0 63 93 304t128 241q40 0 109.5 -29t69.5 -55q0 -12 -9 -12q-17 0 -61 -89.5t-83 -199.5q84 141 186 263t144 122q31 0 103 -39.5t72 -68.5q0 -7 -4 -12.5t-10 -5.5q-28 0 -82 -120.5t-83 -240.5
q74 153 200.5 320t176.5 167q30 0 102.5 -39.5t72.5 -68.5q0 -7 -4.5 -12.5t-10.5 -5.5z" />
    <glyph glyph-name="n.7" unicode="&#xe02f;" horiz-adv-x="706" 
d="M412 495q-101 -127 -186 -275t-85 -199q0 -21 -18 -21q-38 0 -109.5 41.5t-71.5 87.5q0 38 41.5 169.5t96 252.5t84.5 121q39 0 107 -29.5t68 -55.5q0 -11 -8 -11q-22 0 -65.5 -90t-82.5 -206q82 143 184.5 267.5t145.5 124.5q29 0 103 -39t74 -65q0 -8 -6.5 -15.5
t-13.5 -7.5q-23 0 -64.5 -85.5t-73 -191.5t-31.5 -161q0 -47 20 -47q18 0 18 -26q0 -31 -29 -31q-75 0 -139.5 34.5t-64.5 74.5q0 69 32 181t74 202z" />
    <glyph glyph-name="r.7" unicode="&#xe030;" horiz-adv-x="673" 
d="M592 283q-38 0 -87 18.5t-83 44.5t-34 46q0 45 17 91q-100 -126 -181.5 -269t-81.5 -193q0 -21 -18 -21q-38 0 -109.5 41.5t-71.5 86.5q0 62 92 302.5t127 240.5q40 0 109 -29.5t69 -55.5q0 -11 -7 -11q-15 0 -56 -84t-81 -190q84 140 180 255t137 115q31 0 103.5 -40
t72.5 -70q0 -9 -6.5 -16.5t-14.5 -7.5q-25 0 -54.5 -62.5t-29.5 -103.5q0 -31 19 -31q18 0 18 -25q0 -15 -8 -23.5t-21 -8.5z" />
    <glyph glyph-name="u.7" unicode="&#xe031;" horiz-adv-x="702" 
d="M507 0q-77 0 -140.5 35t-63.5 74q0 35 7 73q-102 -182 -173 -182q-46 0 -120 49t-74 89q0 33 44.5 162.5t102 250.5t86.5 121q47 0 108.5 -29.5t61.5 -52.5q0 -11 -9 -11q-20 0 -70 -104t-92.5 -231t-42.5 -183q16 6 38 31.5t52 75t51.5 87.5t58.5 108q40 74 63.5 115.5
t55.5 93.5t55 75.5t39 23.5q27 0 85 -39t58 -68q0 -7 -4.5 -13t-9.5 -6q-22 0 -65 -86t-77.5 -193t-34.5 -162q0 -47 21 -47q18 0 18 -26q0 -31 -29 -31z" />
    <glyph glyph-name="x.7" unicode="&#xe032;" horiz-adv-x="644" 
d="M308 567q0 -50 10 -123q111 100 199.5 163.5t121.5 63.5q22 0 46 -25t24 -50q0 -8 -10 -8q-6 0 -17.5 3.5t-16.5 3.5q-29 0 -122.5 -72t-209.5 -180q53 -286 121 -286q21 0 21 -26q0 -31 -29 -31q-88 0 -168.5 46t-103.5 105q-5 13 -8 26q-188 -200 -188 -265
q0 -24 -28 -24q-22 0 -35.5 12.5t-13.5 33.5q0 47 66.5 138.5t174.5 202.5q-21 94 -40 207.5t-19 137.5q0 27 27 39t64 12q48 0 103.5 -17t55.5 -33q0 -5 -5.5 -10t-9.5 -5q-10 0 -10 -39z" />
    </font>
</defs>
</svg>
